# ProBuilder 4.3.0
# https://unity3d.com/unity/features/worldbuilding/probuilder
# 2020/4/16 20:00:12

mtllib ./Floor2.mtl
o Floor2

g Cube (1)
v 0 0 0
v -20 0 0
v 0 0.3 0
v -20 0.3 0
v -20 0 -20
v -20 0.3 -20
v 0 0 -20
v 0 0.3 -20

vt 0 0
vt -20 0
vt 0 0.3
vt -20 0.3
vt 20 0
vt 20 0.3
vt 0 -20
vt 20 -20
vt -20 -20

vn 0 0 1
vn -1 0 0
vn 0 0 -1
vn 1 0 0
vn 0 1 0
vn 0 -1 0

usemtl SCP-OZ-Floor
f 3/3/1 4/4/1 2/2/1 1/1/1
f 4/3/2 6/4/2 5/2/2 2/1/2
f 6/6/3 8/3/3 7/1/3 5/5/3
f 8/6/4 3/3/4 1/1/4 7/5/4
f 8/7/5 6/8/5 4/5/5 3/1/5
f 1/1/6 2/2/6 5/9/6 7/7/6

