# ProBuilder 4.4.0
# https://unity3d.com/unity/features/worldbuilding/probuilder
# 2020/10/2 21:37:50

mtllib ./FBox_One_X.mtl
o FBox_One_X

g FBox_One_X
v 0.1792 -0.01213 0.3228
v -0.1791089 -0.01213 0.3228
v 0.1792 0.03587 0.3228
v -0.1791089 0.03587 0.3228
v 0.1792 0.03587 0.03604895
v -0.1791089 0.03587 0.03604895
v -0.1791089 -0.01213 0.3111122
v 0.1792 -0.01213 0.3111122
v -0.1699544 -0.01213 0.3111122
v 0.1792 -0.01213 0.0477367
v -0.1791089 -0.01213 0.03604895
v -0.1791089 -0.01213 0.0477367
v 0.1792 -0.01213 0.03604895
v -0.1699544 -0.01213 0.0477367
v 0.1792 -0.03713 0.1794245
v 0.1792 -0.03713 0.0477367
v -0.1699544 -0.03713 0.0477367
v -0.1699544 -0.03713 0.3111122
v 0.1792 -0.03713 0.3111122
v -0.1791089 -0.01213 0.1794245
v 0.1792 -0.01213 0.1794245
v -0.1699544 -0.021505 0.3111122
v -0.1699544 -0.02838 0.3111122
v 0.1792 -0.021505 0.3111122
v 0.1792 -0.02838 0.3111122
v 0.09462278 -0.02838 0.3111122
v 0.09462278 -0.023505 0.3111122
v 0.1419114 -0.021505 0.3111122
v 0.1605557 -0.021505 0.3111122
v 0.1232671 -0.023505 0.3111122
v 0.1419114 -0.02838 0.3111122
v 0.1232671 -0.02838 0.3111122
v 0.1605557 -0.02838 0.3111122
v 0.1419114 -0.021505 0.2861122
v 0.1605557 -0.021505 0.2861122
v 0.1605557 -0.02838 0.2861122
v 0.1419114 -0.02838 0.2861122
v 0.1232671 -0.02838 0.2861122
v 0.09462278 -0.02838 0.2861122
v 0.09462278 -0.023505 0.2861122
v 0.1232671 -0.023505 0.2861122
v -0.1791089 0.01187 0.03604895
v -0.1791089 -0.0001299996 0.03604895
v -0.1791089 0.02387 0.03604895
v 0.1792 0.01187 0.03604895
v 0.1792 -0.0001299996 0.03604895
v 0.1792 0.02387 0.03604895
v -0.1395317 -0.0001299996 0.03604895
v -0.1395317 0.02387 0.03604895
v -0.05995446 0.02387 0.03604895
v -0.05995446 -0.0001299996 0.03604895
v 0.02962276 -0.0001299996 0.03604895
v 0.03362277 0.01687 0.03604895
v 0.02962276 0.02387 0.03604895
v 0.03362277 0.00587 0.03604895
v 0.1147635 -0.0001299996 0.03604895
v 0.1147635 0.02387 0.03604895
v 0.1344114 0.01137 0.03604895
v 0.1213128 0.00787 0.03604895
v 0.07801708 0.00587 0.03604895
v 0.1082142 0.00787 0.03604895
v 0.07801708 0.01687 0.06104895
v 0.03362277 0.01687 0.06104895
v 0.03362277 0.00587 0.06104895
v 0.07801708 0.00587 0.06104895
v 0.1180241 0.00587 0.03604893
v 0.1114889 0.00587 0.03604895
v 0.1213128 0.01487 0.03604895
v 0.1180241 0.01687 0.03604893
v 0.1082142 0.01487 0.03604895
v 0.1114889 0.01687 0.03604895
v 0.07801708 0.01687 0.03604895
v 0.1180258 0.005869999 0.06104895
v 0.1213128 0.00787 0.06104895
v 0.1213128 0.01487 0.06104895
v 0.1082142 0.01487 0.06104895
v 0.1082142 0.00787 0.06104895
v 0.1114889 0.01687 0.06104895
v 0.1114889 0.00587 0.06104895
v 0.1180258 0.01687 0.06104895
v 0.1180272 0.00787 0.06304897
v 0.1180272 0.01487 0.06304897
v 0.1114889 0.01487 0.03804895
v 0.1114889 0.00787 0.03804895
v 0.1179008 0.00787 0.03804894
v 0.1179008 0.01487 0.03804894
v 0.1114889 0.01487 0.06304896
v 0.1114889 0.00787 0.06304896
v 0.1435 0.0158 0.31941
v 0.1435 0.0158 0.32441
v 0.1445718 0.0118 0.31941
v 0.1445718 0.01179999 0.32441
v 0.1475 0.008871796 0.31941
v 0.1475 0.008871791 0.32441
v 0.1515 0.007799999 0.31941
v 0.1515 0.007799995 0.32441
v 0.1555 0.008871796 0.31941
v 0.1555 0.008871791 0.32441
v 0.1584282 0.0118 0.31941
v 0.1584282 0.01179999 0.32441
v 0.1595 0.0158 0.31941
v 0.1595 0.0158 0.32441
v 0.1584282 0.0198 0.31941
v 0.1584282 0.0198 0.32441
v 0.1555 0.0227282 0.31941
v 0.1555 0.0227282 0.32441
v 0.1515 0.0238 0.31941
v 0.1515 0.0238 0.32441
v 0.1475 0.0227282 0.31941
v 0.1475 0.0227282 0.32441
v 0.1445718 0.0198 0.31941
v 0.1445718 0.0198 0.32441
v 0.1515 0.0158 0.32441

vt 0.1791545 -0.0115
vt -0.1791545 -0.0115
vt 0.1791545 0.0365
vt -0.1791545 0.0365
vt -0.1791545 0.1433755
vt 0.1791545 0.1433755
vt -0.1791545 -0.1433755
vt 0.1791545 -0.1433755
vt -0.1791545 0.1316878
vt 0.1791545 0.1316878
vt -0.17 0.1316878
vt 0.1791545 -0.1316878
vt -0.1791545 -0.1316878
vt -0.17 -0.1316878
vt 0.1791545 0
vt -0.1791545 0
vt 0 -0.0115
vt 0.1316878 -0.0115
vt 0 -0.0365
vt 0.1316878 -0.0365
vt 0.17 -0.0115
vt -0.1791545 -0.0365
vt 0.17 -0.0365
vt 0.1316878 -0.020875
vt -0.1316878 -0.0365
vt -0.1316878 -0.0115
vt 0.1316878 -0.02775
vt -0.1316878 -0.020875
vt -0.1316878 -0.02775
vt 0.09457724 -0.02775
vt -0.17 -0.02775
vt -0.17 -0.020875
vt 0.09457724 -0.022875
vt -0.17 -0.0115
vt 0.1791545 -0.020875
vt 0.1418658 -0.020875
vt 0.1605102 -0.020875
vt 0.1232215 -0.022875
vt 0.1791545 -0.02775
vt 0.1791545 -0.0365
vt 0.1418658 -0.02775
vt -0.17 -0.0365
vt 0.1232215 -0.02775
vt 0.1605102 -0.02775
vt -0.1605102 0.1316878
vt -0.1418658 0.1316878
vt -0.1605102 0.1066878
vt -0.1418658 0.1066878
vt -0.1066878 -0.02775
vt -0.1066878 -0.020875
vt 0.1066878 -0.020875
vt 0.1066878 -0.02775
vt 0.1418658 0.1316878
vt 0.1605102 0.1316878
vt 0.1418658 0.1066878
vt 0.1605102 0.1066878
vt -0.1232215 0.1316878
vt -0.09457724 0.1316878
vt -0.1232215 0.1066878
vt -0.09457724 0.1066878
vt -0.1316878 -0.022875
vt -0.1066878 -0.022875
vt 0.1316878 -0.022875
vt 0.1066878 -0.022875
vt 0.09457724 0.1316878
vt 0.1232215 0.1316878
vt 0.09457724 0.1066878
vt 0.1232215 0.1066878
vt 1.134648 0.9537114
vt 1.134648 -0.006288648
vt 1.094325 -0.006288648
vt 0.640002 -0.006288648
vt 0.1856792 -0.006288648
vt 0.1453564 -0.006288648
vt 0.1453564 0.4737114
vt 0.1453564 0.9537114
vt 0.1453564 0.2337114
vt 0.1453564 0.7137114
vt 0.8478966 0.4737114
vt 0.8478966 -0.006288648
vt 0.8075738 -0.006288648
vt 0.8478966 0.9537114
vt 0.353251 -0.006288648
vt -0.1010718 -0.006288648
vt -0.1413946 -0.006288648
vt -0.1413946 0.9537114
vt 0.8478966 0.2337114
vt 0.8478966 0.7137114
vt 0.1791545 0.0245
vt 0.1791545 0.0125
vt 0.1395772 0.0005
vt 0.1395772 0.0245
vt -0.004895508 0.9745148
vt 0.9898199 0.9745148
vt 0.9898199 -0.009485096
vt -0.004895508 -0.009485096
vt 0.06 0.0005
vt -0.02957723 0.0005
vt -0.03357723 0.0175
vt 0.06 0.0245
vt -0.02957723 0.0245
vt -0.03357723 0.006499999
vt -0.114718 0.0005
vt -0.1791545 0.0125
vt -0.1791545 0.0245
vt -0.114718 0.0245
vt -0.1343658 0.012
vt -0.1212673 0.0085
vt -0.07797154 0.006499999
vt -0.1081687 0.0085
vt -0.07797154 0.0175
vt -0.1179785 0.006499999
vt -0.1114433 0.006499999
vt -0.1212673 0.0155
vt -0.1179786 0.0175
vt -0.1081687 0.0155
vt -0.1114433 0.0175
vt -0.1041795 -0.1433735
vt -0.1080286 -0.1433735
vt -0.104181 -0.1183735
vt -0.1080286 -0.1183735
vt -0.1433755 0.0085
vt -0.1433755 0.0155
vt -0.1183755 0.0085
vt -0.1183755 0.0155
vt 0.1433755 0.0155
vt 0.1433755 0.0085
vt 0.1183755 0.0155
vt 0.1183755 0.0085
vt 0.1042292 -0.1433755
vt 0.1003921 -0.1433755
vt 0.1042292 -0.1183755
vt 0.1003921 -0.1183755
vt -0.08788261 -0.1433755
vt -0.0917197 -0.1433755
vt -0.08788261 -0.1183755
vt -0.0917197 -0.1183755
vt 0.1179786 -0.1433755
vt 0.1114433 -0.1433755
vt 0.1179803 -0.1183755
vt 0.1114433 -0.1183755
vt -0.1114433 -0.1433755
vt -0.1179785 -0.1433755
vt -0.1114433 -0.1183755
vt -0.1179803 -0.1183755
vt 0.09555808 -0.1433755
vt 0.09170897 -0.1433755
vt 0.09555808 -0.1183755
vt 0.09171048 -0.1183755
vt -0.1179049 -0.04787061
vt -0.1211891 -0.04882222
vt -0.1211891 -0.04266342
vt -0.1179049 -0.0417118
vt -0.1114437 0.0155
vt -0.1114437 0.0085
vt -0.1178556 0.0085
vt -0.1178556 0.0155
vt -0.1113665 -0.04170976
vt -0.1080906 -0.04265931
vt -0.1080906 -0.04881812
vt -0.1113665 -0.04786856
vt 0.1889766 -0.1202059
vt 0.1922622 -0.1216189
vt 0.1889764 -0.1230344
vt 0.1824394 -0.1230371
vt 0.1824382 -0.1202087
vt 0.1791636 -0.1216243
vt -0.1179022 -0.05058086
vt -0.1113652 -0.0505788
vt -0.1179817 -0.1163755
vt -0.1114433 -0.1163755
vt -0.1178553 -0.1413755
vt -0.1114433 -0.1413755
vt 0.1157777 0.0085
vt 0.1157777 0.0155
vt 0.140778 0.0085
vt 0.140778 0.0155
vt -0.1163755 0.0155
vt -0.1163755 0.0085
vt -0.1413755 0.0155
vt -0.1413755 0.0085
vt 0.1114433 -0.1163755
vt 0.1179817 -0.1163755
vt 0.1114433 -0.1413755
vt 0.1178553 -0.1413755
vt -0.1433755 0.006499999
vt -0.1433755 0.0175
vt -0.1183755 0.006499999
vt -0.1183755 0.0175
vt 0.07797154 -0.1433755
vt 0.03357723 -0.1433755
vt 0.07797154 -0.1183755
vt 0.03357723 -0.1183755
vt 0.1433755 0.0175
vt 0.1433755 0.006499999
vt 0.1183755 0.0175
vt 0.1183755 0.006499999
vt -0.03357723 -0.1433755
vt -0.07797154 -0.1433755
vt -0.03357723 -0.1183755
vt -0.07797154 -0.1183755
vt 0 0
vt -1.490116E-08 0.004999995
vt 0.004141107 3.72529E-09
vt 0.004141092 0.004999999
vt 0.0035863 0
vt 0.003586307 0.004999995
vt 0.007727399 0
vt 0.007727399 0.004999995
vt 0.005656868 0
vt 0.005656868 0.004999995
vt 0.009797975 0
vt 0.009797975 0.004999995
vt 0 0.005000003
vt -0.004141092 3.72529E-09
vt -0.004141092 0.004999999
vt -0.007727407 0
vt -0.007727407 0.004999995
vt -0.003586307 0
vt -0.003586315 0.004999995
vt -0.009797961 0
vt -0.009797961 0.004999995
vt -0.005656868 0
vt -0.005656868 0.004999995
vt -1.013034 -0.5
vt -0.9433669 -0.76
vt -0.4930337 -0.5
vt -0.7530332 -0.9503332
vt -0.4930337 -1.02
vt -0.2330342 -0.9503332
vt -0.04270047 -0.76
vt 0.02696627 -0.5
vt -0.04270047 -0.2399999
vt -0.2330342 -0.04966661
vt -0.4930337 0.02000016
vt -0.7530332 -0.04966661
vt -0.9433669 -0.2399999

vn 0 0 1
vn 0 1 0
vn 0 -1 0
vn 1 0 0
vn 0 0 -1
vn -1 0 0
vn -0.5195989 0.8544104 3.656109E-05
vn 0.5212278 -0.8534176 0
vn 0.521228 0.8534175 0
vn -0.5196004 -0.8544094 0
vn -0.519963 0 -0.8541888
vn 0.5212288 0 -0.853417
vn -0.395291 -0.649655 -0.6493792
vn -8.256507E-11 -0.7071089 -0.7071047
vn 0.396475 -0.649157 -0.6491555
vn -0.3952904 0.6496565 -0.6493782
vn 0.396475 0.6491568 -0.6491556
vn 2.510205E-08 0.7071087 -0.7071048
vn 0.9999872 0 -0.005054702
vn -0.866025 -0.5000006 -3.725299E-07
vn -0.4999996 -0.8660256 -7.724612E-07
vn 0.4999994 -0.8660257 -7.599839E-07
vn 0.866025 -0.5000006 -4.656623E-07
vn 0.8660251 0.5000004 3.725297E-07
vn 0.4999995 0.8660257 6.4524E-07
vn -0.4999995 0.8660257 6.4524E-07
vn -0.8660251 0.5000004 3.725297E-07

usemtl FBox-Body-Black
f 2/5/3 7/9/3 9/11/3
f 9/11/3 8/10/3 1/6/3
f 2/5/3 9/11/3 1/6/3
f 14/14/3 13/8/3 10/12/3
f 13/8/3 14/14/3 11/7/3
f 14/14/3 12/13/3 11/7/3
f 15/15/3 19/10/3 18/11/3
f 17/14/3 15/15/3 18/11/3
f 17/14/3 16/12/3 15/15/3
f 7/9/3 20/16/3 9/11/3
f 20/16/3 14/14/3 9/11/3
f 20/16/3 12/13/3 14/14/3
f 25/29/4 19/25/4 15/19/4
f 24/28/4 25/29/4 15/19/4
f 15/19/4 21/17/4 24/28/4
f 21/17/4 8/26/4 24/28/4
f 17/25/6 18/20/6 23/27/6
f 17/25/6 23/27/6 22/24/6
f 14/26/6 17/25/6 22/24/6
f 14/26/6 22/24/6 9/18/6
f 9/34/1 22/32/1 27/33/1
f 29/37/1 24/35/1 8/1/1
f 28/36/1 29/37/1 8/1/1
f 30/38/1 28/36/1 8/1/1
f 27/33/1 30/38/1 8/1/1
f 9/34/1 27/33/1 8/1/1
f 33/44/1 19/40/1 25/39/1
f 33/44/1 31/41/1 19/40/1
f 31/41/1 32/43/1 19/40/1
f 32/43/1 26/30/1 19/40/1
f 19/40/1 26/30/1 18/42/1
f 26/30/1 23/31/1 18/42/1
f 5/4/5 47/105/5 57/106/5
f 5/4/5 57/106/5 54/101/5
f 49/92/5 44/89/5 6/3/5
f 50/100/5 49/92/5 6/3/5
f 54/101/5 50/100/5 6/3/5
f 5/4/5 54/101/5 6/3/5
f 48/91/5 11/1/5 43/15/5
f 48/91/5 51/97/5 11/1/5
f 51/97/5 52/98/5 11/1/5
f 11/1/5 52/98/5 13/2/5
f 13/2/5 52/98/5 56/103/5
f 56/103/5 46/16/5 13/2/5
f 42/90/5 44/89/5 49/92/5
f 48/91/5 42/90/5 49/92/5
f 48/91/5 43/15/5 42/90/5
f 55/102/5 52/98/5 51/97/5
f 53/99/5 55/102/5 51/97/5
f 51/97/5 50/100/5 53/99/5
f 50/100/5 54/101/5 53/99/5
f 80/164/13 75/163/13 82/162/13
f 87/166/15 76/167/15 78/165/15
f 81/150/16 74/151/16 73/168/16
f 88/161/17 79/169/17 77/160/17
f 46/16/5 56/103/5 58/107/5
f 45/104/5 46/16/5 58/107/5
f 47/105/5 45/104/5 58/107/5
f 47/105/5 58/107/5 57/106/5
f 71/117/5 70/116/5 57/106/5
f 69/115/5 71/117/5 57/106/5
f 57/106/5 68/114/5 69/115/5
f 57/106/5 58/107/5 68/114/5
f 53/99/5 54/101/5 57/106/5
f 72/111/5 53/99/5 57/106/5
f 70/116/5 72/111/5 57/106/5
f 70/116/5 61/110/5 72/111/5
f 61/110/5 60/109/5 72/111/5
f 58/107/5 59/108/5 68/114/5
f 56/103/5 66/112/5 59/108/5
f 58/107/5 56/103/5 59/108/5
f 56/103/5 67/113/5 66/112/5
f 56/103/5 61/110/5 67/113/5
f 60/109/5 56/103/5 55/102/5
f 56/103/5 60/109/5 61/110/5
f 56/103/5 52/98/5 55/102/5
f 4/4/1 2/2/1 1/1/1
f 1/1/1 3/3/1 4/4/1
f 6/8/2 4/6/2 3/5/2
f 3/5/2 5/7/2 6/8/2
f 16/20/4 10/18/4 21/17/4
f 21/17/4 15/19/4 16/20/4
f 17/23/5 14/21/5 10/2/5
f 10/2/5 16/22/5 17/23/5
f 22/32/1 23/31/1 26/30/1
f 26/30/1 27/33/1 22/32/1
f 29/37/1 33/44/1 25/39/1
f 25/39/1 24/35/1 29/37/1
f 34/36/1 37/41/1 36/44/1
f 36/44/1 35/37/1 34/36/1
f 37/48/2 31/46/2 33/45/2
f 33/45/2 36/47/2 37/48/2
f 34/50/4 28/28/4 31/29/4
f 31/29/4 37/49/4 34/50/4
f 36/52/6 33/27/6 29/24/6
f 29/24/6 35/51/6 36/52/6
f 35/56/3 29/54/3 28/53/3
f 28/53/3 34/55/3 35/56/3
f 30/38/1 32/43/1 31/41/1
f 31/41/1 28/36/1 30/38/1
f 40/33/1 39/30/1 38/43/1
f 38/43/1 41/38/1 40/33/1
f 39/60/2 26/58/2 32/57/2
f 32/57/2 38/59/2 39/60/2
f 40/62/4 27/61/4 26/29/4
f 26/29/4 39/49/4 40/62/4
f 38/52/6 32/27/6 30/63/6
f 30/63/6 41/64/6 38/52/6
f 41/68/3 30/66/3 27/65/3
f 27/65/3 40/67/3 41/68/3
f 63/99/5 62/111/5 65/109/5
f 65/109/5 64/102/5 63/99/5
f 74/121/7 59/119/7 66/118/7
f 66/118/7 73/120/7 74/121/7
f 75/125/6 68/123/6 59/122/6
f 59/122/6 74/124/6 75/125/6
f 77/129/4 61/127/4 70/126/4
f 70/126/4 76/128/4 77/129/4
f 76/133/8 70/131/8 71/130/8
f 71/130/8 78/132/8 76/133/8
f 79/137/9 67/135/9 61/134/9
f 61/134/9 77/136/9 79/137/9
f 78/141/3 71/139/3 69/138/3
f 69/138/3 80/140/3 78/141/3
f 73/145/2 66/143/2 67/142/2
f 67/142/2 79/144/2 73/145/2
f 80/149/10 69/147/10 68/146/10
f 68/146/10 75/148/10 80/149/10
f 82/153/11 75/152/11 74/151/11
f 74/151/11 81/150/11 82/153/11
f 83/154/5 86/157/5 85/156/5
f 85/156/5 84/155/5 83/154/5
f 76/159/12 87/158/12 88/161/12
f 88/161/12 77/160/12 76/159/12
f 78/165/14 80/164/14 82/162/14
f 82/162/14 87/166/14 78/165/14
f 81/150/18 73/168/18 79/169/18
f 79/169/18 88/161/18 81/150/18
f 83/173/2 87/171/2 82/170/2
f 82/170/2 86/172/2 83/173/2
f 86/177/19 82/175/19 81/174/19
f 81/174/19 85/176/19 86/177/19
f 84/181/6 88/179/6 87/178/6
f 87/178/6 83/180/6 84/181/6
f 85/185/3 81/183/3 88/182/3
f 88/182/3 84/184/3 85/185/3
f 62/189/6 72/187/6 60/186/6
f 60/186/6 65/188/6 62/189/6
f 63/193/3 53/191/3 72/190/3
f 72/190/3 62/192/3 63/193/3
f 64/197/4 55/195/4 53/194/4
f 53/194/4 63/196/4 64/197/4
f 65/201/2 60/199/2 55/198/2
f 55/198/2 64/200/2 65/201/2

usemtl FBox-Body-Fans
f 7/71/6 2/70/6 4/69/6
f 20/72/6 7/71/6 4/69/6
f 43/77/6 11/74/6 12/73/6
f 42/75/6 43/77/6 12/73/6
f 44/78/6 42/75/6 12/73/6
f 20/72/6 44/78/6 12/73/6
f 20/72/6 6/76/6 44/78/6
f 4/69/6 6/76/6 20/72/6
f 10/81/4 13/80/4 46/87/4
f 10/81/4 46/87/4 45/79/4
f 10/81/4 45/79/4 47/88/4
f 21/83/4 10/81/4 47/88/4
f 5/82/4 21/83/4 47/88/4
f 3/86/4 1/85/4 8/84/4
f 3/86/4 8/84/4 21/83/4
f 5/82/4 3/86/4 21/83/4

usemtl FBox-Label
f 48/95/5 49/94/5 50/93/5 51/96/5

usemtl Metal_pattern_30
f 91/204/20 92/205/20 90/203/6 89/202/6
f 93/208/21 94/209/21 92/207/20 91/206/20
f 95/212/3 96/213/3 94/211/21 93/210/21
f 97/212/22 98/213/22 96/211/3 95/210/3
f 99/208/23 100/209/23 98/207/22 97/206/22
f 101/204/4 102/205/4 100/214/23 99/202/23
f 103/202/24 104/203/24 102/216/4 101/215/4
f 105/219/25 106/220/25 104/218/24 103/217/24
f 107/223/2 108/224/2 106/222/25 105/221/25
f 109/223/26 110/224/26 108/222/2 107/221/2
f 111/219/27 112/220/27 110/218/26 109/217/26
f 89/202/6 90/214/6 112/216/27 111/215/27

usemtl FBox_One_X_Console-Material_67
f 94/228/1 113/227/1 92/226/1
f 96/229/1 113/227/1 94/228/1
f 98/230/1 113/227/1 96/229/1
f 100/231/1 113/227/1 98/230/1
f 92/226/1 113/227/1 90/225/1
f 102/232/1 113/227/1 100/231/1
f 90/225/1 113/227/1 112/237/1
f 104/233/1 113/227/1 102/232/1
f 112/237/1 113/227/1 110/236/1
f 108/235/1 113/227/1 106/234/1
f 106/234/1 113/227/1 104/233/1
f 110/236/1 113/227/1 108/235/1

