# ProBuilder 4.3.1
# https://unity3d.com/unity/features/worldbuilding/probuilder
# 2020/7/25 0:31:18

mtllib ./LargeOfficeV3-Fan.mtl
o LargeOfficeV3-Fan

g Fan
v -0.02662373 -0.75 0
v -0.02662373 -0.75 0.46875
v -0.02662373 -0.75 -0.46875
v -0.02662373 0 0
v -0.02662373 0 -0.46875
v -0.02662373 0.75 -0.46875
v -0.02662373 0.75 0
v -0.02662373 0 0.46875
v -0.02662373 0.75 0.46875
v 0.02662373 0 -0.46875
v 0.02662373 0.75 -0.46875
v 0.02662373 0.75 0
v 0.02662373 0.75 0.46875
v 0.02662373 0 0.46875
v 0.02662373 -0.75 0.46875
v 0.02662373 -0.75 0
v 0.02662373 -0.75 -0.46875

vt -0.5 -0.66875
vt -0.3359375 -0.66875
vt -0.6640625 -0.66875
vt -0.5 -0.5
vt -0.6640625 -0.5
vt -0.6640625 -0.33125
vt -0.5 -0.33125
vt -0.3359375 -0.5
vt -0.3359375 -0.33125
vt -0.009318304 2.540625
vt -0.009318304 2.709375
vt 0.009318304 2.540625
vt 0.009318304 2.709375
vt -0.009318304 1.962891
vt -0.009318304 2.068359
vt 0.009318304 1.962891
vt 0.009318304 2.068359
vt -0.009318304 2.431641
vt -0.009318304 2.537109
vt 0.009318304 2.431641
vt 0.009318304 2.537109
vt 0.009318304 1.959375
vt 0.009318304 1.790625
vt -0.009318304 1.959375
vt -0.009318304 1.790625

vn -1 0 0
vn 0 0 -1
vn 0 1 0
vn 0 0 1
vn 0 -1 0

usemtl Metal_pattern_01
f 6/6/1 5/5/1 4/4/1
f 6/6/1 4/4/1 7/7/1
f 7/7/1 4/4/1 8/8/1
f 7/7/1 8/8/1 9/9/1
f 4/4/1 1/1/1 2/2/1
f 4/4/1 2/2/1 8/8/1
f 5/5/1 3/3/1 1/1/1
f 5/5/1 1/1/1 4/4/1
f 6/13/2 11/11/2 10/10/2
f 10/10/2 5/12/2 6/13/2
f 7/17/3 12/15/3 11/14/3
f 11/14/3 6/16/3 7/17/3
f 8/10/4 14/12/4 13/13/4
f 13/13/4 9/11/4 8/10/4
f 9/21/3 13/19/3 12/18/3
f 12/18/3 7/20/3 9/21/3
f 1/18/5 16/20/5 15/21/5
f 15/21/5 2/19/5 1/18/5
f 2/25/4 15/23/4 14/22/4
f 14/22/4 8/24/4 2/25/4
f 3/14/5 17/16/5 16/17/5
f 16/17/5 1/15/5 3/14/5
f 5/22/2 10/24/2 17/25/2
f 17/25/2 3/23/2 5/22/2

