# ProBuilder 4.4.0
# https://unity3d.com/unity/features/worldbuilding/probuilder
# 2020/12/29 23:07:31

mtllib ./Tunnel3.mtl
o Tunnel3

g Tunnel3
v -0.5999999 0.04499996 5.849999
v -0.5999999 0.04499996 4.849999
v -0.5999999 7.045 5.849999
v -0.5999999 7.045 4.849999
v 0.4000001 0.04499996 4.849999
v 0.4000001 7.045 4.849999
v 0.4000001 0.04499996 5.849999
v 0.4000001 7.045 5.849999
v -7.15 -1.205 -2.400001
v -7.649999 -1.205 -2.400001
v -7.15 5.795 -2.400001
v -7.649999 5.795 -2.400001
v -7.15 -1.205 -2.900001
v -7.15 5.795 -2.900001
v 7.65 -1.205 -2.400001
v 7.15 -1.205 -2.400001
v 7.65 5.795 -2.400001
v 7.15 5.795 -2.400001
v 7.15 -1.205 -2.900001
v 7.15 5.795 -2.900001
v 7.65 5.995 -2.25
v -7.65 5.995 -2.25
v 7.65 5.995 2.25
v -7.65 5.995 2.25
v -3.45 0.04499996 -5.400001
v -4.45 0.04499996 -5.400001
v -3.45 7.045 -5.400001
v -4.45 7.045 -5.400001
v -4.45 0.04499996 -6.400001
v -4.45 7.045 -6.400001
v -3.45 0.04499996 -6.400001
v -3.45 7.045 -6.400001
v 0.4000001 0.04499996 -5.400001
v -0.5999999 0.04499996 -5.400001
v 0.4000001 7.045 -5.400001
v -0.5999999 7.045 -5.400001
v -0.5999999 0.04499996 -6.400001
v -0.5999999 7.045 -6.400001
v 0.4000001 0.04499996 -6.400001
v 0.4000001 7.045 -6.400001
v 2.65 0.04499996 5.849999
v 2.65 0.04499996 4.849999
v 2.65 7.045 5.849999
v 2.65 7.045 4.849999
v 3.65 0.04499996 4.849999
v 3.65 7.045 4.849999
v 3.65 0.04499996 5.849999
v 3.65 7.045 5.849999
v -4.45 0.04499996 5.849999
v -4.45 0.04499996 4.849999
v -4.45 7.045 5.849999
v -4.45 7.045 4.849999
v -3.45 0.04499996 4.849999
v -3.45 7.045 4.849999
v -3.45 0.04499996 5.849999
v -3.45 7.045 5.849999
v -7.65 5.645 1.849999
v 7.65 5.645 1.849999
v -7.65 6.145 1.849999
v 7.65 6.145 1.849999
v 7.65 5.645 2.349999
v -7.65 5.645 2.349999
v -7.649999 -1.205 2.3
v -7.15 -1.205 2.3
v -7.649999 5.795 2.3
v -7.15 5.795 2.3
v -7.15 -1.205 2.8
v -7.15 5.795 2.8
v -7.649999 5.795 2.8
v 7.15 -1.205 2.8
v 7.15 -1.205 2.3
v 7.15 5.795 2.8
v 7.15 5.795 2.3
v 7.65 -1.205 2.3
v 7.65 5.795 2.3
v 7.65 5.795 2.8
v 3.15 -1.205 2.8
v 3.15 -1.205 2.3
v 3.15 5.795 2.8
v 3.15 5.795 2.3
v 3.65 -1.205 2.3
v 3.65 5.795 2.3
v 3.65 -1.205 2.8
v 3.65 5.795 2.8
v -3.95 -1.205 2.8
v -3.95 -1.205 2.3
v -3.95 5.795 2.8
v -3.95 5.795 2.3
v -3.45 -1.205 2.3
v -3.45 5.795 2.3
v -3.45 -1.205 2.8
v -3.45 5.795 2.8
v 7.65 0.1949999 2.55
v 0 0.1949999 2.55
v 7.65 2.945 2.55
v 0 2.945 2.55
v -7.65 0.1949999 2.55
v -7.65 2.945 2.55
v 7.65 5.695 2.55
v 0 5.695 2.55
v -7.65 5.695 2.55
v -3.45 -1.205 -2.400001
v -3.95 -1.205 -2.400001
v -3.45 5.795 -2.400001
v -3.95 5.795 -2.400001
v -3.95 -1.205 -2.900001
v -3.95 5.795 -2.900001
v -3.45 -1.205 -2.900001
v -3.45 5.795 -2.900001
v -7.65 0.145 2.599999
v -7.65 0.145 2.099999
v -7.65 0.645 2.599999
v -7.65 0.645 2.099999
v 7.65 0.145 2.099999
v 7.65 0.645 2.099999
v 7.65 0.645 2.599999
v 7.65 0.145 -2.150001
v -7.65 0.145 -2.150001
v 7.65 0.645 -2.150001
v -7.65 0.645 -2.150001
v -7.65 0.145 -2.650001
v -7.65 0.645 -2.650001
v 7.65 0.645 -2.650001
v 7.65 5.645 -2.150001
v -7.65 5.645 -2.150001
v 7.65 6.145 -2.150001
v -7.65 6.145 -2.150001
v 7.65 5.645 -2.650001
v -7.65 5.645 -2.650001
v 7.65 0.25 2.25
v -7.65 0.25 2.25
v 7.65 0.25 -2.25
v -7.65 0.25 -2.25
v 1.05 0.6949999 -2.6
v 0.5500001 0.6949999 -2.6
v -1.2 0.6949999 -2.6
v -1.7 0.6949999 -2.6
v 1.05 3.195 -2.6
v 1.05 3.695 -2.6
v -1.2 3.195 -2.6
v -1.7 3.195 -2.6
v -1.2 3.695 -2.6
v -1.7 3.695 -2.6
v 0.5500001 3.195 -2.6
v 0.5500001 3.695 -2.6
v -1.2 3.195 -2.85
v 0.5500001 3.195 -2.85
v -1.2 0.6949999 -2.85
v 0.5500001 0.6949999 -2.85
v 1.05 3.695 -2.85
v 0.5500001 3.695 -2.85
v -1.2 3.695 -2.85
v -1.7 3.695 -2.85
v -1.7 3.195 -2.85
v -1.7 0.6949999 -2.85
v 1.05 0.6949999 -2.85
v 1.05 3.195 -2.85
v 3.65 -1.205 -2.400001
v 3.15 -1.205 -2.400001
v 3.65 5.795 -2.400001
v 3.15 5.795 -2.400001
v 3.15 -1.205 -2.900001
v 3.15 5.795 -2.900001
v 3.65 -1.205 -2.900001
v 3.65 5.795 -2.900001
v 7.65 0.1949999 -2.7
v 0 0.1949999 -2.7
v 7.65 2.945 -2.7
v 0 2.945 -2.7
v -7.65 0.1949999 -2.7
v -7.65 2.945 -2.7
v 7.65 5.695 -2.7
v 0 5.695 -2.7
v -7.65 5.695 -2.7
v 1.05 0.6949999 2.7
v 0.5500001 0.6949999 2.7
v 1.05 3.195 2.7
v 0.5500001 3.195 2.7
v -1.2 0.6949999 2.7
v -1.7 0.6949999 2.7
v -1.2 3.195 2.7
v -1.7 3.195 2.7
v 1.05 3.695 2.7
v 0.5500001 3.695 2.7
v -1.2 3.695 2.7
v -1.7 3.695 2.7
v 0.5500001 0.6949999 2.45
v 1.05 0.6949999 2.45
v 0.5500001 3.195 2.45
v 1.05 3.195 2.45
v -1.7 0.6949999 2.45
v -1.2 0.6949999 2.45
v -1.7 3.195 2.45
v -1.2 3.195 2.45
v 0.5500001 3.695 2.45
v 1.05 3.695 2.45
v -1.7 3.695 2.45
v -1.2 3.695 2.45
v 1.35 0.6949999 -2.400001
v 0.75 0.6949999 -2.400001
v 1.35 3.695 -2.400001
v 0.75 3.695 -2.400001
v -1.35 0.6949999 -2.400001
v -1.95 0.6949999 -2.400001
v -1.35 3.695 -2.400001
v -1.95 3.695 -2.400001
v 1.35 4.295 -2.400001
v 0.75 4.295 -2.400001
v -1.35 4.295 -2.400001
v -1.95 4.295 -2.400001
v -1.35 3.695 -2.900001
v 0.75 3.695 -2.900001
v -1.35 0.6949999 -2.900001
v 0.75 0.6949999 -2.900001
v 1.35 4.295 -2.900001
v 0.75 4.295 -2.900001
v -1.35 4.295 -2.900001
v -1.95 4.295 -2.900001
v -1.95 3.695 -2.900001
v -1.95 0.6949999 -2.900001
v 1.35 0.6949999 -2.900001
v 1.35 3.695 -2.900001
v -7.675 0.2449999 0.8999996
v -7.675001 0.2449999 2.55
v -7.675 2.945 0.8999996
v -7.675001 2.945 2.55
v -7.675 0.2449999 -2.450001
v -7.675 0.2449999 -0.8000002
v -7.675 2.945 -2.450001
v -7.675 2.945 -0.8000002
v -7.675 6.295 0.8999996
v -7.675001 6.295 2.55
v -7.675 6.295 -2.450001
v -7.675 6.295 -0.8000002
v -7.725 2.945 -0.8000002
v -7.725 2.945 0.8999996
v -7.725 0.2449999 -0.8000002
v -7.725 0.2449999 0.8999996
v 7.575 0.2449999 2.55
v 7.575 0.2449999 0.8999996
v 7.575 2.945 2.55
v 7.575 2.945 0.8999996
v 7.575 0.2449999 -0.8000002
v 7.575001 0.2449999 -2.450001
v 7.575 2.945 -0.8000002
v 7.575001 2.945 -2.450001
v 7.575 6.295 2.55
v 7.575 6.295 0.8999996
v 7.575 6.295 -0.8000002
v 7.575001 6.295 -2.450001
v 7.625 2.945 -0.8000002
v 7.625 2.945 0.8999996
v 7.625 0.2449999 -0.8000002
v 7.625 0.2449999 0.8999996
v 1.35 0.6949999 2.7
v 0.75 0.6949999 2.7
v 1.35 3.695 2.7
v 0.75 3.695 2.7
v -1.35 0.6949999 2.7
v -1.95 0.6949999 2.7
v -1.35 3.695 2.7
v -1.95 3.695 2.7
v 1.35 4.295 2.7
v 0.75 4.295 2.7
v -1.35 4.295 2.7
v -1.95 4.295 2.7
v 0.75 0.6949999 2.2
v 1.35 0.6949999 2.2
v 0.75 3.695 2.2
v 1.35 3.695 2.2
v -1.95 0.6949999 2.2
v -1.35 0.6949999 2.2
v 1.35 4.295 2.2
v -1.95 3.695 2.2
v -1.95 4.295 2.2
v -1.35 3.695 2.2
v -1.35 4.295 2.2
v 0.75 4.295 2.2
v 3.65 0.04499996 -5.400001
v 2.65 0.04499996 -5.400001
v 3.65 7.045 -5.400001
v 2.65 7.045 -5.400001
v 2.65 0.04499996 -6.400001
v 2.65 7.045 -6.400001
v 3.65 0.04499996 -6.400001
v 3.65 7.045 -6.400001

vt 2.675 -0.2049999
vt 2.425 -0.2049999
vt 2.675 6.795
vt 2.425 6.795
vt 0.04999995 -0.2049999
vt -0.2 -0.2049999
vt 0.04999995 6.795
vt -0.2 6.795
vt -2.675 -0.2049999
vt -2.925 -0.2049999
vt -2.675 6.795
vt -2.925 6.795
vt -3.605 -1.455
vt -3.855 -1.455
vt -3.605 5.545
vt -3.855 5.545
vt 1.42 -1.455
vt 1.17 -1.455
vt 1.42 5.545
vt 1.17 5.545
vt 3.765 -1.455
vt 3.515 -1.455
vt 3.765 5.545
vt 3.515 5.545
vt -1.23 -1.455
vt -1.48 -1.455
vt -1.23 5.545
vt -1.48 5.545
vt 7.65 -2.75
vt -7.65 -2.75
vt 7.65 1.75
vt -7.65 1.75
vt -0.04999995 -0.2049999
vt -0.3 -0.2049999
vt -0.04999995 6.795
vt -0.3 6.795
vt -0.2650002 1.82
vt -0.2649998 9.47
vt -0.01500016 1.82
vt -0.01499984 9.47
vt -0.2025002 -2.775
vt -0.2024998 4.875
vt -0.07750016 -2.775
vt -0.07749984 4.875
vt 3.76 -1.455
vt 3.51 -1.455
vt 3.76 5.545
vt 3.51 5.545
vt -1.26 -1.455
vt -1.51 -1.455
vt -1.26 5.545
vt -1.51 5.545
vt -0.1999998 2.925
vt 0.05000019 2.925
vt -0.1999998 2.425
vt 0.05000019 2.425
vt 1.51 -1.455
vt 1.26 -1.455
vt 1.51 5.545
vt 1.26 5.545
vt -3.515 -1.455
vt -3.765 -1.455
vt -3.515 5.545
vt -3.765 5.545
vt -0.2 2.925
vt 0.04999995 2.925
vt -0.2 2.425
vt 0.04999995 2.425
vt 1.47 -1.455
vt 1.22 -1.455
vt 1.47 5.545
vt 1.22 5.545
vt -1.505 -1.455
vt -1.755 -1.455
vt -1.505 5.545
vt -1.755 5.545
vt -1.26 -0.205
vt -1.51 -0.205
vt -1.26 6.795
vt -1.51 6.795
vt 1.51 -0.205
vt 1.26 -0.205
vt 1.51 6.795
vt 1.26 6.795
vt 2.005 -1.455
vt 1.755 -1.455
vt 2.005 5.545
vt 1.755 5.545
vt -1.25 -1.455
vt -1.5 -1.455
vt -1.25 5.545
vt -1.5 5.545
vt -0.2000003 -0.2050002
vt 7.45 -0.2050002
vt -0.2000003 2.545
vt 7.45 2.545
vt 7.45 -0.2050002
vt 15.1 -0.2050002
vt 7.45 2.545
vt 15.1 2.545
vt -0.2000003 5.295
vt 7.45 5.295
vt 7.45 5.295
vt 15.1 5.295
vt -2.005 -1.455
vt -2.005 5.545
vt 1.51 -1.455
vt 1.26 -1.455
vt 1.51 5.545
vt 1.26 5.545
vt 2.55 -0.205
vt 2.55 0.295
vt 2.8 -0.205
vt 2.8 0.295
vt -0.2650002 -3.68
vt -0.2649998 3.97
vt -0.01500016 -3.68
vt -0.01499984 3.97
vt -0.07749984 5
vt -0.07750016 -2.65
vt -0.2024998 5
vt -0.2025002 -2.65
vt -0.07749984 2.625
vt -0.07750016 -5.025001
vt -0.2024998 2.625
vt -0.2025002 -5.025001
vt -0.2000003 3.225
vt 15.1 3.225
vt -0.2000003 -1.275
vt 15.1 -1.275
vt 0.5250002 0.4449999
vt 0.2750001 0.4449999
vt -0.6000001 0.4449999
vt -0.8500001 0.4449999
vt 0.5250002 2.945
vt 0.5250002 3.445
vt -0.6000001 2.945
vt -0.8500001 2.945
vt -0.6000001 3.445
vt -0.8500001 3.445
vt 0.2750001 2.945
vt 0.2750001 3.445
vt -1.7375 2.925
vt -0.8625 2.925
vt -1.7375 2.425
vt -0.8625 2.425
vt -2.675 -0.2050002
vt -2.925 -0.2050002
vt -2.675 2.295
vt -2.925 2.295
vt 2.675 -0.2050002
vt 2.425 -0.2050002
vt 2.675 2.295
vt 2.425 2.295
vt 0.6125 2.925
vt 0.3625 2.925
vt 0.3625 2.425
vt 0.6125 2.425
vt 1.4875 2.425
vt 1.7375 2.425
vt 1.7375 2.925
vt 1.4875 2.925
vt 2.675 2.795
vt 2.425 2.795
vt -3.560294 -0.06382358
vt -2.686764 -0.2579414
vt -2.147549 2.16853
vt -2.039705 2.653823
vt -2.913235 2.847941
vt -3.021078 2.362647
vt 1.505 -1.455
vt 1.505 5.545
vt 0.2000003 -0.2050002
vt -7.45 -0.2050002
vt 0.2000003 2.545
vt -7.45 2.545
vt -7.45 -0.2050002
vt -15.1 -0.2050002
vt -7.45 2.545
vt -15.1 2.545
vt 0.2000003 5.295
vt -7.45 5.295
vt -7.45 5.295
vt -15.1 5.295
vt -0.04999995 -0.2050002
vt -0.3 -0.2050002
vt -0.04999995 2.295
vt -0.3 2.295
vt -2.3 -0.2050002
vt -2.55 -0.2050002
vt -2.3 2.295
vt -2.55 2.295
vt -0.04999995 2.795
vt -0.3 2.795
vt -2.3 2.795
vt -2.55 2.795
vt -0.8625 2.295
vt -1.7375 2.295
vt -0.8625 2.795
vt -1.7375 2.795
vt -0.275 0.4449999
vt -0.525 0.4449999
vt -0.275 2.945
vt -0.525 2.945
vt 0.8499999 0.4449999
vt 0.6 0.4449999
vt 0.8499999 2.945
vt 0.6 2.945
vt -0.275 3.445
vt -0.525 3.445
vt 0.8499999 3.445
vt 0.6 3.445
vt 0.5374997 0.745
vt 0.2874998 0.745
vt 0.5374997 3.245
vt 0.2874998 3.245
vt -0.5874999 0.745
vt -0.8374997 0.745
vt -0.5874999 3.245
vt -0.8374997 3.245
vt 0.5374997 3.745
vt 0.2874998 3.745
vt -0.5874999 3.745
vt -0.8374997 3.745
vt -3.027907 -0.2100461
vt -2.572092 -0.2100461
vt -2.572092 2.298364
vt -2.572092 2.800046
vt -3.027907 2.800046
vt -3.027907 2.298364
vt -0.2375007 1.6575
vt -0.6500008 1.6575
vt -0.2375007 3.0075
vt -0.6500008 3.0075
vt 0.5999994 1.6575
vt 0.1874993 1.6575
vt 0.5999994 3.0075
vt 0.1874993 3.0075
vt -0.2375007 4.6825
vt -0.6500008 4.6825
vt 0.5999994 4.6825
vt 0.1874993 4.6825
vt -0.01249981 2.9375
vt 0.4125004 2.9375
vt -0.01249981 2.9125
vt 0.4125004 2.9125
vt 0.2062502 -2.58
vt 0.1937504 -2.58
vt 0.2062502 -1.23
vt 0.1937504 -1.23
vt -0.1937504 -2.58
vt -0.2062502 -2.58
vt -0.1937504 -1.23
vt -0.2062502 -1.23
vt 0.6499995 1.6575
vt 0.2374994 1.6575
vt 0.6499995 3.0075
vt 0.2374994 3.0075
vt -0.1875006 1.6575
vt -0.6000007 1.6575
vt -0.1875006 3.0075
vt -0.6000007 3.0075
vt 0.6499995 4.6825
vt 0.2374994 4.6825
vt -0.1875006 4.6825
vt -0.6000007 4.6825
vt -0.01250005 2.9375
vt -0.01250005 2.9125
vt -0.2875 0.745
vt -0.5374999 0.745
vt -0.2875 3.245
vt -0.5374999 3.245
vt 0.8375001 0.745
vt 0.5875 0.745
vt -0.5374999 3.745
vt 0.8375001 3.245
vt 0.8375001 3.745
vt 0.5875 3.245
vt 0.5875 3.745
vt -0.2875 3.745

vn -1 0 0
vn 0 0 -1
vn 1 0 0
vn 0 0 1
vn 0 -1 0
vn 0 1 0

usemtl Metal_pattern_20-Lighter_1
f 139/156/6 150/157/6 151/158/6
f 142/162/6 153/160/6 143/161/6
f 142/162/6 152/159/6 153/160/6
f 145/155/6 152/159/6 142/162/6
f 145/155/6 151/158/6 152/159/6
f 139/156/6 151/158/6 145/155/6
f 154/154/1 155/152/1 137/151/1
f 154/154/1 137/151/1 141/153/1
f 153/164/1 154/154/1 141/153/1
f 153/164/1 141/153/1 143/163/1
f 139/169/3 138/170/3 150/168/3
f 138/170/3 157/167/3 150/168/3
f 138/170/3 134/165/3 157/167/3
f 134/165/3 156/166/3 157/167/3
f 183/156/6 196/157/6 195/158/6
f 185/162/6 197/160/6 186/161/6
f 185/162/6 198/159/6 197/160/6
f 184/155/6 198/159/6 185/162/6
f 184/155/6 195/158/6 198/159/6
f 183/156/6 195/158/6 184/155/6
f 193/154/1 191/152/1 180/151/1
f 193/154/1 180/151/1 182/153/1
f 197/164/1 193/154/1 182/153/1
f 197/164/1 182/153/1 186/163/1
f 183/169/3 177/170/3 196/168/3
f 177/170/3 190/167/3 196/168/3
f 177/170/3 175/165/3 190/167/3
f 175/165/3 188/166/3 190/167/3
f 207/156/6 215/157/6 216/158/6
f 209/162/6 218/160/6 210/161/6
f 209/162/6 217/159/6 218/160/6
f 208/155/6 217/159/6 209/162/6
f 208/155/6 216/158/6 217/159/6
f 207/156/6 216/158/6 208/155/6
f 219/154/1 220/152/1 204/151/1
f 219/154/1 204/151/1 206/153/1
f 218/164/1 219/154/1 206/153/1
f 218/164/1 206/153/1 210/163/1
f 207/229/3 201/230/3 215/228/3
f 201/230/3 222/227/3 215/228/3
f 201/230/3 199/225/3 222/227/3
f 199/225/3 221/226/3 222/227/3
f 263/156/6 273/157/6 278/158/6
f 265/162/6 275/160/6 266/161/6
f 265/162/6 277/159/6 275/160/6
f 264/155/6 277/159/6 265/162/6
f 264/155/6 278/158/6 277/159/6
f 263/156/6 278/158/6 264/155/6
f 274/154/1 271/152/1 260/151/1
f 274/154/1 260/151/1 262/153/1
f 275/164/1 274/154/1 262/153/1
f 275/164/1 262/153/1 266/163/1
f 263/229/3 257/230/3 273/228/3
f 257/230/3 270/227/3 273/228/3
f 257/230/3 255/225/3 270/227/3
f 255/225/3 268/226/3 270/227/3
f 142/139/4 141/138/4 140/137/4
f 142/139/4 143/140/4 141/138/4
f 145/142/4 140/137/4 144/141/4
f 145/142/4 142/139/4 140/137/4
f 139/136/4 144/141/4 138/135/4
f 139/136/4 145/142/4 144/141/4
f 138/135/4 135/132/4 134/131/4
f 138/135/4 144/141/4 135/132/4
f 140/137/4 137/134/4 136/133/4
f 140/137/4 141/138/4 137/134/4
f 269/271/2 268/270/2 267/269/2
f 269/271/2 270/272/2 268/270/2
f 277/279/2 269/271/2 276/278/2
f 277/279/2 278/280/2 269/271/2
f 278/280/2 270/272/2 269/271/2
f 278/280/2 273/275/2 270/272/2
f 275/277/2 276/278/2 274/276/2
f 275/277/2 277/279/2 276/278/2
f 274/276/2 272/274/2 271/273/2
f 274/276/2 276/278/2 272/274/2
f 4/4/1 2/2/1 1/1/1
f 1/1/1 3/3/1 4/4/1
f 6/8/2 5/6/2 2/5/2
f 2/5/2 4/7/2 6/8/2
f 8/12/3 7/10/3 5/9/3
f 5/9/3 6/11/3 8/12/3
f 12/16/4 10/14/4 9/13/4
f 9/13/4 11/15/4 12/16/4
f 11/20/3 9/18/3 13/17/3
f 13/17/3 14/19/3 11/20/3
f 18/24/4 16/22/4 15/21/4
f 15/21/4 17/23/4 18/24/4
f 20/28/1 19/26/1 16/25/1
f 16/25/1 18/27/1 20/28/1
f 28/36/4 26/34/4 25/33/4
f 25/33/4 27/35/4 28/36/4
f 30/4/1 29/2/1 26/1/1
f 26/1/1 28/3/1 30/4/1
f 27/12/3 25/10/3 31/9/3
f 31/9/3 32/11/3 27/12/3
f 36/36/4 34/34/4 33/33/4
f 33/33/4 35/35/4 36/36/4
f 38/4/1 37/2/1 34/1/1
f 34/1/1 36/3/1 38/4/1
f 35/12/3 33/10/3 39/9/3
f 39/9/3 40/11/3 35/12/3
f 44/4/1 42/2/1 41/1/1
f 41/1/1 43/3/1 44/4/1
f 46/8/2 45/6/2 42/5/2
f 42/5/2 44/7/2 46/8/2
f 48/12/3 47/10/3 45/9/3
f 45/9/3 46/11/3 48/12/3
f 52/4/1 50/2/1 49/1/1
f 49/1/1 51/3/1 52/4/1
f 54/8/2 53/6/2 50/5/2
f 50/5/2 52/7/2 54/8/2
f 56/12/3 55/10/3 53/9/3
f 53/9/3 54/11/3 56/12/3
f 60/40/2 58/38/2 57/37/2
f 57/37/2 59/39/2 60/40/2
f 62/44/5 57/42/5 58/41/5
f 58/41/5 61/43/5 62/44/5
f 66/48/2 64/46/2 63/45/2
f 63/45/2 65/47/2 66/48/2
f 68/52/3 67/50/3 64/49/3
f 64/49/3 66/51/3 68/52/3
f 65/56/6 69/54/6 68/53/6
f 68/53/6 66/55/6 65/56/6
f 73/60/1 71/58/1 70/57/1
f 70/57/1 72/59/1 73/60/1
f 75/64/2 74/62/2 71/61/2
f 71/61/2 73/63/2 75/64/2
f 73/68/6 72/66/6 76/65/6
f 76/65/6 75/67/6 73/68/6
f 80/72/1 78/70/1 77/69/1
f 77/69/1 79/71/1 80/72/1
f 82/76/2 81/74/2 78/73/2
f 78/73/2 80/75/2 82/76/2
f 84/80/3 83/78/3 81/77/3
f 81/77/3 82/79/3 84/80/3
f 80/68/6 79/66/6 84/65/6
f 84/65/6 82/67/6 80/68/6
f 88/84/1 86/82/1 85/81/1
f 85/81/1 87/83/1 88/84/1
f 90/88/2 89/86/2 86/85/2
f 86/85/2 88/87/2 90/88/2
f 92/92/3 91/90/3 89/89/3
f 89/89/3 90/91/3 92/92/3
f 88/68/6 87/66/6 92/65/6
f 92/65/6 90/67/6 88/68/6
f 105/106/4 103/105/4 102/74/4
f 102/74/4 104/76/4 105/106/4
f 107/28/1 106/26/1 103/25/1
f 103/25/1 105/27/1 107/28/1
f 104/110/3 102/108/3 108/107/3
f 108/107/3 109/109/3 104/110/3
f 113/114/1 111/112/1 110/111/1
f 110/111/1 112/113/1 113/114/1
f 115/118/2 114/116/2 111/115/2
f 111/115/2 113/117/2 115/118/2
f 113/122/6 112/120/6 116/119/6
f 116/119/6 115/121/6 113/122/6
f 120/118/4 118/116/4 117/115/4
f 117/115/4 119/117/4 120/118/4
f 122/114/1 121/112/1 118/111/1
f 118/111/1 120/113/1 122/114/1
f 122/126/6 120/124/6 119/123/6
f 119/123/6 123/125/6 122/126/6
f 127/40/4 125/38/4 124/37/4
f 124/37/4 126/39/4 127/40/4
f 125/123/5 129/125/5 128/126/5
f 128/126/5 124/124/5 125/123/5
f 147/146/5 144/144/5 140/143/5
f 140/143/5 146/145/5 147/146/5
f 140/150/3 136/148/3 148/147/3
f 148/147/3 146/149/3 140/150/3
f 147/154/1 149/152/1 135/151/1
f 135/151/1 144/153/1 147/154/1
f 161/172/4 159/171/4 158/86/4
f 158/86/4 160/88/4 161/172/4
f 163/28/1 162/26/1 159/25/1
f 159/25/1 161/27/1 163/28/1
f 160/110/3 158/108/3 164/107/3
f 164/107/3 165/109/3 160/110/3
f 178/188/4 176/186/4 175/185/4
f 175/185/4 177/187/4 178/188/4
f 182/192/4 180/190/4 179/189/4
f 179/189/4 181/191/4 182/192/4
f 184/194/4 178/188/4 177/187/4
f 177/187/4 183/193/4 184/194/4
f 186/196/4 182/192/4 181/191/4
f 181/191/4 185/195/4 186/196/4
f 185/200/4 181/198/4 178/197/4
f 178/197/4 184/199/4 185/200/4
f 190/204/2 188/202/2 187/201/2
f 187/201/2 189/203/2 190/204/2
f 194/208/2 192/206/2 191/205/2
f 191/205/2 193/207/2 194/208/2
f 196/210/2 190/204/2 189/203/2
f 189/203/2 195/209/2 196/210/2
f 198/212/2 194/208/2 193/207/2
f 193/207/2 197/211/2 198/212/2
f 195/209/2 189/203/2 194/208/2
f 194/208/2 198/212/2 195/209/2
f 189/146/5 178/144/5 181/143/5
f 181/143/5 194/145/5 189/146/5
f 181/150/3 179/148/3 192/147/3
f 192/147/3 194/149/3 181/150/3
f 189/154/1 187/152/1 176/151/1
f 176/151/1 178/153/1 189/154/1
f 202/216/4 200/214/4 199/213/4
f 199/213/4 201/215/4 202/216/4
f 206/220/4 204/218/4 203/217/4
f 203/217/4 205/219/4 206/220/4
f 208/222/4 202/216/4 201/215/4
f 201/215/4 207/221/4 208/222/4
f 210/224/4 206/220/4 205/219/4
f 205/219/4 209/223/4 210/224/4
f 209/223/4 205/219/4 202/216/4
f 202/216/4 208/222/4 209/223/4
f 212/146/5 202/144/5 205/143/5
f 205/143/5 211/145/5 212/146/5
f 205/150/3 203/148/3 213/147/3
f 213/147/3 211/149/3 205/150/3
f 212/154/1 214/152/1 200/151/1
f 200/151/1 202/153/1 212/154/1
f 226/234/3 224/232/3 223/231/3
f 223/231/3 225/233/3 226/234/3
f 230/238/3 228/236/3 227/235/3
f 227/235/3 229/237/3 230/238/3
f 232/240/3 226/234/3 225/233/3
f 225/233/3 231/239/3 232/240/3
f 234/242/3 230/238/3 229/237/3
f 229/237/3 233/241/3 234/242/3
f 231/239/3 225/233/3 230/238/3
f 230/238/3 234/242/3 231/239/3
f 225/246/5 236/244/5 235/243/5
f 235/243/5 230/245/5 225/246/5
f 235/250/4 237/248/4 228/247/4
f 228/247/4 230/249/4 235/250/4
f 225/254/2 223/252/2 238/251/2
f 238/251/2 236/253/2 225/254/2
f 242/258/1 240/256/1 239/255/1
f 239/255/1 241/257/1 242/258/1
f 246/262/1 244/260/1 243/259/1
f 243/259/1 245/261/1 246/262/1
f 248/264/1 242/258/1 241/257/1
f 241/257/1 247/263/1 248/264/1
f 250/266/1 246/262/1 245/261/1
f 245/261/1 249/265/1 250/266/1
f 249/265/1 245/261/1 242/258/1
f 242/258/1 248/264/1 249/265/1
f 252/246/5 242/244/5 245/267/5
f 245/267/5 251/268/5 252/246/5
f 245/250/4 243/248/4 253/247/4
f 253/247/4 251/249/4 245/250/4
f 252/254/2 254/252/2 240/251/2
f 240/251/2 242/253/2 252/254/2
f 258/188/4 256/186/4 255/185/4
f 255/185/4 257/187/4 258/188/4
f 262/192/4 260/190/4 259/189/4
f 259/189/4 261/191/4 262/192/4
f 264/194/4 258/188/4 257/187/4
f 257/187/4 263/193/4 264/194/4
f 266/196/4 262/192/4 261/191/4
f 261/191/4 265/195/4 266/196/4
f 265/200/4 261/198/4 258/197/4
f 258/197/4 264/199/4 265/200/4
f 269/146/5 258/144/5 261/143/5
f 261/143/5 276/145/5 269/146/5
f 261/150/3 259/148/3 272/147/3
f 272/147/3 276/149/3 261/150/3
f 269/154/1 267/152/1 256/151/1
f 256/151/1 258/153/1 269/154/1
f 282/36/4 280/34/4 279/33/4
f 279/33/4 281/35/4 282/36/4
f 284/4/1 283/2/1 280/1/1
f 280/1/1 282/3/1 284/4/1
f 281/12/3 279/10/3 285/9/3
f 285/9/3 286/11/3 281/12/3

usemtl Metal_pattern_24-Smaller_1
f 23/31/5 24/32/5 22/30/5 21/29/5

usemtl Metal_pattern_06_-_para_1
f 93/93/2 94/94/2 96/96/2 95/95/2
f 94/97/2 97/98/2 98/100/2 96/99/2
f 95/95/2 96/96/2 100/102/2 99/101/2
f 96/99/2 98/100/2 101/104/2 100/103/2
f 168/175/4 169/176/4 167/174/4 166/173/4
f 169/179/4 171/180/4 170/178/4 167/177/4
f 172/181/4 173/182/4 169/176/4 168/175/4
f 173/183/4 174/184/4 171/180/4 169/179/4

usemtl Metal_pattern_01_-_para_1
f 132/129/6 133/130/6 131/128/6 130/127/6

