# ProBuilder 5.0.3
# https://unity3d.com/unity/features/worldbuilding/probuilder
# 2021/7/19 21:05:03

mtllib ./Box_Body.mtl
o Box_Body

g Box_Body
v 0.2443 0.158 0.1457849
v 0.2443 0.258 0.1457849
v 0.2468 0.158 0.1501151
v 0.2468 0.258 0.1501151
v 0.2518 0.158 0.1501151
v 0.2518 0.258 0.1501151
v 0.2543 0.158 0.1457849
v 0.2543 0.258 0.1457849
v 0.2518 0.158 0.1414548
v 0.2518 0.258 0.1414548
v 0.2468 0.158 0.1414548
v 0.2468 0.258 0.1414548
v 0.2493 0.158 0.1457849
v 0.2493 0.258 0.1457849
v 0.25 -0.35 -0.1401151
v -0.25 -0.35 -0.1401151
v 0.25 0.35 -0.1401151
v -0.25 0.35 -0.1401151
v -0.26 -0.36 -0.1401151
v -0.26 -0.36 -0.1501151
v -0.26 0.36 -0.1401151
v -0.26 0.36 -0.1501151
v -0.25 -0.35 -0.1501151
v 0.25 -0.35 -0.1501151
v -0.25 0.35 -0.1501151
v 0.25 0.35 -0.1501151
v 0.26 -0.36 -0.1501151
v 0.26 -0.36 -0.1401151
v 0.26 0.36 -0.1501151
v 0.26 0.36 -0.1401151
v -0.25 0.35 0.1398849
v -0.25 -0.35 0.1398849
v -0.26 0.36 0.1398849
v -0.26 -0.36 0.1398849
v 0.25 -0.35 0.1398849
v 0.25 0.35 0.1398849
v 0.26 -0.36 0.1398849
v 0.26 0.36 0.1398849
v 0.2443 -0.218 0.1457849
v 0.2443 -0.118 0.1457849
v 0.2468 -0.218 0.1501151
v 0.2468 -0.118 0.1501151
v 0.2518 -0.218 0.1501151
v 0.2518 -0.118 0.1501151
v 0.2543 -0.218 0.1457849
v 0.2543 -0.118 0.1457849
v 0.2518 -0.218 0.1414548
v 0.2518 -0.118 0.1414548
v 0.2468 -0.218 0.1414548
v 0.2468 -0.118 0.1414548
v 0.2493 -0.218 0.1457849
v 0.2493 -0.118 0.1457849

vt 0.2484034 0.158
vt 0.2484034 0.258
vt 0.2534034 0.158
vt 0.2534034 0.258
vt 0.2468 0.158
vt 0.2468 0.258
vt 0.2518 0.158
vt 0.2518 0.258
vt -0.004103616 0.158
vt -0.004103616 0.258
vt 0.0008963844 0.158
vt 0.0008963844 0.258
vt -0.2534034 0.158
vt -0.2534034 0.258
vt -0.2484034 0.158
vt -0.2484034 0.258
vt -0.2518 0.158
vt -0.2518 0.258
vt -0.2468 0.158
vt -0.2468 0.258
vt -0.000896394 0.158
vt -0.000896394 0.258
vt 0.004103606 0.158
vt 0.004103606 0.258
vt 0.2443 0.1457849
vt 0.2493 0.1457849
vt 0.2468 0.1501151
vt -0.2443 0.1457849
vt -0.2493 0.1457849
vt -0.2468 0.1501151
vt 0.2518 0.1501151
vt -0.2518 0.1501151
vt 0.2543 0.1457849
vt -0.2543 0.1457849
vt 0.2518 0.1414548
vt -0.2518 0.1414548
vt 0.2468 0.1414548
vt -0.2468 0.1414548
vt 0.4993 -0.142
vt -0.0006999969 -0.142
vt 0.4993 0.558
vt -0.0006999969 0.558
vt 0.1507851 -0.152
vt 0.1407851 -0.152
vt 0.1507851 0.568
vt 0.1407851 0.568
vt 0.0006999969 -0.142
vt -0.4993 -0.142
vt 0.0006999969 0.558
vt -0.4993 0.558
vt -0.1407851 -0.152
vt -0.1507851 -0.152
vt -0.1407851 0.568
vt -0.1507851 0.568
vt -0.5093 0.1507851
vt 0.01069999 0.1507851
vt -0.5093 0.1407851
vt 0.01069999 0.1407851
vt 0.5093 0.1407851
vt -0.01069999 0.1407851
vt 0.5093 0.1507851
vt -0.01069999 0.1507851
vt -0.01069999 0.568
vt -0.01069999 -0.152
vt -0.5093 0.568
vt -0.5093 -0.152
vt 0.5093 -0.152
vt 0.5093 0.568
vt 0.01069999 -0.152
vt 0.01069999 0.568
vt 0.0006999969 0.558
vt -0.4993 0.558
vt 0.01069999 0.568
vt -0.5093 0.568
vt 0.4993 0.558
vt -0.0006999969 0.558
vt 0.5093 0.568
vt -0.01069999 0.568
vt 0.4993 0.1507849
vt -0.0006999969 0.1507849
vt 0.4993 0.4307849
vt -0.0006999969 0.4307849
vt -0.4307849 0.568
vt -0.4307849 -0.152
vt 0.01069999 0.4307849
vt -0.5093 0.4307849
vt -0.1507849 0.558
vt -0.1507849 -0.142
vt -0.4307849 0.558
vt -0.4307849 -0.142
vt 0.4307849 -0.152
vt 0.4307849 0.568
vt 0.0006999969 0.1507849
vt -0.4993 0.1507849
vt 0.0006999969 0.4307849
vt -0.4993 0.4307849
vt 0.5093 0.4307849
vt -0.01069999 0.4307849
vt 0.1507849 -0.142
vt 0.1507849 0.558
vt 0.4307849 -0.142
vt 0.4307849 0.558
vt 0.2484034 0.158
vt 0.2484034 0.258
vt 0.2534034 0.158
vt 0.2534034 0.258
vt 0.2468002 0.158
vt 0.2468002 0.258
vt 0.2518002 0.158
vt 0.2518002 0.258
vt -0.004103611 0.158
vt -0.004103611 0.258
vt 0.0008963889 0.158
vt 0.0008963889 0.258
vt -0.2534034 0.158
vt -0.2534034 0.258
vt -0.2484034 0.158
vt -0.2484034 0.258
vt -0.2518002 0.158
vt -0.2518002 0.258
vt -0.2468002 0.158
vt -0.2468002 0.258
vt -0.0008963891 0.158
vt -0.0008963891 0.258
vt 0.004103613 0.158
vt 0.004103613 0.258

vn -1 0 0
vn -0.5000002 0 0.8660253
vn 0.5000002 0 0.8660253
vn 1 0 0
vn 0.5000002 0 -0.8660253
vn -0.5000002 0 -0.8660253
vn 0 -1 0
vn 0 1 0
vn 0 0 1
vn 0 0 -1

usemtl diffuse
f 1/25/7 13/26/7 3/27/7
f 3/27/7 13/26/7 5/31/7
f 5/31/7 13/26/7 7/33/7
f 7/33/7 13/26/7 9/35/7
f 9/35/7 13/26/7 11/37/7
f 11/37/7 13/26/7 1/25/7
f 4/30/8 14/29/8 2/28/8
f 6/32/8 14/29/8 4/30/8
f 8/34/8 14/29/8 6/32/8
f 10/36/8 14/29/8 8/34/8
f 12/38/8 14/29/8 10/36/8
f 2/28/8 14/29/8 12/38/8
f 39/25/7 51/26/7 41/27/7
f 41/27/7 51/26/7 43/31/7
f 43/31/7 51/26/7 45/33/7
f 45/33/7 51/26/7 47/35/7
f 47/35/7 51/26/7 49/37/7
f 49/37/7 51/26/7 39/25/7
f 42/30/8 52/29/8 40/28/8
f 44/32/8 52/29/8 42/30/8
f 46/34/8 52/29/8 44/32/8
f 48/36/8 52/29/8 46/34/8
f 50/38/8 52/29/8 48/36/8
f 40/28/8 52/29/8 50/38/8
f 4/4/2 2/2/1 1/1/1
f 1/1/1 3/3/2 4/4/2
f 6/8/3 4/6/2 3/5/2
f 3/5/2 5/7/3 6/8/3
f 8/12/4 6/10/3 5/9/3
f 5/9/3 7/11/4 8/12/4
f 10/16/5 8/14/4 7/13/4
f 7/13/4 9/15/5 10/16/5
f 12/20/6 10/18/5 9/17/5
f 9/17/5 11/19/6 12/20/6
f 2/24/1 12/22/6 11/21/6
f 11/21/6 1/23/1 2/24/1
f 18/42/9 16/40/9 15/39/9
f 15/39/9 17/41/9 18/42/9
f 22/46/1 20/44/1 19/43/1
f 19/43/1 21/45/1 22/46/1
f 26/50/10 24/48/10 23/47/10
f 23/47/10 25/49/10 26/50/10
f 30/54/4 28/52/4 27/51/4
f 27/51/4 29/53/4 30/54/4
f 22/58/8 21/56/8 30/55/8
f 30/55/8 29/57/8 22/58/8
f 19/62/7 20/60/7 27/59/7
f 27/59/7 28/61/7 19/62/7
f 34/64/9 32/40/9 31/42/9
f 31/42/9 33/63/9 34/64/9
f 27/66/10 24/48/10 26/50/10
f 26/50/10 29/65/10 27/66/10
f 38/68/9 36/41/9 35/39/9
f 35/39/9 37/67/9 38/68/9
f 20/69/10 23/47/10 24/48/10
f 24/48/10 27/66/10 20/69/10
f 37/67/9 35/39/9 32/40/9
f 32/40/9 34/64/9 37/67/9
f 22/70/10 25/49/10 23/47/10
f 23/47/10 20/69/10 22/70/10
f 29/74/10 26/72/10 25/71/10
f 25/71/10 22/73/10 29/74/10
f 33/78/9 31/76/9 36/75/9
f 36/75/9 38/77/9 33/78/9
f 31/82/7 18/80/7 17/79/7
f 17/79/7 36/81/7 31/82/7
f 37/84/4 28/52/4 30/54/4
f 30/54/4 38/83/4 37/84/4
f 38/86/8 30/55/8 21/56/8
f 21/56/8 33/85/8 38/86/8
f 32/90/4 16/88/4 18/87/4
f 18/87/4 31/89/4 32/90/4
f 33/92/1 21/45/1 19/43/1
f 19/43/1 34/91/1 33/92/1
f 35/96/8 15/94/8 16/93/8
f 16/93/8 32/95/8 35/96/8
f 34/98/7 19/62/7 28/61/7
f 28/61/7 37/97/7 34/98/7
f 36/102/1 17/100/1 15/99/1
f 15/99/1 35/101/1 36/102/1
f 42/106/2 40/104/1 39/103/1
f 39/103/1 41/105/2 42/106/2
f 44/110/3 42/108/2 41/107/2
f 41/107/2 43/109/3 44/110/3
f 46/114/4 44/112/3 43/111/3
f 43/111/3 45/113/4 46/114/4
f 48/118/5 46/116/4 45/115/4
f 45/115/4 47/117/5 48/118/5
f 50/122/6 48/120/5 47/119/5
f 47/119/5 49/121/6 50/122/6
f 40/126/1 50/124/6 49/123/6
f 49/123/6 39/125/1 40/126/1

