# ProBuilder 5.0.3
# https://unity3d.com/unity/features/worldbuilding/probuilder
# 2021/7/20 23:55:41

mtllib ./Box_Lid.mtl
o Box_Lid

g Box_Lid
v 0 -0.35 0.005
v -0.5 -0.35 0.005
v 0 0.35 0.005
v -0.5 0.35 0.005
v -0.5 -0.35 -0.005
v -0.5 0.35 -0.005
v 0 -0.35 -0.005
v 0 0.35 -0.005

vt 0.5 0.15
vt 0 0.15
vt 0.5 0.85
vt 0 0.85
vt 0.005 -0.35
vt -0.005 -0.35
vt 0.005 0.35
vt -0.005 0.35
vt 5.5 0.15
vt 5 0.15
vt 5.5 0.85
vt 5 0.85
vt 0 0.005
vt 0.5 0.005
vt 0 -0.005
vt 0.5 -0.005
vt -0.5 -0.005
vt -0.5 0.005

vn 0 0 1
vn -1 0 0
vn 0 0 -1
vn 1 0 0
vn 0 1 0
vn 0 -1 0

usemtl diffuse_2
f 3/3/1 4/4/1 2/2/1 1/1/1
f 4/7/2 6/8/2 5/6/2 2/5/2
f 6/11/3 8/12/3 7/10/3 5/9/3
f 8/7/4 3/8/4 1/6/4 7/5/4
f 8/15/5 6/16/5 4/14/5 3/13/5
f 1/13/6 2/18/6 5/17/6 7/15/6

