# ProBuilder 4.4.0
# https://unity3d.com/unity/features/worldbuilding/probuilder
# 2021/1/6 19:53:23

mtllib ./BasePlatform.mtl
o BasePlatform

g BasePlatform
v 2.326777 -0.125 2.326777
v -2.326777 -0.125 2.326777
v 2.326777 0.125 2.326777
v -2.326777 0.125 2.326777
v -2.326777 -0.125 -2.326777
v -2.326777 0.125 -2.326777
v 2.326777 -0.125 -2.326777
v 2.326777 0.125 -2.326777
v 2.15 0.125 2.15
v -2.15 0.125 2.15
v 2.15 0.125 -2.15
v -2.15 0.125 -2.15
v 2.15 -0.125 -2.15
v -2.15 -0.125 -2.15
v 2.15 -0.125 2.15
v -2.15 -0.125 2.15
v 2.15 0.15 -2.15
v -2.15 0.15 -2.15
v 2.326777 0.15 -2.326777
v -2.326777 0.15 -2.326777
v 2.15 0.15 2.15
v 2.326777 0.15 2.326777
v -2.15 0.15 2.15
v -2.326777 0.15 2.326777
v 0 0.15 2.15
v -1.075 0.15 2.15
v 1.075 0.15 2.15

vt 2.326777 -0.125
vt -2.326777 -0.125
vt 2.326777 0.125
vt -2.326777 0.125
vt -2.15 2.15
vt 2.15 2.15
vt -2.15 -2.15
vt 2.15 -2.15
vt 2.326777 -2.326777
vt 2.326777 2.326777
vt -2.326777 -2.326777
vt -2.326777 2.326777
vt 2.15 0.125
vt -2.15 0.125
vt 2.15 0.15
vt -2.15 0.15
vt 2.326777 0.15
vt -2.326777 0.15
vt 2.380748E-17 2.15
vt 1.075 2.15
vt -1.075 2.15
vt -5.87529E-15 0.15
vt 1.075 0.15
vt -1.075 0.15

vn 0 0 1
vn -1 0 0
vn 0 0 -1
vn 1 0 0
vn 0 1 0
vn 0 -1 0

usemtl Metal_pattern_30-Para4
f 26/20/5 23/6/5 24/10/5
f 25/19/5 26/20/5 24/10/5
f 22/12/5 21/5/5 27/21/5
f 22/12/5 27/21/5 25/19/5
f 25/19/5 24/10/5 22/12/5
f 26/23/3 10/13/3 23/15/3
f 26/23/3 25/22/3 10/13/3
f 10/13/3 25/22/3 9/14/3
f 9/14/3 25/22/3 27/24/3
f 27/24/3 21/16/3 9/14/3
f 4/4/1 2/2/1 1/1/1
f 1/1/1 3/3/1 4/4/1
f 6/4/2 5/2/2 2/1/2
f 2/1/2 4/3/2 6/4/2
f 8/4/3 7/2/3 5/1/3
f 5/1/3 6/3/3 8/4/3
f 3/4/4 1/2/4 7/1/4
f 7/1/4 8/3/4 3/4/4
f 16/5/6 14/7/6 13/8/6
f 13/8/6 15/6/6 16/5/6
f 1/10/6 15/6/6 13/8/6
f 13/8/6 7/9/6 1/10/6
f 20/9/5 18/8/5 17/7/5
f 17/7/5 19/11/5 20/9/5
f 19/11/5 17/7/5 21/5/5
f 21/5/5 22/12/5 19/11/5
f 2/12/6 16/5/6 15/6/6
f 15/6/6 1/10/6 2/12/6
f 5/11/6 14/7/6 16/5/6
f 16/5/6 2/12/6 5/11/6
f 24/10/5 23/6/5 18/8/5
f 18/8/5 20/9/5 24/10/5
f 7/9/6 13/8/6 14/7/6
f 14/7/6 5/11/6 7/9/6
f 17/16/2 11/14/2 9/13/2
f 9/13/2 21/15/2 17/16/2
f 24/18/1 4/4/1 3/3/1
f 3/3/1 22/17/1 24/18/1
f 22/18/4 3/4/4 8/3/4
f 8/3/4 19/17/4 22/18/4
f 18/16/1 12/14/1 11/13/1
f 11/13/1 17/15/1 18/16/1
f 19/18/3 8/4/3 6/3/3
f 6/3/3 20/17/3 19/18/3
f 23/16/4 10/14/4 12/13/4
f 12/13/4 18/15/4 23/16/4
f 20/18/2 6/4/2 4/3/2
f 4/3/2 24/17/2 20/18/2

usemtl Metal_pattern_23
f 11/7/5 12/8/5 10/6/5 9/5/5

