# ProBuilder 4.4.0
# https://unity3d.com/unity/features/worldbuilding/probuilder
# 2021/1/6 19:52:51

mtllib ./Screen.mtl
o Screen

g Screen
v 0.03500009 -0.375 -0.425
v 0.03500009 -0.375 0.425
v 0.03500009 0.375 -0.425
v 0.03500009 0.375 0.425
v 0.07500005 -1.05 0.575
v -0.07500005 -1.05 0.575
v 0.07500005 0.2000002 0.575
v -0.07500005 0.2000002 0.575
v -0.07500005 -1.05 0.425
v -0.07500005 0.4499999 0.425
v 0.07500005 -1.05 0.425
v 0.07500005 0.4499999 0.425
v 0.07500005 -1.05 -0.425
v -0.07500005 -1.05 -0.425
v 0.07500005 0.4499999 -0.425
v -0.07500005 0.4499999 -0.425
v -0.07500005 -1.05 -0.575
v -0.07500005 0.2000002 -0.575
v 0.07500005 -1.05 -0.575
v 0.07500005 0.2000002 -0.575
v 0.0250001 -0.375 0.425
v -0.0250001 -0.375 0.425
v 0.0250001 0.375 0.425
v -0.0250001 0.375 0.425
v -0.0250001 -0.375 -0.425
v -0.0250001 0.375 -0.425
v 0.0250001 -0.375 -0.425
v 0.0250001 0.375 -0.425

vt 1.01 -0.003750026
vt -0.01000005 -0.003750026
vt 1.01 1.08375
vt -0.01000005 1.08375
vt 0.07500005 -0.75
vt -0.07500005 -0.75
vt 0.07500005 0.5000002
vt -0.07500005 0.5000002
vt 0.07499999 -0.75
vt -0.07499999 -0.75
vt 0.07499999 0.5000002
vt -0.07499999 0.75
vt 0.075 0.75
vt -0.075 0.75
vt 0.07499999 0.75
vt -0.07499999 0.5000002
vt 0.07500005 0.3901594
vt -0.07500005 0.3901594
vt 0.07500005 0.6817068
vt -0.07500005 0.6817068
vt 0.075 -0.07499999
vt -0.075 -0.07499999
vt 0.075 0.07499999
vt -0.075 0.07499999
vt 0.1326234 0.1232843
vt 0.07262343 0.1232843
vt 0.1326234 0.8732843
vt 0.07262343 0.8732843
vt 1.012624 0.1232843
vt -0.007376671 0.1232843
vt 1.012624 0.8732843
vt -0.007376671 0.8732843
vt 1.023523 0.5732843
vt 1.023523 0.5232843
vt 0.003523111 0.5732844
vt 0.003523111 0.5232844

vn 1 0 0
vn 0 0 1
vn -1 0 0
vn 0 0 -1
vn 0 0.5144961 0.8574927
vn 0 -1 0
vn 0 0.5144961 -0.8574927
vn 0 1 0

usemtl HoloScreen
f 23/27/2 24/28/2 22/26/2 21/25/2
f 24/31/3 26/32/3 25/30/3 22/29/3
f 26/27/4 28/28/4 27/26/4 25/25/4
f 28/31/1 23/32/1 21/30/1 27/29/1
f 28/35/8 26/36/8 24/34/8 23/33/8
f 21/34/6 22/33/6 25/35/6 27/36/6

usemtl LiftPlane-Material_65_1
f 3/3/1 4/4/1 2/2/1 1/1/1

usemtl Metal_pattern_30-Para4
f 7/7/2 8/8/2 6/6/2 5/5/2
f 8/11/3 10/12/3 9/10/3 6/9/3
f 12/15/1 7/16/1 5/10/1 11/9/1
f 12/19/5 10/20/5 8/18/5 7/17/5
f 5/23/6 6/24/6 9/22/6 11/21/6
f 16/15/3 18/16/3 17/10/3 14/9/3
f 18/7/4 20/8/4 19/6/4 17/5/4
f 20/11/1 15/12/1 13/10/1 19/9/1
f 20/18/7 18/17/7 16/19/7 15/20/7
f 13/23/6 14/24/6 17/22/6 19/21/6

usemtl Metal_pattern_20-Lighter
f 10/13/4 12/14/4 11/6/4 9/5/4
f 15/13/2 16/14/2 14/6/2 13/5/2

