# ProBuilder 4.4.0
# https://unity3d.com/unity/features/worldbuilding/probuilder
# 2021/1/12 20:35:09

mtllib ./QuarantineWall-Connector-Gate.mtl
o QuarantineWall-Connector-Gate

g QuarantineWall-Connector-Gate
v 0.7577524 4.549999 -0.4311633
v 0.7550201 4.549999 0
v 0.7577524 4.25 -0.4311633
v 0.7550201 4.25 0
v 0.4375 -4.549999 -0.7577723
v 0.7577724 -4.549999 -0.4375
v 0.4375 -4.15 -0.7577723
v 0.7577724 -4.15 -0.4375
v 0 -4.549999 -0.7550001
v 0 -4.15 -0.7550001
v -0.7577522 4.549999 -0.431164
v -0.7577522 4.25 -0.431164
v -0.7577522 4.549999 0.4311638
v -0.7550201 4.549999 0
v -0.7577522 4.25 0.4311638
v -0.7550201 4.25 0
v -0.4375 -4.549999 0.7577723
v -0.7577722 -4.549999 0.4375
v -0.4375 -4.15 0.7577723
v -0.7577722 -4.15 0.4375
v 0 -4.549999 0.7550001
v 0 -4.15 0.7550001
v 0.7577724 -4.549999 0.4375001
v 0.4375 -4.549999 0.7577722
v 0.7577724 -4.15 0.4375001
v 0.4375 -4.15 0.7577722
v 0.7577524 4.549999 0.4311633
v 0.7577524 4.25 0.4311633
v -0.4375 -4.549999 -0.7577723
v -0.4375 -4.15 -0.7577723
v -0.7577722 -4.549999 -0.4375001
v -0.7577722 -4.15 -0.4375001
v -0.7550001 -4.549999 0
v -4.25502 -2.15 0
v -4.257752 -2.15 -0.431164
v -0.7550001 -4.15 0
v -3.75502 -2.15 0
v -3.757752 -2.15 0.4311638
v -3.757752 -2.15 -0.431164
v -4.257752 -2.15 0.4311638
v 0.7550001 -4.549999 0
v 4.257752 -2.15 -0.4311633
v 4.25502 -2.15 0
v 3.757752 -2.15 -0.4311633
v 4.257752 -2.15 0.4311633
v 3.757752 -2.15 0.4311633
v 0.7550001 -4.15 0
v 3.75502 -2.15 0
v -4.257752 1.85 0.4311638
v -4.25502 1.85 0
v -3.757752 1.85 0.4311638
v -3.75502 1.85 0
v -4.257752 1.85 -0.431164
v -3.757752 1.85 -0.431164
v 4.257752 1.85 -0.4311633
v 4.25502 1.85 0
v 3.757752 1.85 -0.4311633
v 3.75502 1.85 0
v 4.257752 1.85 0.4311633
v 3.757752 1.85 0.4311633
v 0.4375 -4.15 -0.3788862
v 0.4375 -4.15 0.3788861
v -0.4375 -4.15 0.3788861
v -0.4375 -4.15 0
v -0.4375 -4.15 -0.3788861
v 0 -3.15 0
v 0.4375 -4.15 -2.980232E-08

vt -0.4311633 4.549999
vt 6.002449E-12 4.549999
vt -0.4311633 4.25
vt 6.002449E-12 4.25
vt 0.2264665 -4.549999
vt -0.226467 -4.549999
vt 0.2264665 -4.15
vt -0.226467 -4.15
vt -0.004783847 -4.549999
vt -0.4422926 -4.549999
vt -0.004783847 -4.15
vt -0.4422926 -4.15
vt 0.431164 4.549999
vt 0.431164 4.25
vt 0.4422925 -4.549999
vt 0.004783744 -4.549999
vt 0.4422925 -4.15
vt 0.004783744 -4.15
vt -0.5025728 -0.5307612
vt -0.6119478 -0.5301896
vt -0.5025727 0.5301977
vt -0.6103637 0.5307611
vt -0.5198746 1.803921
vt 0.005125344 1.801614
vt -0.5198748 -1.801647
vt -0.002478242 -1.803921
vt 0.756979 -4.549999
vt 0.756979 -4.15
vt 4.256965 -2.15
vt 3.756966 -2.15
vt -1.044875 1.801614
vt -1.037272 -1.803921
vt -0.3931977 -0.5301896
vt -0.3947818 0.5307611
vt -0.7568465 -4.15
vt -0.7568465 -4.549999
vt -3.756834 -2.15
vt -4.256833 -2.15
vt -0.1093022 0.5301896
vt 7.274747E-05 0.5307612
vt -0.1077181 -0.5307611
vt 7.270277E-05 -0.5301977
vt -0.4801253 -1.803921
vt -1.005125 -1.801614
vt -0.4801251 1.801647
vt -0.9975212 1.803921
vt 0.1094478 0.5301896
vt 0.1078635 -0.5307611
vt 0.04487482 -1.801614
vt 0.03727081 1.803921
vt 0.1077909 -0.6499996
vt -8.767321E-08 -0.6499996
vt 0.1077909 0.3500004
vt -8.767321E-08 0.3500004
vt -3.757752 -2.15
vt -4.257752 -2.15
vt -3.757752 1.85
vt -4.257752 1.85
vt -0.5100001 -2.15
vt -1.027397 -2.15
vt -0.5100001 1.85
vt -1.027397 1.85
vt -0.1077911 -0.6499996
vt -0.1077911 0.3500004
vt 4.257752 -2.15
vt 3.757752 -2.15
vt 4.257752 1.85
vt 3.757752 1.85
vt 0.007396817 -2.15
vt 0.007396817 1.85
vt 0.1077908 1.5
vt 0 1.5
vt 0.1077908 2.5
vt 0 2.5
vt -0.49 -2.15
vt -1.007396 -2.15
vt -0.49 1.85
vt -1.007396 1.85
vt -0.1077908 1.5
vt -0.1077908 2.5
vt 0.02739596 -2.15
vt 0.02739596 1.85
vt 0.107733 -0.5528213
vt -5.79562E-05 -0.5522805
vt 0.107733 0.5522803
vt -5.790964E-05 0.5528211
vt -0.7577522 4.25
vt -0.7577522 4.549999
vt -0.5066219 2.111857
vt 0.01077467 2.114204
vt -0.5066221 -2.114204
vt 0.01077443 -2.111858
vt -0.107849 -0.5528213
vt -0.1078489 0.5522803
vt 0.7577522 4.549999
vt 0.7577522 4.25
vt -1.024019 2.114204
vt -1.024019 -2.111858
vt -0.1077331 0.5528212
vt 5.774945E-05 0.5522804
vt -0.1077331 -0.5522804
vt 5.770102E-05 -0.5528212
vt -0.4933782 -2.111857
vt -1.010774 -2.114204
vt -0.493378 2.114204
vt -1.010774 2.111858
vt 0.1078486 0.5528212
vt 0.1078485 -0.5522804
vt 0.02401772 -2.114204
vt 0.02401796 2.111857
vt -0.4375 -0.3788862
vt -0.4375 -0.7577723
vt -0.7577724 -0.4375
vt -0.7550001 0
vt -0.7577724 0.4375001
vt -0.4375 0.7577722
vt -0.4375 0.3788861
vt 0.4375 0.3788861
vt 0.4375 0
vt 0.4375 -0.3788861
vt 0 0
vt -0.4375 -2.980232E-08
vt 0.7577722 -0.4375001
vt 0.4375 -0.7577723
vt 0.4375 0.7577723
vt 0.7577722 0.4375
vt 0.7550001 0
vt 0 0.7550001
vt 0 -0.7550001

vn -0.99998 0 -0.006336861
vn -0.99998 0 -0.002112287
vn -0.99998 0 0.002112287
vn 0.7071066 0 -0.7071069
vn -0.006336221 0 -0.9999799
vn 0.99998 0 -0.006336298
vn 0.99998 0 0.006336301
vn 0.99998 0 0.002112102
vn 0.99998 0 -0.002112098
vn -0.7071069 0 0.7071067
vn 0.006336221 0 0.9999799
vn 0.7071065 0 0.7071071
vn -0.99998 0 0.006336861
vn -0.006336085 0 0.9999799
vn 0.006336221 0 -0.9999799
vn -0.7071067 0 -0.7071069
vn -0.5655225 -0.8247252 0.003583269
vn 0.5546942 0.8320469 0.00351466
vn -0.001810328 0 -0.9999984
vn -0.0009051641 0.001584023 -0.9999967
vn 0 0.003168046 -0.999995
vn 0.5546942 0.8320469 -0.003514659
vn -0.5655224 -0.8247252 -0.00358327
vn -0.00211208 0 0.9999978
vn -0.00105604 0.00132004 0.9999971
vn 0 0.00264008 0.9999965
vn 0.5655225 -0.8247252 0.003583579
vn 0.002112229 0 -0.9999978
vn 0.001056115 0.001320133 -0.9999971
vn 0 0.002640266 -0.9999965
vn 0.001810507 0 0.9999984
vn 0.0009052535 0.001584179 0.9999967
vn 0 0.003168358 0.999995
vn -0.5546942 0.8320469 -0.003514963
vn 0.5655225 -0.8247252 -0.003583578
vn -0.5546942 0.8320469 0.003514962
vn 0 0 1
vn 0 0 -1
vn -0.6107987 0.7917765 -0.00387062
vn 0.6246901 -0.7808627 0.003958649
vn -0.6107987 0.7917764 0.003870618
vn 0.6246901 -0.7808628 -0.003958647
vn 0.6107987 0.7917765 0.003870624
vn -0.6246901 -0.7808627 -0.003958654
vn 0.6107987 0.7917765 -0.003870624
vn -0.6246901 -0.7808627 0.003958654
vn 0 1 0
vn -0.9161574 0.4008189 0
vn 0.9161574 0.4008189 0
vn 3.185031E-08 0.3543074 0.935129
vn -3.185031E-08 0.3543074 -0.935129

usemtl Metal_pattern_30-Para5
f 3/3/1 2/2/2 1/1/1
f 3/3/1 4/4/3 2/2/2
f 4/4/3 27/13/13 2/2/2
f 4/4/3 28/14/13 27/13/13
f 15/3/7 14/2/8 13/1/7
f 15/3/7 16/4/9 14/2/8
f 16/4/9 11/13/6 14/2/8
f 16/4/9 12/14/6 11/13/6
f 8/113/47 7/112/47 61/111/47
f 47/114/47 8/113/47 61/111/47
f 47/114/47 61/111/47 62/117/47
f 25/115/47 47/114/47 62/117/47
f 25/115/47 62/117/47 26/116/47
f 65/120/47 30/124/47 32/123/47
f 36/127/47 65/120/47 32/123/47
f 63/118/47 65/120/47 36/127/47
f 63/118/47 36/127/47 20/126/47
f 19/125/47 63/118/47 20/126/47
f 22/128/47 63/118/47 19/125/47
f 22/128/47 62/117/47 63/118/47
f 26/116/47 62/117/47 22/128/47
f 62/117/50 66/121/50 63/118/50
f 61/111/47 7/112/47 10/129/47
f 10/129/47 30/124/47 65/120/47
f 61/111/47 10/129/47 65/120/47
f 65/120/51 66/121/51 61/111/51
f 8/8/4 6/6/4 5/5/4
f 5/5/4 7/7/4 8/8/4
f 7/12/5 5/10/5 9/9/5
f 9/9/5 10/11/5 7/12/5
f 20/8/10 18/6/10 17/5/10
f 17/5/10 19/7/10 20/8/10
f 19/12/11 17/10/11 21/9/11
f 21/9/11 22/11/11 19/12/11
f 26/8/12 24/6/12 23/5/12
f 23/5/12 25/7/12 26/8/12
f 22/18/14 21/16/14 24/15/14
f 24/15/14 26/17/14 22/18/14
f 10/18/15 9/16/15 29/15/15
f 29/15/15 30/17/15 10/18/15
f 30/8/16 29/6/16 31/5/16
f 31/5/16 32/7/16 30/8/16
f 39/30/21 32/28/20 31/27/19
f 31/27/19 35/29/20 39/30/21
f 40/38/26 18/36/25 20/35/24
f 20/35/24 38/37/25 40/38/26
f 42/38/30 6/36/29 8/35/28
f 8/35/28 44/37/29 42/38/30
f 46/30/33 25/28/32 23/27/31
f 23/27/31 45/29/32 46/30/33
f 49/58/37 40/56/37 38/55/37
f 38/55/37 51/57/37 49/58/37
f 54/68/38 39/66/38 35/65/38
f 35/65/38 53/67/38 54/68/38
f 55/58/38 42/56/38 44/55/38
f 44/55/38 57/57/38 55/58/38
f 60/68/37 46/66/37 45/65/37
f 45/65/37 59/67/37 60/68/37
f 13/88/37 49/58/37 51/57/37
f 51/57/37 15/87/37 13/88/37
f 12/96/38 54/68/38 53/67/38
f 53/67/38 11/95/38 12/96/38
f 1/88/38 55/58/38 57/57/38
f 57/57/38 3/87/38 1/88/38
f 28/96/37 60/68/37 59/67/37
f 59/67/37 27/95/37 28/96/37
f 66/121/48 65/120/48 64/119/48
f 64/119/48 63/118/48 66/121/48
f 62/117/49 67/122/49 61/111/49
f 61/111/49 66/121/49 62/117/49

usemtl Metal_pattern_30-Para5_2
f 37/25/18 38/26/18 20/24/18 36/23/18
f 39/32/22 37/25/22 36/23/22 32/31/22
f 48/45/34 44/46/34 8/44/34 47/43/34
f 46/50/36 48/45/36 47/43/36 25/49/36
f 52/61/7 51/62/7 38/60/7 37/59/7
f 54/70/6 52/61/6 37/59/6 39/69/6
f 58/77/1 57/78/1 44/76/1 48/75/1
f 60/82/13 58/77/13 48/75/13 46/81/13
f 16/91/40 15/92/40 51/90/40 52/89/40
f 12/98/42 16/91/42 52/89/42 54/97/42
f 4/105/44 3/106/44 57/104/44 58/103/44
f 28/110/46 4/105/46 58/103/46 60/109/46

usemtl Metal_pattern_30-Para5_1
f 34/21/17 35/22/17 31/20/17 33/19/17
f 40/34/23 34/21/23 33/19/23 18/33/23
f 42/41/27 43/42/27 41/40/27 6/39/27
f 43/42/35 45/48/35 23/47/35 41/40/35
f 49/53/1 50/54/1 34/52/1 40/51/1
f 50/54/13 53/64/13 35/63/13 34/52/13
f 55/73/7 56/74/7 43/72/7 42/71/7
f 56/74/6 59/80/6 45/79/6 43/72/6
f 13/85/39 14/86/39 50/84/39 49/83/39
f 14/86/41 11/94/41 53/93/41 50/84/41
f 1/101/43 2/102/43 56/100/43 55/99/43
f 2/102/45 27/108/45 59/107/45 56/100/45

