# ProBuilder 4.4.0
# https://unity3d.com/unity/features/worldbuilding/probuilder
# 2021/1/12 20:35:09

mtllib ./QuarantineWall.mtl
o QuarantineWall

g QuarantineWall
v -1.875 4.75 -3.75
v -1.875 -5.25 -3.75
v 0.125 4.75 -3.75
v 2.125 -5.25 -3.75
v 2.125 4.75 -3.75
v -0.875 4.75 -3.75
v 1.125 4.75 -3.75
v 2.125 4.75 3.75
v 2.125 -5.25 3.75
v 0.125 4.75 3.75
v -1.875 -5.25 3.75
v -1.875 4.75 3.75
v -0.875 4.75 3.75
v 1.125 4.75 3.75
v 1.125 5.25 -3.75
v 2.125 5.25 -3.75
v 2.125 5.25 3.75
v 1.125 5.25 3.75
v -0.875 5.25 3.75
v -1.875 5.25 3.75
v -1.875 5.25 -3.75
v -0.875 5.25 -3.75
v -1.875 4.75 -2.8125
v -1.875 4.75 -1.875
v -1.875 4.75 -0.9375
v -1.875 4.75 0
v -1.875 4.75 2.8125
v -1.875 4.75 1.875
v -1.875 4.75 0.9375
v -1.875 4.75 3.28125
v -1.875 4.75 2.34375
v -1.875 4.75 1.40625
v -1.875 4.75 0.46875
v -1.875 4.75 -0.46875
v -1.875 4.75 -1.40625
v -1.875 4.75 -2.34375
v -1.875 4.75 -3.28125
v -1.875 -5.25 -3.28125
v -2.125 -5.25 -2.8125
v -2.125 -5.25 -3.28125
v -2.125 4.75 -3.28125
v -2.125 4.75 -2.8125
v -1.875 -5.25 -2.34375
v -1.875 -5.25 -2.8125
v -2.125 -5.25 -1.875
v -2.125 -5.25 -2.34375
v -2.125 4.75 -2.34375
v -2.125 4.75 -1.875
v -1.875 -5.25 -1.40625
v -1.875 -5.25 -1.875
v -2.125 -5.25 -0.9375
v -2.125 -5.25 -1.40625
v -2.125 4.75 -1.40625
v -2.125 4.75 -0.9375
v -1.875 -5.25 -0.46875
v -1.875 -5.25 -0.9375
v -2.125 -5.25 0
v -2.125 -5.25 -0.46875
v -2.125 4.75 -0.46875
v -2.125 4.75 0
v -2.125 -5.25 0.46875
v -2.125 4.75 0.46875
v -1.875 -5.25 0.9375
v -1.875 -5.25 0.46875
v -2.125 -5.25 1.40625
v -2.125 -5.25 0.9375
v -2.125 4.75 0.9375
v -2.125 4.75 1.40625
v -1.875 -5.25 1.875
v -1.875 -5.25 1.40625
v -2.125 -5.25 2.34375
v -2.125 -5.25 1.875
v -2.125 4.75 1.875
v -2.125 4.75 2.34375
v -1.875 -5.25 2.8125
v -1.875 -5.25 2.34375
v -1.875 -5.25 3.28125
v -2.125 -5.25 3.28125
v -2.125 -5.25 2.8125
v -2.125 4.75 2.8125
v -2.125 4.75 3.28125
v -1.875 -5.25 0
v 2.125 -5.25 -1.875
v 2.125 -5.25 0
v 2.125 -5.25 1.875
v 2.125 -5.25 2.8125
v 2.125 -5.25 -2.8125
v 2.125 -5.25 -0.9375
v 2.125 -5.25 0.9375
v 2.125 4.75 -1.875
v 2.125 4.75 0
v 2.125 4.75 1.875
v 2.125 4.75 -2.8125
v 2.125 4.75 -0.9375
v 2.125 4.75 0.9375
v 2.125 4.75 2.8125
v 2.375 4.75 -1.875
v 2.375 4.75 -2.8125
v 2.375 -5.25 -2.8125
v 2.375 -5.25 -1.875
v 2.375 4.75 0
v 2.375 4.75 -0.9375
v 2.375 -5.25 -0.9375
v 2.375 -5.25 0
v 2.375 4.75 0.9375
v 2.375 -5.25 0.9375
v 2.375 4.75 2.8125
v 2.375 4.75 1.875
v 2.375 -5.25 1.875
v 2.375 -5.25 2.8125

vt 1.875 4.75
vt 1.875 -5.25
vt -0.125 4.75
vt -2.125 -5.25
vt -2.125 4.75
vt 0.875 4.75
vt -1.125 4.75
vt 2.125 4.75
vt 2.125 -5.25
vt 0.125 4.75
vt -1.875 -5.25
vt -1.875 4.75
vt -0.875 4.75
vt 1.125 4.75
vt -1.125 -3.75
vt -2.125 -3.75
vt -2.125 3.75
vt -1.125 3.75
vt 0.004999995 -2.025
vt -0.495 -2.025
vt -0.495 1.725
vt 0.004999995 1.725
vt 0.505 1.725
vt 0.505 -2.025
vt 0.875 3.75
vt 1.875 3.75
vt 1.875 -3.75
vt 0.875 -3.75
vt 1.875 5.25
vt 0.875 5.25
vt 3.75 4.75
vt -3.75 4.75
vt 3.75 5.25
vt -3.75 5.25
vt -0.875 5.25
vt -1.875 5.25
vt -1.125 5.25
vt -2.125 5.25
vt 2.125 5.25
vt 1.125 5.25
vt -2.8125 4.75
vt -0.9375 4.75
vt 0 4.75
vt 2.8125 4.75
vt 0.9375 4.75
vt 3.28125 4.75
vt 2.34375 4.75
vt 1.40625 4.75
vt 0.46875 4.75
vt -0.46875 4.75
vt -1.40625 4.75
vt -2.34375 4.75
vt -3.28125 4.75
vt -3.28125 -5.25
vt -3.75 -5.25
vt 0.46875 0
vt 0 0
vt 0 10
vt 0.46875 10
vt -2.34375 -5.25
vt -2.8125 -5.25
vt -1.40625 -5.25
vt -0.46875 -5.25
vt -0.9375 -5.25
vt 0 -5.25
vt 0.46875 -5.25
vt 0.9375 -5.25
vt 1.40625 -5.25
vt 2.8125 -5.25
vt 2.34375 -5.25
vt 3.28125 -5.25
vt 3.75 -5.25
vt -1.875 3.28125
vt -1.875 2.8125
vt -2.125 3.28125
vt -2.125 2.8125
vt 1.875 2.8125
vt 1.875 3.28125
vt 2.125 2.8125
vt 2.125 3.28125
vt -1.875 -2.8125
vt -1.875 -3.28125
vt -2.125 -2.8125
vt -2.125 -3.28125
vt 1.875 -3.28125
vt 1.875 -2.8125
vt 2.125 -3.28125
vt 2.125 -2.8125
vt -1.875 -1.875
vt -1.875 -2.34375
vt -2.125 -1.875
vt -2.125 -2.34375
vt 1.875 -2.34375
vt 1.875 -1.875
vt 2.125 -2.34375
vt 2.125 -1.875
vt -1.875 2.34375
vt -1.875 1.875
vt -2.125 2.34375
vt -2.125 1.875
vt 1.875 1.875
vt 1.875 2.34375
vt 2.125 1.875
vt 2.125 2.34375
vt -1.875 1.40625
vt -1.875 0.9375
vt -2.125 1.40625
vt -2.125 0.9375
vt 1.875 0.9375
vt 1.875 1.40625
vt 2.125 0.9375
vt 2.125 1.40625
vt -1.875 -0.9375
vt -1.875 -1.40625
vt -2.125 -0.9375
vt -2.125 -1.40625
vt 1.875 -1.40625
vt 1.875 -0.9375
vt 2.125 -1.40625
vt 2.125 -0.9375
vt -1.875 0
vt -1.875 -0.46875
vt -2.125 0
vt -2.125 -0.46875
vt 1.875 -0.46875
vt 1.875 0
vt 2.125 -0.46875
vt 2.125 0
vt -1.875 0.46875
vt -2.125 0.46875
vt 1.875 0.46875
vt 2.125 0.46875
vt 2.125 -3.75
vt -1.875 -3.75
vt 2.125 3.75
vt -1.875 3.75
vt 2.375 -5.25
vt 2.375 4.75
vt -2.375 2.8125
vt -2.375 1.875
vt -2.375 4.75
vt -2.375 -5.25
vt 2.375 1.875
vt 2.375 2.8125
vt -2.375 -1.875
vt -2.375 -2.8125
vt 2.375 -2.8125
vt 2.375 -1.875
vt -2.375 0.9375
vt -2.375 0
vt -2.375 -0.9375
vt 2.375 0
vt 2.375 0.9375
vt 2.375 -0.9375

vn 0 0 -1
vn 0 0 1
vn 0 1 0
vn 1 0 0
vn -1 0 0
vn 0 -1 0

usemtl Metal_pattern_30-Para5_1
f 14/14/2 9/9/2 8/8/2
f 14/14/2 10/10/2 9/9/2
f 9/9/2 10/10/2 11/11/2
f 11/11/2 10/10/2 13/13/2
f 13/13/2 12/12/2 11/11/2
f 6/6/1 2/2/1 1/1/1
f 6/6/1 3/3/1 2/2/1
f 2/2/1 3/3/1 4/4/1
f 4/4/1 3/3/1 7/7/1
f 7/7/1 5/5/1 4/4/1
f 38/82/6 2/134/6 4/133/6
f 87/88/6 38/82/6 4/133/6
f 87/88/6 44/81/6 38/82/6
f 43/90/6 44/81/6 87/88/6
f 83/96/6 43/90/6 87/88/6
f 83/96/6 50/89/6 43/90/6
f 49/114/6 50/89/6 83/96/6
f 88/120/6 49/114/6 83/96/6
f 88/120/6 56/113/6 49/114/6
f 55/122/6 56/113/6 88/120/6
f 84/128/6 55/122/6 88/120/6
f 84/128/6 82/121/6 55/122/6
f 64/129/6 82/121/6 84/128/6
f 89/111/6 64/129/6 84/128/6
f 89/111/6 63/106/6 64/129/6
f 70/105/6 63/106/6 89/111/6
f 85/103/6 70/105/6 89/111/6
f 85/103/6 69/98/6 70/105/6
f 76/97/6 69/98/6 85/103/6
f 86/79/6 76/97/6 85/103/6
f 86/79/6 75/74/6 76/97/6
f 77/73/6 75/74/6 86/79/6
f 9/135/6 77/73/6 86/79/6
f 9/135/6 11/136/6 77/73/6
f 14/21/3 7/20/3 3/19/3
f 10/22/3 6/24/3 13/23/3
f 10/22/3 3/19/3 6/24/3
f 14/21/3 3/19/3 10/22/3
f 17/34/4 8/32/4 96/41/4
f 17/34/4 96/41/4 92/12/4
f 17/34/4 92/12/4 95/42/4
f 17/34/4 95/42/4 91/43/4
f 93/44/4 5/31/4 16/33/4
f 90/1/4 93/44/4 16/33/4
f 94/45/4 90/1/4 16/33/4
f 91/43/4 94/45/4 16/33/4
f 17/34/4 91/43/4 16/33/4
f 22/30/1 6/6/1 1/1/1
f 1/1/1 21/29/1 22/30/1
f 20/36/2 12/12/2 13/13/2
f 13/13/2 19/35/2 20/36/2
f 16/38/1 5/5/1 7/7/1
f 7/7/1 15/37/1 16/38/1
f 18/40/2 14/14/2 8/8/2
f 8/8/2 17/39/2 18/40/2
f 41/58/5 40/57/5 39/56/5
f 39/56/5 42/59/5 41/58/5
f 47/58/5 46/57/5 45/56/5
f 45/56/5 48/59/5 47/58/5
f 53/58/5 52/57/5 51/56/5
f 51/56/5 54/59/5 53/58/5
f 59/50/5 58/63/5 57/65/5
f 57/65/5 60/43/5 59/50/5
f 60/43/5 57/65/5 61/66/5
f 61/66/5 62/49/5 60/43/5
f 67/45/5 66/67/5 65/68/5
f 65/68/5 68/48/5 67/45/5
f 73/58/5 72/57/5 71/56/5
f 71/56/5 74/59/5 73/58/5
f 80/58/5 79/57/5 78/56/5
f 78/56/5 81/59/5 80/58/5
f 79/76/6 75/74/6 77/73/6
f 77/73/6 78/75/6 79/76/6
f 80/8/1 27/1/1 75/2/1
f 75/2/1 79/9/1 80/8/1
f 78/4/2 77/11/2 30/12/2
f 30/12/2 81/5/2 78/4/2
f 81/80/3 30/78/3 27/77/3
f 27/77/3 80/79/3 81/80/3
f 40/84/6 38/82/6 44/81/6
f 44/81/6 39/83/6 40/84/6
f 41/8/1 37/1/1 38/2/1
f 38/2/1 40/9/1 41/8/1
f 39/4/2 44/11/2 23/12/2
f 23/12/2 42/5/2 39/4/2
f 42/88/3 23/86/3 37/85/3
f 37/85/3 41/87/3 42/88/3
f 46/92/6 43/90/6 50/89/6
f 50/89/6 45/91/6 46/92/6
f 47/8/1 36/1/1 43/2/1
f 43/2/1 46/9/1 47/8/1
f 45/4/2 50/11/2 24/12/2
f 24/12/2 48/5/2 45/4/2
f 48/96/3 24/94/3 36/93/3
f 36/93/3 47/95/3 48/96/3
f 72/100/6 69/98/6 76/97/6
f 76/97/6 71/99/6 72/100/6
f 73/8/1 28/1/1 69/2/1
f 69/2/1 72/9/1 73/8/1
f 71/4/2 76/11/2 31/12/2
f 31/12/2 74/5/2 71/4/2
f 74/104/3 31/102/3 28/101/3
f 28/101/3 73/103/3 74/104/3
f 66/108/6 63/106/6 70/105/6
f 70/105/6 65/107/6 66/108/6
f 67/8/1 29/1/1 63/2/1
f 63/2/1 66/9/1 67/8/1
f 65/4/2 70/11/2 32/12/2
f 32/12/2 68/5/2 65/4/2
f 68/112/3 32/110/3 29/109/3
f 29/109/3 67/111/3 68/112/3
f 52/116/6 49/114/6 56/113/6
f 56/113/6 51/115/6 52/116/6
f 53/8/1 35/1/1 49/2/1
f 49/2/1 52/9/1 53/8/1
f 51/4/2 56/11/2 25/12/2
f 25/12/2 54/5/2 51/4/2
f 54/120/3 25/118/3 35/117/3
f 35/117/3 53/119/3 54/120/3
f 58/124/6 55/122/6 82/121/6
f 82/121/6 57/123/6 58/124/6
f 59/8/1 34/1/1 55/2/1
f 55/2/1 58/9/1 59/8/1
f 61/4/2 64/11/2 33/12/2
f 33/12/2 62/5/2 61/4/2
f 60/128/3 26/126/3 34/125/3
f 34/125/3 59/127/3 60/128/3
f 57/123/6 82/121/6 64/129/6
f 64/129/6 61/130/6 57/123/6
f 62/132/3 33/131/3 26/126/3
f 26/126/3 60/128/3 62/132/3

usemtl Metal_pattern_30-Para5
f 30/46/5 12/31/5 20/33/5
f 27/44/5 30/46/5 20/33/5
f 31/47/5 27/44/5 20/33/5
f 28/1/5 31/47/5 20/33/5
f 32/48/5 28/1/5 20/33/5
f 29/45/5 32/48/5 20/33/5
f 33/49/5 29/45/5 20/33/5
f 26/43/5 33/49/5 20/33/5
f 21/34/5 1/32/5 37/53/5
f 21/34/5 37/53/5 23/41/5
f 21/34/5 23/41/5 36/52/5
f 21/34/5 36/52/5 24/12/5
f 21/34/5 24/12/5 35/51/5
f 21/34/5 35/51/5 25/42/5
f 21/34/5 25/42/5 34/50/5
f 21/34/5 34/50/5 26/43/5
f 20/33/5 21/34/5 26/43/5
f 17/17/3 16/16/3 15/15/3
f 15/15/3 18/18/3 17/17/3
f 19/25/3 22/28/3 21/27/3
f 21/27/3 20/26/3 19/25/3
f 19/34/4 13/32/4 6/31/4
f 6/31/4 22/33/4 19/34/4
f 15/34/5 7/32/5 14/31/5
f 14/31/5 18/33/5 15/34/5
f 1/32/5 2/55/5 38/54/5
f 38/54/5 37/53/5 1/32/5
f 23/41/5 44/61/5 43/60/5
f 43/60/5 36/52/5 23/41/5
f 24/12/5 50/11/5 49/62/5
f 49/62/5 35/51/5 24/12/5
f 25/42/5 56/64/5 55/63/5
f 55/63/5 34/50/5 25/42/5
f 33/49/5 64/66/5 63/67/5
f 63/67/5 29/45/5 33/49/5
f 32/48/5 70/68/5 69/2/5
f 69/2/5 28/1/5 32/48/5
f 31/47/5 76/70/5 75/69/5
f 75/69/5 27/44/5 31/47/5
f 30/46/5 77/71/5 11/72/5
f 11/72/5 12/31/5 30/46/5
f 5/31/4 93/44/4 87/69/4
f 87/69/4 4/72/4 5/31/4
f 98/44/4 97/1/4 100/2/4
f 100/2/4 99/69/4 98/44/4
f 90/1/4 94/45/4 88/67/4
f 88/67/4 83/2/4 90/1/4
f 102/45/4 101/43/4 104/65/4
f 104/65/4 103/67/4 102/45/4
f 101/43/4 105/42/4 106/64/4
f 106/64/4 104/65/4 101/43/4
f 95/42/4 92/12/4 85/11/4
f 85/11/4 89/64/4 95/42/4
f 96/41/4 8/32/4 9/55/4
f 9/55/4 86/61/4 96/41/4
f 108/12/4 107/41/4 110/61/4
f 110/61/4 109/11/4 108/12/4
f 107/138/2 96/8/2 86/9/2
f 86/9/2 110/137/2 107/138/2
f 108/140/3 92/100/3 96/76/3
f 96/76/3 107/139/3 108/140/3
f 109/142/1 85/4/1 92/5/1
f 92/5/1 108/141/1 109/142/1
f 110/144/6 86/79/6 85/103/6
f 85/103/6 109/143/6 110/144/6
f 97/138/2 90/8/2 83/9/2
f 83/9/2 100/137/2 97/138/2
f 98/146/3 93/83/3 90/91/3
f 90/91/3 97/145/3 98/146/3
f 99/142/1 87/4/1 93/5/1
f 93/5/1 98/141/1 99/142/1
f 100/148/6 83/96/6 87/88/6
f 87/88/6 99/147/6 100/148/6
f 105/138/2 95/8/2 89/9/2
f 89/9/2 106/137/2 105/138/2
f 101/150/3 91/123/3 95/108/3
f 95/108/3 105/149/3 101/150/3
f 102/151/3 94/115/3 91/123/3
f 91/123/3 101/150/3 102/151/3
f 106/153/6 89/111/6 84/128/6
f 84/128/6 104/152/6 106/153/6
f 103/142/1 88/4/1 94/5/1
f 94/5/1 102/141/1 103/142/1
f 104/152/6 84/128/6 88/120/6
f 88/120/6 103/154/6 104/152/6

