# ProBuilder 4.4.0
# https://unity3d.com/unity/features/worldbuilding/probuilder
# 2020/12/11 22:05:38

mtllib ./Lift_Connector.mtl
o Lift_Connector

g Lift_Connector
v 2.375 -0.5 2.375
v -2.375 -0.5 2.375
v 2.375 0.5 2.375
v -2.375 0.5 2.375
v -2.375 -0.5 -2.375
v -2.375 0.5 -2.375
v 2.375 -0.5 -2.375
v 2.375 0.5 -2.375
v -2.551777 -0.6 2.551777
v -2.551777 0.6 2.551777
v -2.551777 -0.6 -2.551777
v -2.551777 0.6 -2.551777
v 2.551777 0.6 2.551777
v 2.551777 -0.6 -2.551777
v 2.551777 -0.6 2.551777
v 2.551777 0.6 -2.551777

vt -0.06249999 0.296875
vt -0.06250001 -0.296875
vt 0.06250001 0.296875
vt 0.06249999 -0.296875
vt -0.07500014 -0.3189721
vt 0.07499987 -0.3189721
vt -0.07500011 0.3189721
vt 0.0749999 0.3189721
vt -2.472212 0.2968749
vt -2.472212 -0.2968751
vt -2.4976 0.318972
vt -2.4976 -0.3189722
vt -0.02769377 2.118031
vt -0.02769375 2.711781
vt -0.002306012 2.095933
vt -0.002305984 2.733878
vt 2.332212 -0.2968751
vt 2.332212 0.2968749
vt 2.357599 -0.3189722
vt 2.357599 0.318972
vt -0.03069401 2.118031
vt -0.03069399 2.711781
vt -0.00530625 2.095933
vt -0.005306222 2.733878
vt -0.005306223 -2.118031
vt -0.005306249 -2.711781
vt -0.03069399 -2.095934
vt -0.03069402 -2.733878
vt 2.302212 -0.2968751
vt 2.302212 0.2968749
vt 2.3276 -0.3189722
vt 2.3276 0.318972
vt -0.002305985 -2.118031
vt -0.002306012 -2.711781
vt -0.02769375 -2.095934
vt -0.02769378 -2.733878
vt -2.502212 0.2968749
vt -2.502212 -0.2968751
vt -2.527599 0.318972
vt -2.527599 -0.3189722

vn 0 0 -1
vn 1 0 0
vn 0 0 1
vn -1 0 0
vn 0.4923657 -0.8703884 0
vn 0 0.8703882 -0.4923661
vn -0.4923661 -0.8703882 0
vn 0 -0.8703882 -0.4923661
vn 0 -0.8703884 0.4923657
vn 0.4923657 0.8703884 0
vn 0 0.8703884 0.4923657
vn -0.4923661 0.8703882 0

usemtl Metal_pattern_20-Lighter_2
f 2/2/1 4/4/1 3/3/1 1/1/1
f 5/2/2 6/4/2 4/3/2 2/1/2
f 7/2/3 8/4/3 6/3/3 5/1/3
f 8/3/4 7/1/4 1/2/4 3/4/4
f 9/5/4 10/6/4 12/8/4 11/7/4
f 9/11/5 11/12/5 5/10/5 2/9/5
f 10/15/6 13/16/6 3/14/6 4/13/6
f 14/19/7 15/20/7 1/18/7 7/17/7
f 15/23/8 9/24/8 2/22/8 1/21/8
f 11/27/9 14/28/9 7/26/9 5/25/9
f 12/31/10 10/32/10 4/30/10 6/29/10
f 16/35/11 12/36/11 6/34/11 8/33/11
f 13/39/12 16/40/12 8/38/12 3/37/12

