# ProBuilder 4.4.0
# https://unity3d.com/unity/features/worldbuilding/probuilder
# 2020/12/3 15:51:25

mtllib ./Tunnel1-V4.mtl
o Tunnel1-V4

g Tunnel1-V4
v 0.375 -0.5 2.25
v -0.375 -0.5 2.25
v 0.375 0.5 2.25
v -0.375 0.5 2.25
v -0.375 -0.5 -2.25
v 0.375 -0.5 -2.25
v -0.375 0.5 -2.25
v 0.375 0.5 -2.25
v -0.375 0 0.875
v 0.375 0 0.875
v 0.375 0 0
v 0.375 0 -0.875
v -0.375 0 -0.875
v -0.375 0 0
v -0.375 -0.5 -1.4375
v -0.375 -0.5 1.4375
v 0.375 -0.5 -1.4375
v 0.375 -0.5 1.4375
v -6.875 -0.5 2.25
v -7.625 -0.5 2.25
v -6.875 0.5 2.25
v -7.625 0.5 2.25
v -7.625 -0.5 -2.25
v -6.875 -0.5 -2.25
v -7.625 0.5 -2.25
v -6.875 0.5 -2.25
v -7.625 0 0.875
v -6.875 0 0.875
v -6.875 0 0
v -6.875 0 -0.875
v -7.625 0 -0.875
v -7.625 0 0
v -7.625 -0.5 -1.4375
v -7.625 -0.5 1.4375
v -6.875 -0.5 -1.4375
v -6.875 -0.5 1.4375
v -14.125 -0.5 2.25
v -14.875 -0.5 2.25
v -14.125 0.5 2.25
v -14.875 0.5 2.25
v -14.875 -0.5 -2.25
v -14.125 -0.5 -2.25
v -14.875 0.5 -2.25
v -14.125 0.5 -2.25
v -14.875 0 0.875
v -14.125 0 0.875
v -14.125 0 0
v -14.125 0 -0.875
v -14.875 0 -0.875
v -14.875 0 0
v -14.875 -0.5 -1.4375
v -14.875 -0.5 1.4375
v -14.125 -0.5 -1.4375
v -14.125 -0.5 1.4375
v -3.375 -0.5 2.25
v -4.125 -0.5 2.25
v -3.375 0.5 2.25
v -4.125 0.5 2.25
v -4.125 -0.5 -2.25
v -3.375 -0.5 -2.25
v -4.125 0.5 -2.25
v -3.375 0.5 -2.25
v -4.125 0 0.875
v -3.375 0 0.875
v -3.375 0 0
v -3.375 0 -0.875
v -4.125 0 -0.875
v -4.125 0 0
v -4.125 -0.5 -1.4375
v -4.125 -0.5 1.4375
v -3.375 -0.5 -1.4375
v -3.375 -0.5 1.4375
v -10.875 -0.5 2.25
v -11.625 -0.5 2.25
v -10.875 0.5 2.25
v -11.625 0.5 2.25
v -11.625 -0.5 -2.25
v -10.875 -0.5 -2.25
v -11.625 0.5 -2.25
v -10.875 0.5 -2.25
v -11.625 0 0.875
v -10.875 0 0.875
v -10.875 0 0
v -10.875 0 -0.875
v -11.625 0 -0.875
v -11.625 0 0
v -11.625 -0.5 -1.4375
v -11.625 -0.5 1.4375
v -10.875 -0.5 -1.4375
v -10.875 -0.5 1.4375
v 0.4000001 -0.5499997 -2.209
v -14.9 -0.5499997 -2.209
v 0.4000001 -0.5499997 2.291
v -14.9 -0.5499997 2.291
v -14.9 -4.987 -2.209
v 0.4000001 -4.987 -2.209
v -14.9 0.513 -2.209
v 0.4000001 0.513 -2.209
v 0.4000001 -4.987 -2.309
v -14.9 -4.987 -2.309
v 0.5 -4.987 -2.209
v 0.5 -4.987 -2.309
v -15 -4.987 -2.309
v -15 -4.987 -2.209
v 0.4000001 -4.987 -0.809
v 0.5 -4.987 -0.809
v -15 -4.987 -0.809
v -14.9 -4.987 -0.809
v -14.9 0.513 -0.809
v -14.9 -2.287 -0.809
v 0.4000001 0.513 -0.809
v 0.4000001 -2.287 -0.809
v 0.5 -2.287 -0.809
v -15 -2.287 -0.809
v -15 -2.287 0.0009999275
v -14.9 -2.287 0.0009999275
v -14.9 0.513 0.0009999275
v 0.4000001 0.513 0.0009999275
v 0.4000001 -2.287 0.0009999275
v 0.5 -2.287 0.0009999275
v -14.9 -4.987 2.209
v 0.4000001 -4.987 2.209
v -14.9 0.513 2.209
v 0.4000001 0.513 2.209
v 0.4000001 -4.987 2.309
v -14.9 -4.987 2.309
v 0.5 -4.987 2.209
v 0.5 -4.987 2.309
v -15 -4.987 2.309
v -15 -4.987 2.209
v 0.4000001 -4.987 0.809
v 0.5 -4.987 0.809
v -15 -4.987 0.809
v -14.9 -4.987 0.809
v -14.9 0.513 0.809
v -14.9 -2.287 0.809
v 0.4000001 0.513 0.809
v 0.4000001 -2.287 0.809
v 0.5 -2.287 0.809
v -15 -2.287 0.809
v -15 -2.287 -0.0009999275
v -14.9 -2.287 -0.0009999275
v -14.9 0.513 -0.0009999275
v 0.4000001 0.513 -0.0009999275
v 0.4000001 -2.287 -0.0009999275
v 0.5 -2.287 -0.0009999275
v 0.4000001 0.513 2.291
v -14.9 0.513 2.291

vt 0.825 4.4
vt 0.675 4.4
vt 0.825 4.6
vt 0.675 4.6
vt -0.075 0.1
vt 0.07500001 0.09999999
vt -0.07500001 -0.09999999
vt 0.075 -0.1
vt 0.675 4.675
vt 0.825 4.675
vt 0.825 4.5
vt 0.825 4.325
vt 0.675 4.325
vt 0.675 4.5
vt 2.7 2.35
vt 2.7 2.15
vt 2.425 2.25
vt 2.25 2.25
vt 2.075 2.25
vt 1.8 2.15
vt 1.8 2.35
vt 1.9625 2.15
vt 2.5375 2.15
vt -1.05 2.35
vt -1.05 2.15
vt -1.325 2.25
vt -1.5 2.25
vt -1.675 2.25
vt -1.95 2.15
vt -1.95 2.35
vt -1.2125 2.15
vt -1.7875 2.15
vt 0.825 2.575
vt 0.675 2.575
vt 0.675 2.7375
vt 0.825 2.7375
vt 0.665 2.711671
vt 0.6865445 2.860641
vt 0.835 2.839171
vt 0.8134555 2.690201
vt 0.8134555 5.002701
vt 0.665 5.024171
vt 0.6865445 5.173141
vt 0.835 5.151671
vt 0.675 6.2625
vt 0.675 6.425
vt 0.825 6.425
vt 0.825 6.2625
vt 0.07499981 0.09999999
vt -0.07499981 -0.09999999
vt 0.665 5.02417
vt 0.835 5.151672
vt 0.825 4.4
vt 0.675 4.4
vt 0.825 4.6
vt 0.675 4.6
vt -0.07500005 0.1
vt 0.07500005 -0.1
vt 0.675 4.675
vt 0.825 4.675
vt 0.825 4.5
vt 0.825 4.325
vt 0.675 4.325
vt 0.675 4.5
vt 0.825 2.575
vt 0.675 2.575
vt 0.675 2.7375
vt 0.825 2.7375
vt 0.675 6.2625
vt 0.675 6.425
vt 0.825 6.425
vt 0.825 6.2625
vt -1.125 -3.784
vt -1.125 3.866
vt 1.125 -3.784
vt 1.125 3.866
vt -9.28 2
vt -6.22 2
vt -9.28 3.1
vt -6.22 3.1
vt -6.22 -0.14
vt -9.28 -0.14
vt -6.22 -0.16
vt -9.28 -0.16
vt -0.06 -0.14
vt -0.06 -0.16
vt -0.04 -0.14
vt -0.04 -0.16
vt -15.44 -0.16
vt -15.44 -0.14
vt -15.46 -0.16
vt -15.46 -0.14
vt -0.06 0.46
vt -0.04 0.46
vt -0.06 0.74
vt -0.04 0.74
vt -15.46 0.46
vt -15.44 0.46
vt -15.46 0.74
vt -15.44 0.74
vt -0.66 2
vt -0.66 3.1
vt -0.94 2
vt -0.94 3.1
vt -0.94 2.54
vt 1.855637 3.099999
vt 1.855637 2
vt 2.135637 3.099999
vt 2.135637 2
vt 2.135637 2.539999
vt -0.06 1
vt -0.04 1
vt -0.04 1.54
vt -0.06 1.54
vt -15.46 1
vt -15.44 1
vt -15.44 1.54
vt -15.46 1.54
vt -15.46 1.624
vt -15.44 1.624
vt -15.46 1.786
vt -15.44 1.786
vt 2.4708 3.57
vt 2.4708 4.13
vt 2.3088 3.57
vt 2.3088 4.13
vt 2.1472 4.13
vt 2.1472 3.57
vt 2.3092 4.13
vt 2.3092 3.57
vt -0.06 1.624
vt -0.04 1.624
vt -0.06 1.786
vt -0.04 1.786
vt 9.28 2
vt 6.22 2
vt 9.28 3.1
vt 6.22 3.1
vt -6.22 4.358
vt -9.28 4.358
vt -6.22 4.378
vt -9.28 4.378
vt -0.05999999 4.358
vt -0.05999999 4.378
vt -0.04000001 4.358
vt -0.04000001 4.378
vt -15.44 4.378
vt -15.44 4.358
vt -15.46 4.378
vt -15.46 4.358
vt -0.05999999 3.758
vt -0.04000001 3.758
vt -0.05999999 3.478
vt -0.04000001 3.478
vt -15.46 3.758
vt -15.44 3.758
vt -15.46 3.478
vt -15.44 3.478
vt -1.949 2
vt -1.949 3.1
vt -1.669 2
vt -1.669 3.1
vt -1.669 2.54
vt -0.6599998 3.1
vt -0.6599998 2
vt -0.9400001 3.1
vt -0.9400001 2
vt -0.9400001 2.54
vt 0.00999999 1
vt -0.00999999 1
vt -0.00999999 1.54
vt 0.00999999 1.54
vt 0.01000023 1
vt -0.01000023 1
vt -0.01000023 1.54
vt 0.01000023 1.54
vt -15.46 2.594
vt -15.44 2.594
vt -15.46 2.432
vt -15.44 2.432
vt -0.05999999 2.594
vt -0.04000001 2.594
vt -0.05999999 2.432
vt -0.04000001 2.432
vt -6.22 1.7
vt -9.28 1.7
vt -6.22 2.6
vt -9.28 2.6

vn 0 0 1
vn 0 0 -1
vn 0 -1 0
vn -1 0 0
vn 1 0 0
vn 0 -0.7474093 0.6643639
vn 0 -0.7474093 -0.6643639

usemtl OfficeWallTexture-Pure
f 16/23/4 2/16/4 4/15/4
f 9/17/4 16/23/4 4/15/4
f 14/18/4 9/17/4 4/15/4
f 7/21/4 5/20/4 15/22/4
f 7/21/4 15/22/4 13/19/4
f 7/21/4 13/19/4 14/18/4
f 14/18/4 4/15/4 7/21/4
f 17/31/5 6/25/5 8/24/5
f 12/26/5 17/31/5 8/24/5
f 11/27/5 12/26/5 8/24/5
f 3/30/5 1/29/5 18/32/5
f 3/30/5 18/32/5 10/28/5
f 3/30/5 10/28/5 11/27/5
f 11/27/5 8/24/5 3/30/5
f 9/9/3 14/14/3 10/10/3
f 14/14/3 11/11/3 10/10/3
f 14/14/3 13/13/3 11/11/3
f 13/13/3 12/12/3 11/11/3
f 34/23/4 20/16/4 22/15/4
f 27/17/4 34/23/4 22/15/4
f 32/18/4 27/17/4 22/15/4
f 25/21/4 23/20/4 33/22/4
f 25/21/4 33/22/4 31/19/4
f 25/21/4 31/19/4 32/18/4
f 32/18/4 22/15/4 25/21/4
f 35/31/5 24/25/5 26/24/5
f 30/26/5 35/31/5 26/24/5
f 29/27/5 30/26/5 26/24/5
f 21/30/5 19/29/5 36/32/5
f 21/30/5 36/32/5 28/28/5
f 21/30/5 28/28/5 29/27/5
f 29/27/5 26/24/5 21/30/5
f 27/9/3 32/14/3 28/10/3
f 32/14/3 29/11/3 28/10/3
f 32/14/3 31/13/3 29/11/3
f 31/13/3 30/12/3 29/11/3
f 52/23/4 38/16/4 40/15/4
f 45/17/4 52/23/4 40/15/4
f 50/18/4 45/17/4 40/15/4
f 43/21/4 41/20/4 51/22/4
f 43/21/4 51/22/4 49/19/4
f 43/21/4 49/19/4 50/18/4
f 50/18/4 40/15/4 43/21/4
f 53/31/5 42/25/5 44/24/5
f 48/26/5 53/31/5 44/24/5
f 47/27/5 48/26/5 44/24/5
f 39/30/5 37/29/5 54/32/5
f 39/30/5 54/32/5 46/28/5
f 39/30/5 46/28/5 47/27/5
f 47/27/5 44/24/5 39/30/5
f 45/9/3 50/14/3 46/10/3
f 50/14/3 47/11/3 46/10/3
f 50/14/3 49/13/3 47/11/3
f 49/13/3 48/12/3 47/11/3
f 70/23/4 56/16/4 58/15/4
f 63/17/4 70/23/4 58/15/4
f 68/18/4 63/17/4 58/15/4
f 61/21/4 59/20/4 69/22/4
f 61/21/4 69/22/4 67/19/4
f 61/21/4 67/19/4 68/18/4
f 68/18/4 58/15/4 61/21/4
f 71/31/5 60/25/5 62/24/5
f 66/26/5 71/31/5 62/24/5
f 65/27/5 66/26/5 62/24/5
f 57/30/5 55/29/5 72/32/5
f 57/30/5 72/32/5 64/28/5
f 57/30/5 64/28/5 65/27/5
f 65/27/5 62/24/5 57/30/5
f 63/59/3 68/64/3 64/60/3
f 68/64/3 65/61/3 64/60/3
f 68/64/3 67/63/3 65/61/3
f 67/63/3 66/62/3 65/61/3
f 88/23/4 74/16/4 76/15/4
f 81/17/4 88/23/4 76/15/4
f 86/18/4 81/17/4 76/15/4
f 79/21/4 77/20/4 87/22/4
f 79/21/4 87/22/4 85/19/4
f 79/21/4 85/19/4 86/18/4
f 86/18/4 76/15/4 79/21/4
f 89/31/5 78/25/5 80/24/5
f 84/26/5 89/31/5 80/24/5
f 83/27/5 84/26/5 80/24/5
f 75/30/5 73/29/5 90/32/5
f 75/30/5 90/32/5 82/28/5
f 75/30/5 82/28/5 83/27/5
f 83/27/5 80/24/5 75/30/5
f 81/9/3 86/14/3 82/10/3
f 86/14/3 83/11/3 82/10/3
f 86/14/3 85/13/3 83/11/3
f 85/13/3 84/12/3 83/11/3
f 4/4/1 2/2/1 1/1/1
f 1/1/1 3/3/1 4/4/1
f 8/8/2 6/6/2 5/5/2
f 5/5/2 7/7/2 8/8/2
f 17/36/3 15/35/3 5/34/3
f 5/34/3 6/33/3 17/36/3
f 12/39/6 13/38/6 15/37/6
f 15/37/6 17/40/6 12/39/6
f 18/44/7 16/43/7 9/42/7
f 9/42/7 10/41/7 18/44/7
f 1/47/3 2/46/3 16/45/3
f 16/45/3 18/48/3 1/47/3
f 22/4/1 20/2/1 19/1/1
f 19/1/1 21/3/1 22/4/1
f 26/8/2 24/49/2 23/5/2
f 23/5/2 25/50/2 26/8/2
f 35/36/3 33/35/3 23/34/3
f 23/34/3 24/33/3 35/36/3
f 30/39/6 31/38/6 33/37/6
f 33/37/6 35/40/6 30/39/6
f 36/52/7 34/43/7 27/51/7
f 27/51/7 28/41/7 36/52/7
f 19/47/3 20/46/3 34/45/3
f 34/45/3 36/48/3 19/47/3
f 40/4/1 38/2/1 37/1/1
f 37/1/1 39/3/1 40/4/1
f 44/8/2 42/49/2 41/5/2
f 41/5/2 43/50/2 44/8/2
f 53/36/3 51/35/3 41/34/3
f 41/34/3 42/33/3 53/36/3
f 48/39/6 49/38/6 51/37/6
f 51/37/6 53/40/6 48/39/6
f 54/52/7 52/43/7 45/51/7
f 45/51/7 46/41/7 54/52/7
f 37/47/3 38/46/3 52/45/3
f 52/45/3 54/48/3 37/47/3
f 58/56/1 56/54/1 55/53/1
f 55/53/1 57/55/1 58/56/1
f 62/58/2 60/6/2 59/57/2
f 59/57/2 61/7/2 62/58/2
f 71/68/3 69/67/3 59/66/3
f 59/66/3 60/65/3 71/68/3
f 66/39/6 67/38/6 69/37/6
f 69/37/6 71/40/6 66/39/6
f 72/52/7 70/43/7 63/51/7
f 63/51/7 64/41/7 72/52/7
f 55/71/3 56/70/3 70/69/3
f 70/69/3 72/72/3 55/71/3
f 76/4/1 74/2/1 73/1/1
f 73/1/1 75/3/1 76/4/1
f 80/8/2 78/49/2 77/5/2
f 77/5/2 79/50/2 80/8/2
f 89/36/3 87/35/3 77/34/3
f 77/34/3 78/33/3 89/36/3
f 84/39/6 85/38/6 87/37/6
f 87/37/6 89/40/6 84/39/6
f 90/52/7 88/43/7 81/51/7
f 81/51/7 82/41/7 90/52/7
f 73/47/3 74/46/3 88/45/3
f 88/45/3 90/48/3 73/47/3
f 148/188/3 97/186/3 98/185/3
f 98/185/3 147/187/3 148/188/3

usemtl Metal_pattern_06
f 93/75/3 94/76/3 92/74/3 91/73/3

usemtl OfficeWallTexture
f 112/110/4 111/108/4 98/106/4
f 96/107/4 112/110/4 98/106/4
f 96/107/4 105/109/4 112/110/4
f 109/104/5 110/105/5 97/102/5
f 110/105/5 95/101/5 97/102/5
f 110/105/5 108/103/5 95/101/5
f 138/168/4 131/167/4 122/165/4
f 124/164/4 138/168/4 122/165/4
f 124/164/4 137/166/4 138/168/4
f 121/159/5 134/161/5 136/163/5
f 123/160/5 121/159/5 136/163/5
f 123/160/5 136/163/5 135/162/5
f 112/128/4 119/130/4 118/129/4
f 111/127/4 112/128/4 118/129/4
f 144/126/4 138/123/4 137/124/4
f 144/126/4 145/125/4 138/123/4
f 142/130/5 135/127/5 136/128/5
f 142/130/5 143/129/5 135/127/5
f 109/124/5 117/126/5 116/125/5
f 110/123/5 109/124/5 116/125/5
f 96/78/1 98/80/1 97/79/1
f 97/79/1 95/77/1 96/78/1
f 95/82/3 100/84/3 99/83/3
f 99/83/3 96/81/3 95/82/3
f 99/86/3 102/88/3 101/87/3
f 101/87/3 96/85/3 99/86/3
f 95/90/3 104/92/3 103/91/3
f 103/91/3 100/89/3 95/90/3
f 101/94/3 106/96/3 105/95/3
f 105/95/3 96/93/3 101/94/3
f 95/98/3 108/100/3 107/99/3
f 107/99/3 104/97/3 95/98/3
f 112/114/1 105/111/1 106/112/1
f 106/112/1 113/113/1 112/114/1
f 114/118/1 107/115/1 108/116/1
f 108/116/1 110/117/1 114/118/1
f 110/120/3 116/122/3 115/121/3
f 115/121/3 114/119/3 110/120/3
f 113/132/3 120/134/3 119/133/3
f 119/133/3 112/131/3 113/132/3
f 124/138/2 122/136/2 121/135/2
f 121/135/2 123/137/2 124/138/2
f 126/142/3 121/140/3 122/139/3
f 122/139/3 125/141/3 126/142/3
f 128/146/3 125/144/3 122/143/3
f 122/143/3 127/145/3 128/146/3
f 130/150/3 121/148/3 126/147/3
f 126/147/3 129/149/3 130/150/3
f 132/154/3 127/152/3 122/151/3
f 122/151/3 131/153/3 132/154/3
f 134/158/3 121/156/3 130/155/3
f 130/155/3 133/157/3 134/158/3
f 138/172/2 139/171/2 132/170/2
f 132/170/2 131/169/2 138/172/2
f 133/173/2 140/176/2 136/175/2
f 136/175/2 134/174/2 133/173/2
f 142/180/3 136/178/3 140/177/3
f 140/177/3 141/179/3 142/180/3
f 146/184/3 139/182/3 138/181/3
f 138/181/3 145/183/3 146/184/3

