# ProBuilder 4.4.0
# https://unity3d.com/unity/features/worldbuilding/probuilder
# 2020/11/20 22:12:45

mtllib ./Lamp.V3.mtl
o Lamp.V3

g Lamp.V3
v 0.5207106 -0.05 0.5207106
v -0.5207106 -0.05 0.5207106
v 0.5207106 0.05 0.5207106
v -0.5207106 0.05 0.5207106
v -0.5207106 -0.05 -0.5207106
v -0.5207106 0.05 -0.5207106
v 0.5207106 -0.05 -0.5207106
v 0.5207106 0.05 -0.5207106
v 0.45 0.05 0.45
v -0.45 0.05 0.45
v 0.45 0.05 -0.45
v -0.45 0.05 -0.45
v 0.45 -0.05 -0.45
v -0.45 -0.05 -0.45
v 0.45 -0.05 0.45
v -0.45 -0.05 0.45

vt 0.5207106 -0.05
vt -0.5207106 -0.05
vt 0.5207106 0.05
vt -0.5207106 0.05
vt -0.45 0.45
vt 0.45 0.45
vt -0.45 -0.45
vt 0.45 -0.45
vt -0.5207106 0.5207106
vt -0.5207106 -0.5207106
vt 0.5207106 0.5207106
vt 0.5207106 -0.5207106

vn 0 0 1
vn -1 0 0
vn 0 0 -1
vn 1 0 0
vn 0 1 0
vn 0 -1 0

usemtl Metal_pattern_30
f 3/3/1 4/4/1 2/2/1 1/1/1
f 4/3/2 6/4/2 5/2/2 2/1/2
f 6/3/3 8/4/3 7/2/3 5/1/3
f 8/3/4 3/4/4 1/2/4 7/1/4
f 11/7/5 12/8/5 10/6/5 9/5/5
f 2/9/6 5/10/6 14/7/6 16/5/6
f 4/11/5 3/9/5 9/5/5 10/6/5
f 6/12/5 4/11/5 10/6/5 12/8/5
f 5/10/6 7/12/6 13/8/6 14/7/6
f 8/10/5 6/12/5 12/8/5 11/7/5
f 7/12/6 1/11/6 15/6/6 13/8/6
f 3/9/5 8/10/5 11/7/5 9/5/5
f 1/11/6 2/9/6 16/5/6 15/6/6

usemtl SCP-M-Lamp-Light
f 15/6/6 16/5/6 14/7/6 13/8/6

