# ProBuilder 4.4.0
# https://unity3d.com/unity/features/worldbuilding/probuilder
# 2021/1/6 18:01:09

mtllib ./SteelCable.mtl
o SteelCable

g SteelCable
v -0.06 -9.75 0
v -0.06 9.75 0
v -0.05196152 -9.75 0.03
v -0.05196152 9.75 0.03
v -0.03 -9.75 0.05196153
v -0.03 9.75 0.05196153
v 2.622683E-09 -9.75 0.06
v 2.622683E-09 9.75 0.06
v 0.03 -9.75 0.05196152
v 0.03 9.75 0.05196152
v 0.05196152 -9.75 0.03
v 0.05196152 9.75 0.03
v 0.06 -9.75 -5.245366E-09
v 0.06 9.75 -5.245366E-09
v 0.05196152 -9.75 -0.03
v 0.05196152 9.75 -0.03
v 0.02999999 -9.75 -0.05196153
v 0.02999999 9.75 -0.05196153
v -7.154928E-10 -9.75 -0.06
v -7.154928E-10 9.75 -0.06
v -0.02999999 -9.75 -0.05196153
v -0.02999999 9.75 -0.05196153
v -0.05196152 -9.75 -0.03000001
v -0.05196152 9.75 -0.03000001
v 0 -9.75 0
v 0 9.75 0

vt -0.01552914 -9.75
vt -0.01552914 9.75
vt 0.01552914 -9.75
vt 0.01552914 9.75
vt -0.06 0
vt 0 0
vt -0.05196152 0.03
vt 0.06 0
vt 0.05196152 0.03
vt -0.03 0.05196153
vt 0.03 0.05196153
vt 2.622683E-09 0.06
vt 0.03 0.05196152
vt -0.03 0.05196152
vt 0.05196152 0.03
vt -0.05196152 0.03
vt 0.05196152 -0.03
vt -0.05196152 -0.03
vt 0.02999999 -0.05196153
vt -0.02999999 -0.05196153
vt -7.154928E-10 -0.06
vt -0.05196152 -0.03000001
vt 0.05196152 -0.03000001

vn -1 0 0
vn -0.8660254 0 0.5
vn -0.5 0 0.8660254
vn 3.085363E-08 0 1
vn 0.5 0 0.8660254
vn 0.8660254 0 0.5
vn 1 0 -6.170727E-08
vn 0.8660254 0 -0.5000001
vn 0.5 0 -0.8660254
vn 0 0 -1
vn -0.4999999 0 -0.8660254
vn -0.8660253 0 -0.5000001
vn 0 -1 0
vn 0 1 0

usemtl Metal_pattern_22_Para_1
f 1/5/13 25/6/13 3/7/13
f 3/7/13 25/6/13 5/10/13
f 5/10/13 25/6/13 7/12/13
f 7/12/13 25/6/13 9/13/13
f 9/13/13 25/6/13 11/15/13
f 11/15/13 25/6/13 13/8/13
f 13/8/13 25/6/13 15/17/13
f 15/17/13 25/6/13 17/19/13
f 17/19/13 25/6/13 19/21/13
f 19/21/13 25/6/13 21/20/13
f 21/20/13 25/6/13 23/22/13
f 23/22/13 25/6/13 1/5/13
f 4/9/14 26/6/14 2/8/14
f 6/11/14 26/6/14 4/9/14
f 8/12/14 26/6/14 6/11/14
f 10/14/14 26/6/14 8/12/14
f 12/16/14 26/6/14 10/14/14
f 14/5/14 26/6/14 12/16/14
f 16/18/14 26/6/14 14/5/14
f 18/20/14 26/6/14 16/18/14
f 20/21/14 26/6/14 18/20/14
f 22/19/14 26/6/14 20/21/14
f 24/23/14 26/6/14 22/19/14
f 2/8/14 26/6/14 24/23/14
f 4/4/2 2/2/1 1/1/1
f 1/1/1 3/3/2 4/4/2
f 6/4/3 4/2/2 3/1/2
f 3/1/2 5/3/3 6/4/3
f 8/4/4 6/2/3 5/1/3
f 5/1/3 7/3/4 8/4/4
f 10/4/5 8/2/4 7/1/4
f 7/1/4 9/3/5 10/4/5
f 12/4/6 10/2/5 9/1/5
f 9/1/5 11/3/6 12/4/6
f 14/4/7 12/2/6 11/1/6
f 11/1/6 13/3/7 14/4/7
f 16/4/8 14/2/7 13/1/7
f 13/1/7 15/3/8 16/4/8
f 18/4/9 16/2/8 15/1/8
f 15/1/8 17/3/9 18/4/9
f 20/4/10 18/2/9 17/1/9
f 17/1/9 19/3/10 20/4/10
f 22/4/11 20/2/10 19/1/10
f 19/1/10 21/3/11 22/4/11
f 24/4/12 22/2/11 21/1/11
f 21/1/11 23/3/12 24/4/12
f 2/4/1 24/2/12 23/1/12
f 23/1/12 1/3/1 2/4/1

