# ProBuilder 4.4.0
# https://unity3d.com/unity/features/worldbuilding/probuilder
# 2021/1/14 1:10:13

mtllib ./Hall01_Remake.mtl
o Hall01_Remake

g Hall01_Remake
v 7.75 0.125 -7.75
v -7.75 0.125 -7.75
v 7.75 5.625 -7.75
v -7.75 5.625 -7.75
v -7.75 0.125 7.75
v 7.75 0.125 7.75
v -7.75 5.625 7.75
v 7.75 5.625 7.75
v -7.75 5.625 0.875
v -7.75 0.125 0.875
v -7.75 2.875 0.875
v -7.75 0.125 -1.375
v -7.75 5.625 -1.375
v -7.75 2.875 -1.375
v -7.75 5.625 0
v 7.75 0.125 0
v -7.75 0.125 0
v 7.75 0.125 -1.375
v 7.75 0.125 0.875
v 7.75 5.625 0.875
v 7.75 2.875 0.875
v 7.75 5.625 -1.375
v 7.75 2.875 -1.375
v 7.75 5.625 0

vt 9.3 1.975
vt 6.2 1.975
vt 9.3 3.075
vt 6.2 3.075
vt 4.125 3.075
vt 2.75 1.975
vt 2.75 3.075
vt 4.125 1.975
vt 4.125 2.525
vt 12.95 3.075
vt 11.675 1.975
vt 11.675 3.075
vt 12.95 1.975
vt 11.675 2.525
vt 8.225 4.175
vt 8.225 3.625
vt 7.775 3.625
vt 7.775 4.175
vt 7.95 4.175
vt 7.75 -1.375
vt 7.75 -7.75
vt -7.75 -7.75
vt -7.75 0
vt 7.75 0
vt 7.75 0.875
vt -7.75 7.75
vt 7.75 7.75
vt -7.75 -1.375
vt -7.75 0.875
vt 12.75 1.975
vt 11.375 1.975
vt 11.375 3.075
vt 12.75 3.075
vt 11.375 2.525
vt 3.825 1.975
vt 2.55 1.975
vt 2.55 3.075
vt 3.825 3.075
vt 3.825 2.525
vt 7.725 4.175
vt 7.725 3.625
vt 7.275 3.625
vt 7.275 4.175
vt 7.55 4.175

vn 0 0 1
vn 0 0 -1
vn 1 0 0
vn 0 1 0
vn -1 0 0
vn 0 -1 0

usemtl SCP-OZ-Floor
f 18/28/4 1/22/4 2/21/4
f 18/28/4 2/21/4 12/20/4
f 16/23/4 18/28/4 12/20/4
f 16/23/4 12/20/4 17/24/4
f 16/23/4 17/24/4 10/25/4
f 19/29/4 16/23/4 10/25/4
f 5/27/4 19/29/4 10/25/4
f 5/27/4 6/26/4 19/29/4

usemtl OfficeWallTexture
f 5/6/3 10/8/3 11/9/3
f 7/7/3 5/6/3 11/9/3
f 7/7/3 11/9/3 9/5/3
f 14/14/3 12/11/3 2/13/3
f 4/10/3 14/14/3 2/13/3
f 4/10/3 13/12/3 14/14/3
f 1/36/5 18/35/5 23/39/5
f 3/37/5 1/36/5 23/39/5
f 3/37/5 23/39/5 22/38/5
f 21/34/5 19/31/5 6/30/5
f 8/33/5 21/34/5 6/30/5
f 8/33/5 20/32/5 21/34/5
f 4/4/1 2/2/1 1/1/1
f 1/1/1 3/3/1 4/4/1
f 8/4/2 6/2/2 5/1/2
f 5/1/2 7/3/2 8/4/2

usemtl OfficeWallTexture-Pure
f 14/16/3 13/15/3 15/19/3
f 14/16/3 15/19/3 11/17/3
f 9/18/3 11/17/3 15/19/3
f 24/44/5 21/41/5 20/40/5
f 21/41/5 24/44/5 23/42/5
f 24/44/5 22/43/5 23/42/5
f 8/27/6 7/26/6 4/22/6
f 4/22/6 3/21/6 8/27/6

