# ProBuilder 4.4.0
# https://unity3d.com/unity/features/worldbuilding/probuilder
# 2021/6/2 20:22:14

mtllib ./Access_Card_Machine.mtl
o Access Card Machine

g Access Card Machine
v 0.00625 -0.145 0.125
v -0.01875 -0.145 0.125
v 0.00625 0.145 0.125
v -0.01875 0.145 0.125
v -0.01875 -0.145 -0.075
v -0.01875 0.145 -0.075
v -0.01875 -0.12 -0.1125
v -0.00625 -0.12 -0.1125
v -0.01875 0.12 -0.1125
v -0.00625 0.12 -0.1125
v 0.00625 -0.145 -0.075
v 0.00625 0.145 -0.075
v 0.00625 0.1575 0.125
v -0.01875 0.1575 0.125
v 0.00625 0.1575 -0.075
v -0.01875 0.1575 -0.075
v 0.00625 -0.1575 -0.075
v -0.01875 -0.1575 -0.075
v 0.00625 -0.1575 0.125
v -0.01875 -0.1575 0.125
v 0.01875 0.145 -0.075
v 0.01875 0.145 0.125
v 0.01875 0.1575 -0.075
v 0.01875 0.1575 0.125
v -0.01875 0.145 -0.08749999
v -0.01875 -0.145 -0.08749999
v 0.01875 -0.145 -0.075
v 0.01875 -0.145 -0.08749999
v 0.01875 0.145 -0.08749999
v 0.01875 -0.145 0.125
v 0.01875 -0.1575 0.125
v 0.01875 -0.1575 -0.075
v 0.00625 -0.145 -0.08749999
v 0.00625 0.145 -0.08749999

vt 0.07936509 0.03968251
vt 0 0.03968251
vt 0.07936509 0.9603175
vt 0 0.9603175
vt 0.7936508 0.03968251
vt 0.1587301 0.03968251
vt 0.7936508 0.9603175
vt 0.1587301 0.9603175
vt 0.1190476 0.1190476
vt 0.07936508 0.1190476
vt 0.1190476 0.8809523
vt 0.07936508 0.8809523
vt 0.6815099 0.09488934
vt 0.1315098 0.09488934
vt 0.6815099 0.8923893
vt 0.1315098 0.8923893
vt 0.03968254 0.7142857
vt 0.1190476 0.7142857
vt 0.03968254 0.07936507
vt 0.1190476 0.07936507
vt 0.07936509 0.07936507
vt 0 0.07936507
vt 0.07936509 0.7142857
vt 0 0.7142857
vt 0.07936509 1
vt 0 1
vt 0.6349207 0.9603175
vt 0.6349207 1
vt 0.7936508 1
vt 0.1587301 1
vt 0.1451389 0.9603175
vt 0.1451389 0.03968251
vt 0.1054564 0.9603175
vt 0.1054564 0.03968251
vt 0.6485119 0.03968251
vt 0.6485119 0.9603175
vt 0.6881944 0.03968251
vt 0.6881944 0.9603175
vt 0.6349207 0.03968257
vt 0 1.490116E-08
vt 0.6349207 1.490116E-08
vt 0.1587301 1.490116E-08
vt 0.7936508 1.490116E-08
vt 0.07936509 1.490116E-08
vt 0.6485119 1.490116E-08
vt 0.1451389 1.490116E-08
vt 0.09541886 0.0248928
vt 0.01189027 0.02954775
vt 0.008946221 -0.02328034
vt 0.09247482 -0.0279353
vt 0.6485119 1
vt 0.1451389 1
vt 0.03612877 0.07571483
vt 0.1196574 0.07105987
vt 0.1226014 0.123888
vt 0.03907282 0.1285429
vt 0.1190476 1.490116E-08
vt 0.1190476 0.03968257
vt 0.03968254 0.03968257
vt 0.03968254 1.490116E-08
vt 0.03968254 0.06577379
vt 0.03968254 0.02609128
vt 0 0.06577379
vt 0 0.02609128
vt 0.09404763 0.02590365
vt 0.09404763 -0.0242912
vt 0.05436508 0.02590365
vt 0.05436508 -0.0242912
vt 0.1190476 0.9603175
vt 0.07936508 0.02609128
vt 0.07936508 0.06577379
vt 0.1190476 0.02609128
vt 0.1190476 0.06577379
vt 0.03968254 0.9603175
vt 0.1190476 1
vt 0.03968254 0.1248988
vt 0.03968254 0.07470395
vt 0 0.1248988
vt 0 0.07470395
vt 0.03968254 1
vt 0.1190476 0.03084371
vt 0.03968254 0.03084371
vt 0.1190476 0.1102088
vt 0.07936509 0.1102088
vt 0.09186511 0.9603175
vt 0.09186511 0.03968251
vt 0.0125 0.8809524
vt 0.0125 0.1190476
vt 0.8023855 0.03968251
vt 0.8023855 0.9603175
vt 0.8817506 0.1190476
vt 0.8817506 0.8809524
vt 0.03968254 0.9691563
vt 0.1190476 0.9691563
vt 0.07936509 0.8897911
vt 0.1190476 0.8897911

vn 0 0 1
vn -1 0 0
vn 0 0 -1
vn 1 0 0
vn 0 1 0
vn 0 -1 0
vn 0 -0.7071064 -0.7071072
vn 0 0.7071064 -0.7071072
vn 0.8944272 0 -0.4472135

usemtl Access_Card_Machine_MAt_1
f 12/15/4 3/16/4 1/14/4 11/13/4

usemtl Shell
f 28/37/4 27/35/4 32/45/4
f 26/34/2 18/46/2 5/32/2
f 29/38/4 23/51/4 21/36/4
f 25/33/2 6/31/2 16/52/2
f 4/4/1 2/2/1 1/1/1
f 1/1/1 3/3/1 4/4/1
f 6/8/2 5/6/2 2/5/2
f 2/5/2 4/7/2 6/8/2
f 10/12/3 8/10/3 7/9/3
f 7/9/3 9/11/3 10/12/3
f 16/20/5 14/18/5 13/17/5
f 13/17/5 15/19/5 16/20/5
f 20/24/6 18/22/6 17/21/6
f 17/21/6 19/23/6 20/24/6
f 14/26/1 4/4/1 3/3/1
f 3/3/1 13/25/1 14/26/1
f 24/26/4 22/4/4 21/27/4
f 21/27/4 23/28/4 24/26/4
f 16/30/2 6/8/2 4/7/2
f 4/7/2 14/29/2 16/30/2
f 26/34/2 5/32/2 6/31/2
f 6/31/2 25/33/2 26/34/2
f 29/38/4 21/36/4 27/35/4
f 27/35/4 28/37/4 29/38/4
f 32/41/4 27/39/4 30/2/4
f 30/2/4 31/40/4 32/41/4
f 20/43/2 2/5/2 5/6/2
f 5/6/2 18/42/2 20/43/2
f 19/44/1 1/1/1 2/2/1
f 2/2/1 20/40/1 19/44/1
f 26/47/7 33/48/7 17/49/7
f 17/49/7 18/50/7 26/47/7
f 16/55/8 15/56/8 34/53/8
f 34/53/8 25/54/8 16/55/8
f 27/22/5 11/19/5 1/17/5
f 1/17/5 30/24/5 27/22/5
f 30/58/1 1/1/1 19/44/1
f 19/44/1 31/57/1 30/58/1
f 32/40/3 17/60/3 11/59/3
f 11/59/3 27/2/3 32/40/3
f 31/18/6 19/23/6 17/21/6
f 17/21/6 32/20/6 31/18/6
f 27/58/1 11/1/1 17/44/1
f 17/44/1 32/57/1 27/58/1
f 28/64/5 33/62/5 11/61/5
f 11/61/5 27/63/5 28/64/5
f 32/68/7 17/66/7 33/65/7
f 33/65/7 28/67/7 32/68/7
f 21/69/1 12/3/1 11/1/1
f 11/1/1 27/58/1 21/69/1
f 27/73/6 11/71/6 33/70/6
f 33/70/6 28/72/6 27/73/6
f 29/64/5 34/62/5 12/61/5
f 12/61/5 21/63/5 29/64/5
f 28/2/3 33/59/3 34/74/3
f 34/74/3 29/4/3 28/2/3
f 23/75/1 15/25/1 12/3/1
f 12/3/1 21/69/1 23/75/1
f 29/79/8 34/77/8 15/76/8
f 15/76/8 23/78/8 29/79/8
f 21/73/6 12/71/6 34/70/6
f 34/70/6 29/72/6 21/73/6
f 22/18/6 3/23/6 12/21/6
f 12/21/6 21/20/6 22/18/6
f 21/4/3 12/74/3 15/80/3
f 15/80/3 23/26/3 21/4/3
f 24/75/1 13/25/1 3/3/1
f 3/3/1 22/69/1 24/75/1
f 23/22/5 15/19/5 13/17/5
f 13/17/5 24/24/5 23/22/5
f 8/84/7 33/82/7 26/81/7
f 26/81/7 7/83/7 8/84/7
f 7/88/2 26/86/2 25/85/2
f 25/85/2 9/87/2 7/88/2
f 10/92/9 34/90/9 33/89/9
f 33/89/9 8/91/9 10/92/9
f 9/96/8 25/94/8 34/93/8
f 34/93/8 10/95/8 9/96/8

