# ProBuilder 4.4.0
# https://unity3d.com/unity/features/worldbuilding/probuilder
# 2021/6/23 1:22:57

mtllib ./AD-2-Base.mtl
o AD-2-Base

g AD-2-Base
v -0.5 -0.025 0
v -0.5 0.025 0
v -0.4330127 -0.025 0.25
v -0.4330127 0.025 0.25
v -0.25 -0.025 0.4330127
v -0.25 0.025 0.4330127
v 2.185569E-08 -0.025 0.5
v 2.185569E-08 0.025 0.5
v 0.25 -0.025 0.4330127
v 0.25 0.025 0.4330127
v 0.4330127 -0.025 0.25
v 0.4330127 0.025 0.25
v 0.5 -0.025 -4.371139E-08
v 0.5 0.025 -4.371139E-08
v 0.4330127 -0.025 -0.25
v 0.4330127 0.025 -0.25
v 0.25 -0.025 -0.4330127
v 0.25 0.025 -0.4330127
v -5.96244E-09 -0.025 -0.5
v -5.96244E-09 0.025 -0.5
v -0.25 -0.025 -0.4330127
v -0.25 0.025 -0.4330127
v -0.4330127 -0.025 -0.2500001
v -0.4330127 0.025 -0.2500001
v 0 -0.025 0
v 0 0.025 0

vt -0.1294095 -0.025
vt -0.1294095 0.025
vt 0.1294095 -0.025
vt 0.1294095 0.025
vt -0.5 0
vt 0 0
vt -0.4330127 0.25
vt 0.5 0
vt 0.4330127 0.25
vt -0.25 0.4330127
vt 0.25 0.4330127
vt 2.185569E-08 0.5
vt 0.25 0.4330127
vt -0.25 0.4330127
vt 0.4330127 -0.25
vt -0.4330127 -0.25
vt 0.25 -0.4330127
vt -0.25 -0.4330127
vt -5.96244E-09 -0.5
vt -0.4330127 -0.2500001
vt 0.4330127 -0.2500001

vn -1 0 -1.542682E-08
vn -0.8660254 0 0.5
vn -0.5 0 0.8660254
vn 4.628045E-08 0 1
vn 0.5 0 0.8660254
vn 0.8660254 0 0.5
vn 1 0 -6.170727E-08
vn 0.8660254 0 -0.5000001
vn 0.5 0 -0.8660254
vn 0 0 -1
vn -0.4999999 0 -0.8660254
vn -0.8660253 0 -0.5000001
vn 0 -1 0
vn 0 1 0

usemtl Material0
f 1/5/13 25/6/13 3/7/13
f 3/7/13 25/6/13 5/10/13
f 5/10/13 25/6/13 7/12/13
f 7/12/13 25/6/13 9/13/13
f 9/13/13 25/6/13 11/9/13
f 11/9/13 25/6/13 13/8/13
f 13/8/13 25/6/13 15/15/13
f 15/15/13 25/6/13 17/17/13
f 17/17/13 25/6/13 19/19/13
f 19/19/13 25/6/13 21/18/13
f 21/18/13 25/6/13 23/20/13
f 23/20/13 25/6/13 1/5/13
f 4/9/14 26/6/14 2/8/14
f 6/11/14 26/6/14 4/9/14
f 8/12/14 26/6/14 6/11/14
f 10/14/14 26/6/14 8/12/14
f 12/7/14 26/6/14 10/14/14
f 14/5/14 26/6/14 12/7/14
f 16/16/14 26/6/14 14/5/14
f 18/18/14 26/6/14 16/16/14
f 20/19/14 26/6/14 18/18/14
f 22/17/14 26/6/14 20/19/14
f 24/21/14 26/6/14 22/17/14
f 2/8/14 26/6/14 24/21/14
f 4/4/2 2/2/1 1/1/1
f 1/1/1 3/3/2 4/4/2
f 6/4/3 4/2/2 3/1/2
f 3/1/2 5/3/3 6/4/3
f 8/4/4 6/2/3 5/1/3
f 5/1/3 7/3/4 8/4/4
f 10/4/5 8/2/4 7/1/4
f 7/1/4 9/3/5 10/4/5
f 12/4/6 10/2/5 9/1/5
f 9/1/5 11/3/6 12/4/6
f 14/4/7 12/2/6 11/1/6
f 11/1/6 13/3/7 14/4/7
f 16/4/8 14/2/7 13/1/7
f 13/1/7 15/3/8 16/4/8
f 18/4/9 16/2/8 15/1/8
f 15/1/8 17/3/9 18/4/9
f 20/4/10 18/2/9 17/1/9
f 17/1/9 19/3/10 20/4/10
f 22/4/11 20/2/10 19/1/10
f 19/1/10 21/3/11 22/4/11
f 24/4/12 22/2/11 21/1/11
f 21/1/11 23/3/12 24/4/12
f 2/4/1 24/2/12 23/1/12
f 23/1/12 1/3/1 2/4/1

