# ProBuilder 4.4.0
# https://unity3d.com/unity/features/worldbuilding/probuilder
# 2021/6/23 1:23:41

mtllib ./AD-2-Body.mtl
o AD-2-Body

g AD-2-Body
v 0.1176777 -0.0625 0.06767767
v -0.1176777 -0.0625 0.06767767
v 0.1176777 0.1625 0.06767767
v -0.1176777 0.1625 0.06767767
v -0.1176777 -0.0625 -0.06767767
v -0.1176777 0.1625 -0.06767767
v 0.1176777 -0.0625 -0.06767767
v 0.1176777 0.1625 -0.06767767
v 0.1 -0.1625 -0.05
v -0.1 -0.1625 -0.05
v 0.1 -0.1625 0.05
v -0.1 -0.1625 0.05
v 0.1 -0.0625 0.05
v -0.1 -0.0625 0.05
v -0.1 -0.0625 -0.05
v 0.1 -0.0625 -0.05
v 0.125 -0.579 0.3
v -0.125 -0.579 0.3
v 0.075 -0.529 0.3
v -0.075 -0.529 0.3
v -0.125 -0.579 -0.3
v 0.125 -0.579 -0.3
v -0.075 -0.529 -0.3
v 0.075 -0.529 -0.3
v -0.075 -0.529 0.04
v -0.125 -0.579 0.04
v -0.175 -0.579 0.04
v -0.125 -0.579 -0.04
v -0.075 -0.529 -0.04
v -0.175 -0.579 -0.04
v 0.075 -0.529 0.04
v 0.125 -0.579 0.04
v 0.075 -0.529 0.25
v 0.125 -0.579 0.25
v -0.125 -0.579 0.25
v -0.075 -0.529 0.25
v 0.075 -0.529 -0.04
v 0.125 -0.579 -0.04
v 0.175 -0.579 -0.04
v 0.175 -0.579 0.04
v -0.075 -0.529 -0.25
v -0.125 -0.579 -0.25
v 0.125 -0.579 -0.25
v 0.075 -0.529 -0.25
v 0.075 -0.129 0.04
v -0.075 -0.129 0.04
v 0.075 -0.129 -0.04
v -0.075 -0.129 -0.04
v -0.075 0.321 0.25
v 0.075 0.321 0.25
v -0.075 0.271 0.3
v 0.075 0.271 0.3
v 0.075 0.321 -0.25
v -0.075 0.321 -0.25
v 0.075 0.271 -0.3
v -0.075 0.271 -0.3

vt 0.1176777 -0.0625
vt -0.1176777 -0.0625
vt 0.1176777 0.1625
vt -0.1176777 0.1625
vt 0.06767767 -0.0625
vt -0.06767767 -0.0625
vt 0.06767767 0.1625
vt -0.06767767 0.1625
vt 0.1 -0.05
vt -0.1 -0.05
vt 0.1 0.05
vt -0.1 0.05
vt 0.1176777 0.06767767
vt -0.1176777 0.06767767
vt -0.1176777 -0.06767767
vt 0.1176777 -0.06767767
vt -0.1 -0.0625
vt 0.1 -0.0625
vt -0.1 -0.1625
vt 0.1 -0.1625
vt -0.05 -0.0625
vt 0.05 -0.0625
vt -0.05 -0.1625
vt 0.05 -0.1625
vt 0.125 -0.02499998
vt -0.125 -0.02499998
vt 0.075 0.02499998
vt -0.075 0.02499998
vt -0.175 -0.02499998
vt 0.175 -0.02499998
vt 0.05590174 -0.04
vt 0.05590174 0.04
vt 0.1677051 -0.04
vt 0.1677051 0.04
vt -0.03535542 0.04
vt -0.106066 0.04
vt -0.03535542 0.25
vt -0.106066 0.25
vt 0.106066 0.04
vt 0.03535542 0.04
vt 0.106066 0.25
vt 0.03535542 0.25
vt 0.075 0.04
vt -0.075 0.04
vt 0.075 0.25
vt -0.075 0.25
vt -0.05590174 0.04
vt -0.05590174 -0.04
vt -0.1677051 0.04
vt -0.1677051 -0.04
vt 0.03535542 -0.04
vt 0.106066 -0.04
vt 0.03535542 -0.25
vt 0.106066 -0.25
vt -0.106066 -0.04
vt -0.03535542 -0.04
vt -0.106066 -0.25
vt -0.03535542 -0.25
vt -0.075 -0.04
vt 0.075 -0.04
vt -0.075 -0.25
vt 0.075 -0.25
vt 0.075 0.425
vt -0.075 0.425
vt 0.04 0.02499998
vt -0.04 0.02499998
vt 0.04 0.425
vt -0.04 0.425
vt -0.03535539 0.3
vt -0.106066 0.3
vt 0.106066 0.3
vt 0.03535539 0.3
vt -0.075 0.4419418
vt 0.075 0.4419418
vt -0.075 0.3712311
vt 0.075 0.3712311
vt 0.03535539 -0.3
vt 0.106066 -0.3
vt -0.106066 -0.3
vt -0.03535539 -0.3
vt 0.075 0.875
vt -0.075 0.875
vt 0.3 0.02499998
vt 0.25 0.02499998
vt 0.3 0.825
vt 0.25 0.875
vt -0.25 0.02499998
vt -0.3 0.02499998
vt -0.25 0.875
vt -0.3 0.825
vt 0.075 0.825
vt -0.075 0.825

vn 0 0 1
vn -1 0 0
vn 0 0 -1
vn 1 0 0
vn 0 -1 0
vn -0.4472132 0.8944273 0
vn 0.7071065 0.7071071 0
vn -0.7071065 0.7071071 0
vn 0 1 0
vn 0.4472132 0.8944273 0
vn 0 0.7071068 0.7071068
vn 0 0.7071068 -0.7071068

usemtl Material1
f 27/29/1 26/26/1 25/28/1
f 30/30/3 29/27/3 28/25/3
f 39/29/3 38/26/3 37/28/3
f 40/30/1 31/27/1 32/25/1
f 4/4/1 2/2/1 1/1/1
f 1/1/1 3/3/1 4/4/1
f 6/8/2 5/6/2 2/5/2
f 2/5/2 4/7/2 6/8/2
f 8/4/3 7/2/3 5/1/3
f 5/1/3 6/3/3 8/4/3
f 3/8/4 1/6/4 7/5/4
f 7/5/4 8/7/4 3/8/4
f 12/12/5 10/10/5 9/9/5
f 9/9/5 11/11/5 12/12/5
f 2/14/5 14/12/5 13/11/5
f 13/11/5 1/13/5 2/14/5
f 5/15/5 15/10/5 14/12/5
f 14/12/5 2/14/5 5/15/5
f 7/16/5 16/9/5 15/10/5
f 15/10/5 5/15/5 7/16/5
f 1/13/5 13/11/5 16/9/5
f 16/9/5 7/16/5 1/13/5
f 10/20/3 15/18/3 16/17/3
f 16/17/3 9/19/3 10/20/3
f 9/24/4 16/22/4 13/21/4
f 13/21/4 11/23/4 9/24/4
f 12/24/2 14/22/2 15/21/2
f 15/21/2 10/23/2 12/24/2
f 11/20/1 13/18/1 14/17/1
f 14/17/1 12/19/1 11/20/1
f 20/28/1 18/26/1 17/25/1
f 17/25/1 19/27/1 20/28/1
f 24/28/3 22/26/3 21/25/3
f 21/25/3 23/27/3 24/28/3
f 27/34/6 25/32/6 29/31/6
f 29/31/6 30/33/6 27/34/6
f 34/38/7 32/36/7 31/35/7
f 31/35/7 33/37/7 34/38/7
f 36/42/8 25/40/8 26/39/8
f 26/39/8 35/41/8 36/42/8
f 33/46/9 31/44/9 25/43/9
f 25/43/9 36/45/9 33/46/9
f 39/50/10 37/48/10 31/47/10
f 31/47/10 40/49/10 39/50/10
f 42/54/8 28/52/8 29/51/8
f 29/51/8 41/53/8 42/54/8
f 44/58/7 37/56/7 38/55/7
f 38/55/7 43/57/7 44/58/7
f 41/62/9 29/60/9 37/59/9
f 37/59/9 44/61/9 41/62/9
f 46/64/1 25/28/1 31/27/1
f 31/27/1 45/63/1 46/64/1
f 45/68/4 31/66/4 37/65/4
f 37/65/4 47/67/4 45/68/4
f 48/68/2 29/66/2 25/65/2
f 25/65/2 46/67/2 48/68/2
f 47/64/3 37/28/3 29/27/3
f 29/27/3 48/63/3 47/64/3
f 17/70/7 34/38/7 33/37/7
f 33/37/7 19/69/7 17/70/7
f 20/72/8 36/42/8 35/41/8
f 35/41/8 18/71/8 20/72/8
f 52/76/11 50/74/11 49/73/11
f 49/73/11 51/75/11 52/76/11
f 21/78/8 42/54/8 41/53/8
f 41/53/8 23/77/8 21/78/8
f 24/80/7 44/58/7 43/57/7
f 43/57/7 22/79/7 24/80/7
f 56/76/12 54/74/12 53/73/12
f 53/73/12 55/75/12 56/76/12
f 54/82/1 41/28/1 44/27/1
f 44/27/1 53/81/1 54/82/1
f 53/86/4 44/84/4 24/83/4
f 24/83/4 55/85/4 53/86/4
f 56/90/2 23/88/2 41/87/2
f 41/87/2 54/89/2 56/90/2
f 55/92/3 24/28/3 23/27/3
f 23/27/3 56/91/3 55/92/3
f 50/82/3 33/28/3 36/27/3
f 36/27/3 49/81/3 50/82/3
f 49/86/2 36/84/2 20/83/2
f 20/83/2 51/85/2 49/86/2
f 52/90/4 19/88/4 33/87/4
f 33/87/4 50/89/4 52/90/4
f 51/92/1 20/28/1 19/27/1
f 19/27/1 52/91/1 51/92/1

