# ProBuilder 4.3.1
# https://unity3d.com/unity/features/worldbuilding/probuilder
# 2020/6/20 20:27:13

mtllib ./TeslaGate_Base.mtl
o TeslaGate_Base

g TeslaGate_Base
v 0 0 0
v 0 0.025 0
v -0.375 0 0
v -0.375 0.025 0
v -0.375 0.05 0
v 0 0.05 0
v -0.75 0 0
v -0.75 0.025 0
v -1.125 0 0
v -1.5 0 0
v -1.5 0.025 0
v -1.125 0.025 0
v -1.5 0.05 0
v -1.125 0.05 0
v -0.75 0.05 0
v -0.75 0.075 0
v -1.5 0.075 0
v -1.125 0.075 0
v -1.5 0.1 0
v -1.125 0.1 0
v -0.75 0.1 0
v 0 0.075 0
v -0.375 0.075 0
v -0.375 0.1 0
v 0 0.1 0
v -1.75 0 0
v -1.75 0.025 0
v -1.75 0 -0.125
v -1.75 0.025 -0.125
v -1.75 0.05 -0.125
v -1.75 0.05 0
v -1.75 0 -0.25
v -1.75 0.025 -0.25
v -1.75 0 -0.375
v -1.75 0 -0.5
v -1.75 0.025 -0.5
v -1.75 0.025 -0.375
v -1.75 0.05 -0.5
v -1.75 0.05 -0.375
v -1.75 0.05 -0.25
v -1.75 0.075 -0.25
v -1.75 0.075 -0.5
v -1.75 0.075 -0.375
v -1.75 0.1 -0.5
v -1.75 0.1 -0.375
v -1.75 0.1 -0.25
v -1.75 0.075 0
v -1.75 0.075 -0.125
v -1.75 0.1 -0.125
v -1.75 0.1 0
v -1.125 0.05 -0.5
v -1.5 0.05 -0.5
v -1.5 0.025 -0.5
v -1.5 0 -0.5
v -1.125 0 -0.5
v -1.125 0.025 -0.5
v 0 0.05 -0.5
v -0.375 0.05 -0.5
v -0.75 0.05 -0.5
v -0.75 0.025 -0.5
v -0.75 0 -0.5
v -0.375 0 -0.5
v 0 0 -0.5
v 0 0.025 -0.5
v -0.375 0.025 -0.5
v 0 0.1 -0.5
v -0.375 0.1 -0.5
v -0.75 0.1 -0.5
v -0.75 0.075 -0.5
v 0 0.075 -0.5
v -0.375 0.075 -0.5
v -1.125 0.1 -0.5
v -1.5 0.1 -0.5
v -1.5 0.075 -0.5
v -1.125 0.075 -0.5
v 0 0 -0.25
v 0 0.025 -0.25
v 0 0.025 -0.375
v 0 0 -0.375
v 0 0.05 -0.25
v 0 0.05 -0.375
v 0 0.025 -0.125
v 0 0 -0.125
v 0 0.05 -0.125
v 0 0.075 -0.125
v 0 0.1 -0.125
v 0 0.1 -0.25
v 0 0.075 -0.25
v 0 0.075 -0.375
v 0 0.1 -0.375
v -0.375 0.1 -0.125
v -1.125 0.1 -0.125
v -1.5 0.1 -0.125
v -0.75 0.1 -0.125
v -1.125 0.1 -0.375
v -1.5 0.1 -0.375
v -0.75 0.1 -0.375
v -0.75 0.1 -0.25
v -1.125 0.1 -0.25
v -1.5 0.1 -0.25
v -0.375 0.1 -0.375
v -0.375 0.1 -0.25
v -0.375 0 -0.375
v -1.125 0 -0.375
v -0.75 0 -0.375
v -1.125 0 -0.25
v -1.125 0 -0.125
v -0.75 0 -0.125
v -0.75 0 -0.25
v -0.375 0 -0.25
v -0.375 0 -0.125
v -1.5625 0 -0.25
v -1.5625 0 0
v -1.5625 0 -0.125
v -1.5 0 -0.125
v -1.5 0 -0.25
v -1.5625 0 -0.5
v -1.5625 0 -0.375
v -1.5 0 -0.375
v -1.6875 0 -0.375
v -1.6875 0 -0.5
v -1.625 0 -0.375
v -1.625 0 -0.5
v -1.6875 0 -0.25
v -1.6875 0 0
v -1.6875 0 -0.125
v -1.625 0 0
v -1.625 0 -0.125
v -1.625 0 -0.25
v -1.5625 0.075 0
v -1.5625 0.1 0
v -1.5625 0.05 0
v -1.5625 0.025 0
v -1.625 0.025 0
v -1.6875 0.025 0
v -1.6875 0.05 0
v -1.625 0.05 0
v -1.625 0.075 0
v -1.6875 0.075 0
v -1.6875 0.1 0
v -1.625 0.1 0
v -1.5625 0.025 -0.5
v -1.5625 0.05 -0.5
v -1.625 0.05 -0.5
v -1.625 0.025 -0.5
v -1.5625 0.075 -0.5
v -1.5625 0.1 -0.5
v -1.625 0.1 -0.5
v -1.625 0.075 -0.5
v -1.6875 0.075 -0.5
v -1.6875 0.1 -0.5
v -1.6875 0.025 -0.5
v -1.6875 0.05 -0.5
v -1.625 0.6 -0.5
v -1.625 0.6 -0.375
v -1.5625 0.6 -0.5
v -1.5 0.6 -0.5
v -1.5 0.6 -0.375
v -1.5625 0.6 -0.375
v -1.5625 0.6 -0.25
v -1.625 0.6 -0.25
v -1.5625 0.6 -0.125
v -1.625 0.6 -0.125
v -1.5 0.6 -0.125
v -1.5 0.6 0
v -1.5625 0.6 0
v -1.625 0.6 0
v -1.75 0.6 -0.125
v -1.6875 0.6 -0.125
v -1.6875 0.6 0
v -1.75 0.6 0
v -1.75 0.6 -0.5
v -1.75 0.6 -0.375
v -1.6875 0.6 -0.5
v -1.6875 0.6 -0.375
v -1.6875 0.6 -0.25
v -1.75 0.6 -0.25
v -1.511219 0.225 -0.375
v -1.511219 0.09999999 -0.375
v -1.511219 0.35 -0.375
v -1.5 0.35 -0.375
v -1.5 0.35 -0.5
v -1.5 0.225 -0.5
v -1.5 0.225 -0.375
v -1.5 0.225 0
v -1.5 0.225 -0.125
v -1.5 0.35 0
v -1.5 0.35 -0.125
v -1.511219 0.35 -0.125
v -1.511219 0.35 -0.25
v -1.511219 0.225 -0.25
v -1.511219 0.09999999 -0.25
v -1.511219 0.09999999 -0.125
v -1.511219 0.225 -0.125
v -1.5 0.475 0
v -1.5 0.475 -0.125
v -1.511219 0.6 -0.125
v -1.511219 0.6 -0.25
v -1.511219 0.475 -0.25
v -1.511219 0.475 -0.125
v -1.511219 0.475 -0.375
v -1.511219 0.6 -0.375
v -1.5 0.475 -0.5
v -1.5 0.475 -0.375
v -1.6875 0.225 -0.5
v -1.6875 0.35 -0.5
v -1.75 0.35 -0.5
v -1.75 0.225 -0.5
v -1.5625 0.225 -0.5
v -1.5625 0.35 -0.5
v -1.625 0.35 -0.5
v -1.625 0.225 -0.5
v -1.5625 0.475 -0.5
v -1.625 0.475 -0.5
v -1.6875 0.475 -0.5
v -1.75 0.475 -0.5
v -1.5625 0.225 0
v -1.5625 0.35 0
v -1.625 0.225 0
v -1.75 0.225 0
v -1.6875 0.225 0
v -1.75 0.35 0
v -1.6875 0.35 0
v -1.625 0.35 0
v -1.6875 0.475 0
v -1.75 0.475 0
v -1.625 0.475 0
v -1.5625 0.475 0
v -1.75 0.225 -0.125
v -1.75 0.35 -0.25
v -1.75 0.35 -0.125
v -1.75 0.225 -0.25
v -1.75 0.225 -0.375
v -1.75 0.35 -0.375
v -1.75 0.475 -0.375
v -1.75 0.475 -0.125
v -1.75 0.475 -0.25
v -1.566219 0.6 -0.125
v -1.566219 0.6 -0.25
v -1.566219 0.6 -0.375

vt 0 0
vt 0 0.025
vt -0.375 0
vt -0.375 0.025
vt -0.375 0.05
vt 0 0.05
vt -0.75 0
vt -0.75 0.025
vt -1.125 0
vt -1.5 0
vt -1.5 0.025
vt -1.125 0.025
vt -1.5 0.05
vt -1.125 0.05
vt -0.75 0.05
vt -0.75 0.075
vt -1.5 0.075
vt -1.125 0.075
vt -1.5 0.1
vt -1.125 0.1
vt -0.75 0.1
vt 0 0.075
vt -0.375 0.075
vt -0.375 0.1
vt 0 0.1
vt -0.125 0
vt -0.125 0.025
vt -0.125 0.05
vt -0.25 0
vt -0.25 0.025
vt -0.5 0
vt -0.5 0.025
vt -0.5 0.05
vt -0.25 0.05
vt -0.25 0.075
vt -0.5 0.075
vt -0.5 0.1
vt -0.25 0.1
vt -0.125 0.075
vt -0.125 0.1
vt 1.125 0.05
vt 1.5 0.05
vt 1.5 0.025
vt 1.5 0
vt 1.125 0
vt 1.125 0.025
vt 0.375 0.05
vt 0.75 0.05
vt 0.75 0.025
vt 0.75 0
vt 0.375 0
vt 0.375 0.025
vt 0.375 0.1
vt 0.75 0.1
vt 0.75 0.075
vt 0.375 0.075
vt 1.125 0.1
vt 1.5 0.1
vt 1.5 0.075
vt 1.125 0.075
vt 0.25 0
vt 0.25 0.025
vt 0.25 0.05
vt 0.5 0.05
vt 0.5 0.025
vt 0.5 0
vt 0.125 0.025
vt 0.125 0
vt 0.125 0.05
vt 0.125 0.075
vt 0.125 0.1
vt 0.25 0.1
vt 0.25 0.075
vt 0.5 0.1
vt 0.5 0.075
vt 0.375 -0.125
vt 0 -0.125
vt 1.125 -0.125
vt 1.5 -0.125
vt 0.75 -0.125
vt 1.5 -0.5
vt 1.125 -0.5
vt 1.125 -0.375
vt 1.5 -0.375
vt 0.75 -0.5
vt 0.75 -0.375
vt 0.75 -0.25
vt 1.125 -0.25
vt 1.5 -0.25
vt 0.375 -0.5
vt 0.375 -0.375
vt 0 -0.5
vt 0 -0.375
vt 0 -0.25
vt 0.375 -0.25
vt -0.375 -0.5
vt -0.375 -0.375
vt -1.125 -0.5
vt -1.125 -0.375
vt -0.75 -0.375
vt -0.75 -0.5
vt -1.125 -0.25
vt -1.125 -0.125
vt -0.75 -0.125
vt -0.75 -0.25
vt -0.375 -0.25
vt -0.375 -0.125
vt -1.5625 -0.25
vt -1.5625 0
vt -1.5625 -0.125
vt -1.5 -0.125
vt -1.5 -0.25
vt -1.5625 -0.5
vt -1.5625 -0.375
vt -1.5 -0.375
vt -1.5 -0.5
vt -1.75 -0.5
vt -1.75 -0.375
vt -1.6875 -0.375
vt -1.6875 -0.5
vt -1.625 -0.375
vt -1.625 -0.5
vt -1.75 -0.25
vt -1.6875 -0.25
vt -1.75 -0.125
vt -1.75 0
vt -1.6875 0
vt -1.6875 -0.125
vt -1.625 0
vt -1.625 -0.125
vt -1.625 -0.25
vt -1.5625 0.075
vt -1.5625 0.1
vt -1.5625 0.05
vt -1.5625 0.025
vt -1.625 0.025
vt -1.75 0.025
vt -1.6875 0.025
vt -1.75 0.05
vt -1.6875 0.05
vt -1.625 0.05
vt -1.625 0.075
vt -1.75 0.075
vt -1.6875 0.075
vt -1.75 0.1
vt -1.6875 0.1
vt -1.625 0.1
vt 1.5625 0.025
vt 1.5625 0
vt 1.5625 0.05
vt 1.625 0.05
vt 1.625 0.025
vt 1.625 0
vt 1.5625 0.075
vt 1.5625 0.1
vt 1.625 0.1
vt 1.625 0.075
vt 1.6875 0.075
vt 1.6875 0.1
vt 1.75 0.1
vt 1.75 0.075
vt 1.6875 0.025
vt 1.6875 0
vt 1.6875 0.05
vt 1.75 0.05
vt 1.75 0.025
vt 1.75 0
vt 1.625 -0.5
vt 1.625 -0.375
vt 1.5625 -0.5
vt 1.5625 -0.375
vt 1.5625 -0.25
vt 1.625 -0.25
vt 1.5625 -0.125
vt 1.625 -0.125
vt 1.75 -0.125
vt 1.6875 -0.125
vt 1.75 -0.5
vt 1.75 -0.375
vt 1.6875 -0.5
vt 1.6875 -0.375
vt 1.6875 -0.25
vt 1.75 -0.25
vt 0.97 0.1625
vt 0.97 -0.02500004
vt 0.97 0.35
vt 0.375 0.35
vt 0.5 0.35
vt 0.5 0.225
vt 0.375 0.225
vt 0 0.225
vt 0.125 0.225
vt 0 0.35
vt 0.125 0.35
vt -0.03 0.35
vt 0.47 0.35
vt 0.47 0.1625
vt 0.47 -0.02500004
vt -0.03 -0.02500004
vt -0.03 0.1625
vt 0 0.475
vt 0.125 0.475
vt 0 0.6
vt 0.125 0.6
vt -0.03 0.725
vt 0.47 0.725
vt 0.47 0.5375
vt -0.03 0.5375
vt 0.97 0.5375
vt 0.97 0.725
vt 0.375 0.6
vt 0.5 0.6
vt 0.5 0.475
vt 0.375 0.475
vt 1.6875 0.225
vt 1.6875 0.35
vt 1.75 0.35
vt 1.75 0.225
vt 1.5 0.225
vt 1.5625 0.225
vt 1.5 0.35
vt 1.5625 0.35
vt 1.625 0.35
vt 1.625 0.225
vt 1.5 0.475
vt 1.5625 0.475
vt 1.5 0.6
vt 1.5625 0.6
vt 1.625 0.6
vt 1.625 0.475
vt 1.6875 0.475
vt 1.6875 0.6
vt 1.75 0.6
vt 1.75 0.475
vt -1.5 0.225
vt -1.5625 0.225
vt -1.5625 0.35
vt -1.5 0.35
vt -1.625 0.225
vt -1.75 0.225
vt -1.6875 0.225
vt -1.75 0.35
vt -1.6875 0.35
vt -1.625 0.35
vt -1.6875 0.475
vt -1.75 0.475
vt -1.75 0.6
vt -1.6875 0.6
vt -1.5 0.475
vt -1.625 0.475
vt -1.5625 0.475
vt -1.625 0.6
vt -1.5625 0.6
vt -1.5 0.6
vt -0.125 0.225
vt -0.25 0.35
vt -0.125 0.35
vt -0.25 0.225
vt -0.5 0.225
vt -0.375 0.225
vt -0.5 0.35
vt -0.375 0.35
vt -0.375 0.475
vt -0.5 0.475
vt -0.5 0.6
vt -0.375 0.6
vt -0.125 0.475
vt -0.25 0.475
vt -0.25 0.6
vt -0.125 0.6
vt 1.511219 0.09999999
vt 1.511219 0.225
vt 1.5 -0.25
vt 1.5 -0.125
vt 1.511219 -0.25
vt 1.511219 -0.125
vt -1.511219 0.225
vt -1.511219 0.09999999
vt 1.5 -0.375
vt 1.511219 -0.375
vt 1.511219 0.35
vt -1.511219 0.35
vt 1.511219 0.475
vt -1.511219 0.475
vt 1.511219 0.6
vt -1.511219 0.6
vt 1.566219 -0.125
vt 1.566219 -0.25
vt 1.566219 -0.375

vn 0 0 1
vn -1 0 0
vn 0 0 -1
vn 1 0 0
vn 0 1 0
vn 0 -1 0

usemtl Body
f 95/83/5 72/82/5 73/81/5
f 95/83/5 73/81/5 96/84/5
f 97/86/5 68/85/5 72/82/5
f 97/86/5 72/82/5 95/83/5
f 101/91/5 67/90/5 68/85/5
f 101/91/5 68/85/5 97/86/5
f 90/93/5 66/92/5 67/90/5
f 90/93/5 67/90/5 101/91/5
f 99/88/5 95/83/5 96/84/5
f 99/88/5 96/84/5 100/89/5
f 98/87/5 97/86/5 95/83/5
f 98/87/5 95/83/5 99/88/5
f 102/95/5 101/91/5 97/86/5
f 102/95/5 97/86/5 98/87/5
f 87/94/5 90/93/5 101/91/5
f 87/94/5 101/91/5 102/95/5
f 92/78/5 99/88/5 100/89/5
f 92/78/5 100/89/5 93/79/5
f 94/80/5 98/87/5 99/88/5
f 94/80/5 99/88/5 92/78/5
f 91/76/5 102/95/5 98/87/5
f 91/76/5 98/87/5 94/80/5
f 86/77/5 87/94/5 102/95/5
f 86/77/5 102/95/5 91/76/5
f 20/45/5 92/78/5 93/79/5
f 20/45/5 93/79/5 19/44/5
f 21/50/5 94/80/5 92/78/5
f 21/50/5 92/78/5 20/45/5
f 24/51/5 91/76/5 94/80/5
f 24/51/5 94/80/5 21/50/5
f 25/1/5 86/77/5 91/76/5
f 25/1/5 91/76/5 24/51/5
f 158/84/5 157/81/5 156/170/5
f 158/84/5 156/170/5 159/171/5
f 159/171/5 156/170/5 154/168/5
f 159/171/5 154/168/5 155/169/5
f 155/169/5 154/168/5 174/180/5
f 155/169/5 174/180/5 175/181/5
f 198/275/5 202/280/5 239/288/5
f 202/280/5 240/289/5 239/288/5
f 160/172/5 159/171/5 155/169/5
f 160/172/5 155/169/5 161/173/5
f 161/173/5 155/169/5 175/181/5
f 161/173/5 175/181/5 176/182/5
f 197/276/5 198/275/5 238/287/5
f 198/275/5 239/288/5 238/287/5
f 162/174/5 160/172/5 161/173/5
f 162/174/5 161/173/5 163/175/5
f 163/175/5 161/173/5 176/182/5
f 163/175/5 176/182/5 169/177/5
f 165/44/5 164/79/5 162/174/5
f 165/44/5 162/174/5 166/149/5
f 166/149/5 162/174/5 163/175/5
f 166/149/5 163/175/5 167/153/5
f 167/153/5 163/175/5 169/177/5
f 167/153/5 169/177/5 170/163/5
f 175/181/5 174/180/5 172/178/5
f 175/181/5 172/178/5 173/179/5
f 176/182/5 175/181/5 173/179/5
f 176/182/5 173/179/5 177/183/5
f 169/177/5 176/182/5 177/183/5
f 169/177/5 177/183/5 168/176/5
f 170/163/5 169/177/5 168/176/5
f 170/163/5 168/176/5 171/167/5
f 36/32/2 35/31/2 34/3/2
f 36/32/2 34/3/2 37/4/2
f 37/4/2 34/3/2 32/29/2
f 37/4/2 32/29/2 33/30/2
f 33/30/2 32/29/2 28/26/2
f 33/30/2 28/26/2 29/27/2
f 29/27/2 28/26/2 26/1/2
f 29/27/2 26/1/2 27/2/2
f 38/33/2 36/32/2 37/4/2
f 38/33/2 37/4/2 39/5/2
f 39/5/2 37/4/2 33/30/2
f 39/5/2 33/30/2 40/34/2
f 40/34/2 33/30/2 29/27/2
f 40/34/2 29/27/2 30/28/2
f 30/28/2 29/27/2 27/2/2
f 30/28/2 27/2/2 31/6/2
f 42/36/2 38/33/2 39/5/2
f 42/36/2 39/5/2 43/23/2
f 43/23/2 39/5/2 40/34/2
f 43/23/2 40/34/2 41/35/2
f 41/35/2 40/34/2 30/28/2
f 41/35/2 30/28/2 48/39/2
f 48/39/2 30/28/2 31/6/2
f 48/39/2 31/6/2 47/22/2
f 44/37/2 42/36/2 43/23/2
f 44/37/2 43/23/2 45/24/2
f 45/24/2 43/23/2 41/35/2
f 45/24/2 41/35/2 46/38/2
f 46/38/2 41/35/2 48/39/2
f 46/38/2 48/39/2 49/40/2
f 49/40/2 48/39/2 47/22/2
f 49/40/2 47/22/2 50/25/2
f 208/259/2 44/37/2 45/24/2
f 208/259/2 45/24/2 233/260/2
f 233/260/2 45/24/2 46/38/2
f 233/260/2 46/38/2 232/258/2
f 232/258/2 46/38/2 49/40/2
f 232/258/2 49/40/2 229/255/2
f 229/255/2 49/40/2 50/25/2
f 229/255/2 50/25/2 220/191/2
f 231/257/2 229/255/2 220/191/2
f 231/257/2 220/191/2 222/193/2
f 230/256/2 232/258/2 229/255/2
f 230/256/2 229/255/2 231/257/2
f 234/262/2 233/260/2 232/258/2
f 234/262/2 232/258/2 230/256/2
f 207/261/2 208/259/2 233/260/2
f 207/261/2 233/260/2 234/262/2
f 236/267/2 231/257/2 222/193/2
f 236/267/2 222/193/2 226/201/2
f 237/268/2 230/256/2 231/257/2
f 237/268/2 231/257/2 236/267/2
f 235/263/2 234/262/2 230/256/2
f 235/263/2 230/256/2 237/268/2
f 216/264/2 207/261/2 234/262/2
f 216/264/2 234/262/2 235/263/2
f 168/270/2 236/267/2 226/201/2
f 168/270/2 226/201/2 171/203/2
f 177/269/2 237/268/2 236/267/2
f 177/269/2 236/267/2 168/270/2
f 173/266/2 235/263/2 237/268/2
f 173/266/2 237/268/2 177/269/2
f 172/265/2 216/264/2 235/263/2
f 172/265/2 235/263/2 173/266/2
f 34/118/6 35/117/6 120/119/6
f 35/117/6 121/120/6 120/119/6
f 26/126/6 28/125/6 125/127/6
f 28/125/6 126/128/6 125/127/6
f 125/127/6 126/128/6 127/129/6
f 126/128/6 128/130/6 127/129/6
f 127/129/6 128/130/6 113/109/6
f 128/130/6 114/110/6 113/109/6
f 113/109/6 114/110/6 10/10/6
f 114/110/6 115/111/6 10/10/6
f 10/10/6 115/111/6 9/9/6
f 115/111/6 107/103/6 9/9/6
f 9/9/6 107/103/6 7/7/6
f 107/103/6 108/104/6 7/7/6
f 7/7/6 108/104/6 3/3/6
f 108/104/6 111/107/6 3/3/6
f 28/125/6 32/123/6 126/128/6
f 32/123/6 124/124/6 126/128/6
f 126/128/6 124/124/6 128/130/6
f 124/124/6 129/131/6 128/130/6
f 128/130/6 129/131/6 114/110/6
f 129/131/6 112/108/6 114/110/6
f 114/110/6 112/108/6 115/111/6
f 112/108/6 116/112/6 115/111/6
f 3/3/6 111/107/6 1/1/6
f 111/107/6 83/77/6 1/1/6
f 115/111/6 116/112/6 107/103/6
f 116/112/6 106/102/6 107/103/6
f 107/103/6 106/102/6 108/104/6
f 106/102/6 109/105/6 108/104/6
f 108/104/6 109/105/6 111/107/6
f 109/105/6 110/106/6 111/107/6
f 124/124/6 120/119/6 129/131/6
f 120/119/6 122/121/6 129/131/6
f 32/123/6 34/118/6 124/124/6
f 34/118/6 120/119/6 124/124/6
f 129/131/6 122/121/6 112/108/6
f 122/121/6 118/114/6 112/108/6
f 112/108/6 118/114/6 116/112/6
f 118/114/6 119/115/6 116/112/6
f 111/107/6 110/106/6 83/77/6
f 110/106/6 76/94/6 83/77/6
f 116/112/6 119/115/6 106/102/6
f 119/115/6 104/99/6 106/102/6
f 106/102/6 104/99/6 109/105/6
f 104/99/6 105/100/6 109/105/6
f 109/105/6 105/100/6 110/106/6
f 105/100/6 103/97/6 110/106/6
f 120/119/6 121/120/6 122/121/6
f 121/120/6 123/122/6 122/121/6
f 122/121/6 123/122/6 118/114/6
f 123/122/6 117/113/6 118/114/6
f 118/114/6 117/113/6 119/115/6
f 117/113/6 54/116/6 119/115/6
f 110/106/6 103/97/6 76/94/6
f 103/97/6 79/93/6 76/94/6
f 119/115/6 54/116/6 104/99/6
f 54/116/6 55/98/6 104/99/6
f 104/99/6 55/98/6 105/100/6
f 55/98/6 61/101/6 105/100/6
f 105/100/6 61/101/6 103/97/6
f 61/101/6 62/96/6 103/97/6
f 103/97/6 62/96/6 79/93/6
f 62/96/6 63/92/6 79/93/6
f 12/12/1 10/10/1 9/9/1
f 12/12/1 11/11/1 10/10/1
f 8/8/1 9/9/1 7/7/1
f 8/8/1 12/12/1 9/9/1
f 4/4/1 7/7/1 3/3/1
f 4/4/1 8/8/1 7/7/1
f 2/2/1 3/3/1 1/1/1
f 2/2/1 4/4/1 3/3/1
f 14/14/1 11/11/1 12/12/1
f 14/14/1 13/13/1 11/11/1
f 15/15/1 12/12/1 8/8/1
f 15/15/1 14/14/1 12/12/1
f 5/5/1 8/8/1 4/4/1
f 5/5/1 15/15/1 8/8/1
f 6/6/1 4/4/1 2/2/1
f 6/6/1 5/5/1 4/4/1
f 18/18/1 13/13/1 14/14/1
f 18/18/1 17/17/1 13/13/1
f 16/16/1 14/14/1 15/15/1
f 16/16/1 18/18/1 14/14/1
f 23/23/1 15/15/1 5/5/1
f 23/23/1 16/16/1 15/15/1
f 22/22/1 5/5/1 6/6/1
f 22/22/1 23/23/1 5/5/1
f 19/19/1 17/17/1 18/18/1
f 19/19/1 18/18/1 20/20/1
f 20/20/1 18/18/1 16/16/1
f 20/20/1 16/16/1 21/21/1
f 21/21/1 16/16/1 23/23/1
f 21/21/1 23/23/1 24/24/1
f 24/24/1 23/23/1 22/22/1
f 24/24/1 22/22/1 25/25/1
f 27/137/1 26/126/1 125/127/1
f 27/137/1 125/127/1 135/138/1
f 135/138/1 125/127/1 127/129/1
f 135/138/1 127/129/1 134/136/1
f 31/139/1 27/137/1 135/138/1
f 31/139/1 135/138/1 136/140/1
f 136/140/1 135/138/1 134/136/1
f 136/140/1 134/136/1 137/141/1
f 137/141/1 134/136/1 133/135/1
f 137/141/1 133/135/1 132/134/1
f 134/136/1 127/129/1 113/109/1
f 134/136/1 113/109/1 133/135/1
f 133/135/1 113/109/1 10/10/1
f 133/135/1 10/10/1 11/11/1
f 132/134/1 133/135/1 11/11/1
f 132/134/1 11/11/1 13/13/1
f 47/143/1 31/139/1 136/140/1
f 47/143/1 136/140/1 139/144/1
f 139/144/1 136/140/1 137/141/1
f 139/144/1 137/141/1 138/142/1
f 138/142/1 137/141/1 132/134/1
f 138/142/1 132/134/1 130/132/1
f 130/132/1 132/134/1 13/13/1
f 130/132/1 13/13/1 17/17/1
f 50/145/1 47/143/1 139/144/1
f 50/145/1 139/144/1 140/146/1
f 140/146/1 139/144/1 138/142/1
f 140/146/1 138/142/1 141/147/1
f 141/147/1 138/142/1 130/132/1
f 141/147/1 130/132/1 131/133/1
f 131/133/1 130/132/1 17/17/1
f 131/133/1 17/17/1 19/19/1
f 220/240/1 50/145/1 140/146/1
f 220/240/1 140/146/1 221/241/1
f 221/241/1 140/146/1 141/147/1
f 221/241/1 141/147/1 219/239/1
f 219/239/1 141/147/1 131/133/1
f 219/239/1 131/133/1 217/236/1
f 217/236/1 131/133/1 19/19/1
f 217/236/1 19/19/1 185/235/1
f 222/242/1 220/240/1 221/241/1
f 222/242/1 221/241/1 223/243/1
f 223/243/1 221/241/1 219/239/1
f 223/243/1 219/239/1 224/244/1
f 224/244/1 219/239/1 217/236/1
f 224/244/1 217/236/1 218/237/1
f 218/237/1 217/236/1 185/235/1
f 218/237/1 185/235/1 187/238/1
f 227/250/1 224/244/1 218/237/1
f 227/250/1 218/237/1 228/251/1
f 228/251/1 218/237/1 187/238/1
f 228/251/1 187/238/1 195/249/1
f 225/245/1 223/243/1 224/244/1
f 225/245/1 224/244/1 227/250/1
f 226/246/1 222/242/1 223/243/1
f 226/246/1 223/243/1 225/245/1
f 167/252/1 227/250/1 228/251/1
f 167/252/1 228/251/1 166/253/1
f 166/253/1 228/251/1 195/249/1
f 166/253/1 195/249/1 165/254/1
f 170/248/1 225/245/1 227/250/1
f 170/248/1 227/250/1 167/252/1
f 171/247/1 226/246/1 225/245/1
f 171/247/1 225/245/1 170/248/1
f 77/62/4 76/61/4 78/52/4
f 76/61/4 79/51/4 78/52/4
f 80/63/4 77/62/4 81/47/4
f 77/62/4 78/52/4 81/47/4
f 81/47/4 78/52/4 57/64/4
f 78/52/4 64/65/4 57/64/4
f 78/52/4 79/51/4 64/65/4
f 79/51/4 63/66/4 64/65/4
f 2/2/4 1/1/4 82/67/4
f 1/1/4 83/68/4 82/67/4
f 6/6/4 2/2/4 84/69/4
f 2/2/4 82/67/4 84/69/4
f 84/69/4 82/67/4 80/63/4
f 82/67/4 77/62/4 80/63/4
f 82/67/4 83/68/4 77/62/4
f 83/68/4 76/61/4 77/62/4
f 22/22/4 6/6/4 85/70/4
f 6/6/4 84/69/4 85/70/4
f 25/25/4 22/22/4 86/71/4
f 22/22/4 85/70/4 86/71/4
f 86/71/4 85/70/4 87/72/4
f 85/70/4 88/73/4 87/72/4
f 85/70/4 84/69/4 88/73/4
f 84/69/4 80/63/4 88/73/4
f 88/73/4 80/63/4 89/56/4
f 80/63/4 81/47/4 89/56/4
f 87/72/4 88/73/4 90/53/4
f 88/73/4 89/56/4 90/53/4
f 90/53/4 89/56/4 66/74/4
f 89/56/4 70/75/4 66/74/4
f 89/56/4 81/47/4 70/75/4
f 81/47/4 57/64/4 70/75/4
f 53/43/3 54/44/3 142/148/3
f 54/44/3 117/149/3 142/148/3
f 142/148/3 117/149/3 145/152/3
f 117/149/3 123/153/3 145/152/3
f 145/152/3 123/153/3 152/162/3
f 123/153/3 121/163/3 152/162/3
f 152/162/3 121/163/3 36/166/3
f 121/163/3 35/167/3 36/166/3
f 52/42/3 53/43/3 143/150/3
f 53/43/3 142/148/3 143/150/3
f 143/150/3 142/148/3 144/151/3
f 142/148/3 145/152/3 144/151/3
f 144/151/3 145/152/3 153/164/3
f 145/152/3 152/162/3 153/164/3
f 153/164/3 152/162/3 38/165/3
f 152/162/3 36/166/3 38/165/3
f 74/59/3 52/42/3 146/154/3
f 52/42/3 143/150/3 146/154/3
f 146/154/3 143/150/3 149/157/3
f 143/150/3 144/151/3 149/157/3
f 149/157/3 144/151/3 150/158/3
f 144/151/3 153/164/3 150/158/3
f 150/158/3 153/164/3 42/161/3
f 153/164/3 38/165/3 42/161/3
f 73/58/3 74/59/3 147/155/3
f 74/59/3 146/154/3 147/155/3
f 147/155/3 146/154/3 148/156/3
f 146/154/3 149/157/3 148/156/3
f 148/156/3 149/157/3 151/159/3
f 149/157/3 150/158/3 151/159/3
f 151/159/3 150/158/3 44/160/3
f 150/158/3 42/161/3 44/160/3
f 183/219/3 147/155/3 209/220/3
f 183/219/3 73/58/3 147/155/3
f 209/220/3 147/155/3 212/224/3
f 147/155/3 148/156/3 212/224/3
f 212/224/3 151/159/3 205/215/3
f 212/224/3 148/156/3 151/159/3
f 205/215/3 151/159/3 208/218/3
f 151/159/3 44/160/3 208/218/3
f 209/220/3 210/222/3 182/221/3
f 183/219/3 209/220/3 182/221/3
f 210/222/3 209/220/3 211/223/3
f 209/220/3 212/224/3 211/223/3
f 205/215/3 206/216/3 211/223/3
f 212/224/3 205/215/3 211/223/3
f 206/216/3 205/215/3 207/217/3
f 205/215/3 208/218/3 207/217/3
f 203/225/3 182/221/3 213/226/3
f 182/221/3 210/222/3 213/226/3
f 213/226/3 210/222/3 214/230/3
f 210/222/3 211/223/3 214/230/3
f 214/230/3 211/223/3 215/231/3
f 211/223/3 206/216/3 215/231/3
f 215/231/3 206/216/3 216/234/3
f 206/216/3 207/217/3 216/234/3
f 157/227/3 203/225/3 156/228/3
f 203/225/3 213/226/3 156/228/3
f 156/228/3 213/226/3 154/229/3
f 213/226/3 214/230/3 154/229/3
f 154/229/3 214/230/3 174/232/3
f 214/230/3 215/231/3 174/232/3
f 174/232/3 215/231/3 172/233/3
f 215/231/3 216/234/3 172/233/3
f 62/51/3 65/52/3 64/2/3
f 63/1/3 62/51/3 64/2/3
f 61/50/3 60/49/3 65/52/3
f 62/51/3 61/50/3 65/52/3
f 55/45/3 56/46/3 60/49/3
f 61/50/3 55/45/3 60/49/3
f 54/44/3 53/43/3 56/46/3
f 55/45/3 54/44/3 56/46/3
f 65/52/3 58/47/3 57/6/3
f 64/2/3 65/52/3 57/6/3
f 60/49/3 59/48/3 58/47/3
f 65/52/3 60/49/3 58/47/3
f 56/46/3 51/41/3 59/48/3
f 60/49/3 56/46/3 59/48/3
f 53/43/3 52/42/3 51/41/3
f 56/46/3 53/43/3 51/41/3
f 58/47/3 71/56/3 70/22/3
f 57/6/3 58/47/3 70/22/3
f 59/48/3 69/55/3 71/56/3
f 58/47/3 59/48/3 71/56/3
f 51/41/3 75/60/3 69/55/3
f 59/48/3 51/41/3 69/55/3
f 52/42/3 74/59/3 75/60/3
f 51/41/3 52/42/3 75/60/3
f 66/25/3 70/22/3 67/53/3
f 70/22/3 71/56/3 67/53/3
f 67/53/3 71/56/3 68/54/3
f 71/56/3 69/55/3 68/54/3
f 68/54/3 69/55/3 72/57/3
f 69/55/3 75/60/3 72/57/3
f 72/57/3 75/60/3 73/58/3
f 75/60/3 74/59/3 73/58/3
f 185/191/4 93/71/4 186/192/4
f 185/191/4 19/25/4 93/71/4
f 186/192/4 188/194/4 187/193/4
f 185/191/4 186/192/4 187/193/4
f 195/201/4 187/193/4 196/202/4
f 187/193/4 188/194/4 196/202/4
f 165/203/4 195/201/4 164/204/4
f 195/201/4 196/202/4 164/204/4
f 184/190/4 96/53/4 183/189/4
f 96/53/4 73/74/4 183/189/4
f 181/187/4 184/190/4 182/188/4
f 184/190/4 183/189/4 182/188/4
f 204/214/4 181/187/4 203/213/4
f 181/187/4 182/188/4 203/213/4
f 158/211/4 204/214/4 157/212/4
f 204/214/4 203/213/4 157/212/4
f 193/271/3 186/219/3 93/58/3
f 193/271/3 194/272/3 186/219/3
f 194/272/3 188/221/3 186/219/3
f 194/272/3 189/281/3 188/221/3
f 189/281/3 196/225/3 188/221/3
f 189/281/3 200/283/3 196/225/3
f 200/283/3 164/227/3 196/225/3
f 200/283/3 197/285/3 164/227/3
f 178/277/1 96/19/1 184/235/1
f 178/277/1 179/278/1 96/19/1
f 180/282/1 184/235/1 181/238/1
f 180/282/1 178/277/1 184/235/1
f 201/284/1 181/238/1 204/249/1
f 201/284/1 180/282/1 181/238/1
f 202/286/1 204/249/1 158/254/1
f 202/286/1 201/284/1 204/249/1
f 192/275/5 93/274/5 100/273/5
f 192/275/5 193/276/5 93/274/5
f 179/280/5 100/273/5 96/279/5
f 179/280/5 192/275/5 100/273/5

usemtl Body-Inner
f 194/200/4 193/199/4 191/197/4
f 193/199/4 192/198/4 191/197/4
f 191/197/4 179/185/4 178/184/4
f 191/197/4 192/198/4 179/185/4
f 189/195/4 194/200/4 190/196/4
f 194/200/4 191/197/4 190/196/4
f 178/184/4 180/186/4 190/196/4
f 191/197/4 178/184/4 190/196/4
f 200/208/4 189/195/4 199/207/4
f 189/195/4 190/196/4 199/207/4
f 199/207/4 190/196/4 201/209/4
f 190/196/4 180/186/4 201/209/4
f 197/205/4 200/208/4 198/206/4
f 200/208/4 199/207/4 198/206/4
f 198/206/4 199/207/4 202/210/4
f 199/207/4 201/209/4 202/210/4

