# ProBuilder 4.3.1
# https://unity3d.com/unity/features/worldbuilding/probuilder
# 2020/6/20 20:28:29

mtllib ./TeslaGate_Detector.mtl
o TeslaGate_Detector

g TeslaGate_Detector
v -0.0375 0 0
v -0.075 0 0
v -0.075 0.1 0
v -0.0375 0.1 0
v -0.075 0.2 0
v -0.0375 0.2 0
v -0.1125 0 0
v -0.1125 0.1 0
v -0.15 0 0
v -0.15 0.1 0
v -0.15 0.2 0
v -0.1125 0.2 0
v -0.1125 0.3 0
v -0.075 0.3 0
v -0.15 0.3 0
v -0.15 0.4 0
v -0.1125 0.4 0
v -0.075 0.4 0
v -0.0375 0.3 0
v -0.0375 0.4 0
v -0.15 0 -0.05
v -0.15 0.1 -0.05
v -0.15 0 -0.1
v -0.15 0.1 -0.1
v -0.15 0.2 -0.1
v -0.15 0.2 -0.05
v -0.15 0 -0.15
v -0.15 0.1 -0.15
v -0.15 0 -0.2
v -0.15 0.1 -0.2
v -0.15 0.2 -0.2
v -0.15 0.2 -0.15
v -0.15 0.3 -0.15
v -0.15 0.3 -0.1
v -0.15 0.3 -0.2
v -0.15 0.4 -0.2
v -0.15 0.4 -0.15
v -0.15 0.4 -0.1
v -0.15 0.3 -0.05
v -0.15 0.4 -0.05
v -0.075 0.2 -0.2
v -0.1125 0.2 -0.2
v -0.1125 0.1 -0.2
v -0.075 0.1 -0.2
v -0.1125 0 -0.2
v -0.075 0 -0.2
v -0.0375 0.2 -0.2
v -0.0375 0.1 -0.2
v -0.0375 0 -0.2
v -0.0375 0.4 -0.2
v -0.075 0.4 -0.2
v -0.075 0.3 -0.2
v -0.0375 0.3 -0.2
v -0.1125 0.4 -0.2
v -0.1125 0.3 -0.2
v -0.075 0.4 -0.1
v -0.0375 0.4 -0.1
v -0.0375 0.4 -0.05
v -0.075 0.4 -0.05
v -0.1125 0.4 -0.1
v -0.1125 0.4 -0.05
v -0.1125 0.4 -0.15
v -0.075 0.4 -0.15
v -0.0375 0.4 -0.15
v -0.075 0 -0.1
v -0.0375 0 -0.1
v -0.0375 0 -0.15
v -0.075 0 -0.15
v -0.1125 0 -0.1
v -0.1125 0 -0.15
v -0.1125 0 -0.05
v -0.075 0 -0.05
v -0.0375 0 -0.05
v 0 0 0
v 0 0.1 0
v 0 0.05 0
v 0 0.2 0
v 0 0.15 0
v 0 0.3 0
v 0 0.25 0
v 0 0.4 0
v 0 0.35 0
v 0 0.2 -0.2
v 0 0.1 -0.2
v 0 0.15 -0.2
v 0 0 -0.2
v 0 0.05 -0.2
v 0 0.4 -0.2
v 0 0.3 -0.2
v 0 0.35 -0.2
v 0 0.25 -0.2
v 0 0.1 -0.1
v 0 0.15 -0.1
v 0 0.15 -0.125
v 0 0.1 -0.125
v 0 0.2 -0.1
v 0 0.2 -0.125
v 0 0.2 -0.15
v 0 0.15 -0.15
v 0 0.1 -0.15
v 0 0.15 -0.175
v 0 0.1 -0.175
v 0 0.2 -0.175
v 0 0 -0.15
v 0 0.05 -0.15
v 0 0.05 -0.175
v 0 0 -0.175
v 0 0 -0.1
v 0 0.05 -0.1
v 0 0.05 -0.125
v 0 0 -0.125
v 0 0.2 -0.025
v 0 0.15 -0.025
v 0 0.2 -0.05
v 0 0.15 -0.05
v 0 0.1 -0.05
v 0 0.1 -0.025
v 0 0.2 -0.075
v 0 0.15 -0.075
v 0 0.1 -0.075
v 0 0.05 -0.075
v 0 0.05 -0.05
v 0 0 -0.075
v 0 0 -0.05
v 0 0.05 -0.025
v 0 0 -0.025
v 0 0.35 -0.025
v 0 0.3 -0.025
v 0 0.4 -0.025
v 0 0.4 -0.05
v 0 0.35 -0.05
v 0 0.3 -0.05
v 0 0.35 -0.075
v 0 0.3 -0.075
v 0 0.4 -0.075
v 0 0.4 -0.1
v 0 0.35 -0.1
v 0 0.3 -0.1
v 0 0.25 -0.05
v 0 0.25 -0.075
v 0 0.25 -0.1
v 0 0.25 -0.025
v 0 0.4 -0.125
v 0 0.35 -0.125
v 0 0.4 -0.15
v 0 0.35 -0.15
v 0 0.3 -0.15
v 0 0.3 -0.125
v 0 0.4 -0.175
v 0 0.35 -0.175
v 0 0.3 -0.175
v 0 0.25 -0.175
v 0 0.25 -0.15
v 0 0.25 -0.125

vt -0.0375 0
vt -0.075 0
vt -0.075 0.1
vt -0.0375 0.1
vt -0.075 0.2
vt -0.0375 0.2
vt -0.1125 0
vt -0.1125 0.1
vt -0.15 0
vt -0.15 0.1
vt -0.15 0.2
vt -0.1125 0.2
vt -0.1125 0.3
vt -0.075 0.3
vt -0.15 0.3
vt -0.15 0.4
vt -0.1125 0.4
vt -0.075 0.4
vt -0.0375 0.3
vt -0.0375 0.4
vt 0 0
vt -0.05 0
vt -0.05 0.1
vt 0 0.1
vt -0.1 0
vt -0.1 0.1
vt -0.1 0.2
vt -0.05 0.2
vt 0 0.2
vt -0.2 0
vt -0.2 0.1
vt -0.2 0.2
vt -0.1 0.3
vt -0.2 0.3
vt -0.2 0.4
vt -0.1 0.4
vt -0.05 0.3
vt 0 0.3
vt -0.05 0.4
vt 0 0.4
vt 0.075 0.2
vt 0.1125 0.2
vt 0.1125 0.1
vt 0.075 0.1
vt 0.15 0.2
vt 0.15 0.1
vt 0.15 0
vt 0.1125 0
vt 0.075 0
vt 0.0375 0.2
vt 0.0375 0.1
vt 0.0375 0
vt 0.0375 0.4
vt 0.075 0.4
vt 0.075 0.3
vt 0.0375 0.3
vt 0.1125 0.4
vt 0.1125 0.3
vt 0.15 0.4
vt 0.15 0.3
vt 0.075 -0.1
vt 0.0375 -0.1
vt 0.0375 -0.05
vt 0.075 -0.05
vt 0.15 -0.1
vt 0.1125 -0.1
vt 0.1125 -0.05
vt 0.15 -0.05
vt 0.15 -0.2
vt 0.1125 -0.2
vt 0.1125 -0.15
vt 0.15 -0.15
vt 0.075 -0.2
vt 0.075 -0.15
vt 0.0375 -0.2
vt 0.0375 -0.15
vt -0.075 -0.1
vt -0.0375 -0.1
vt -0.0375 -0.15
vt -0.075 -0.15
vt -0.0375 -0.2
vt -0.075 -0.2
vt -0.15 -0.1
vt -0.1125 -0.1
vt -0.1125 -0.15
vt -0.15 -0.15
vt -0.1125 -0.2
vt -0.15 -0.2
vt -0.1125 -0.05
vt -0.15 -0.05
vt -0.075 -0.05
vt -0.0375 -0.05
vt 0 0.05
vt 0 0.15
vt 0 0.25
vt 0 0.35
vt 0.1 0.1
vt 0.1 0.15
vt 0.125 0.15
vt 0.125 0.1
vt 0.1 0.2
vt 0.125 0.2
vt 0.15 0.15
vt 0.175 0.15
vt 0.175 0.1
vt 0.175 0.2
vt 0.2 0.2
vt 0.2 0.15
vt 0.2 0.1
vt 0.15 0.05
vt 0.175 0.05
vt 0.175 0
vt 0.2 0.05
vt 0.2 0
vt 0.1 0
vt 0.1 0.05
vt 0.125 0.05
vt 0.125 0
vt 0.025 0.2
vt 0.025 0.15
vt 0.05 0.2
vt 0.05 0.15
vt 0.05 0.1
vt 0.025 0.1
vt 0.075 0.15
vt 0.075 0.05
vt 0.05 0.05
vt 0.05 0
vt 0.025 0.05
vt 0.025 0
vt 0.025 0.35
vt 0.025 0.3
vt 0.025 0.4
vt 0.05 0.4
vt 0.05 0.35
vt 0.05 0.3
vt 0.075 0.35
vt 0.1 0.4
vt 0.1 0.35
vt 0.1 0.3
vt 0.05 0.25
vt 0.075 0.25
vt 0.1 0.25
vt 0.025 0.25
vt 0.125 0.4
vt 0.125 0.35
vt 0.15 0.35
vt 0.125 0.3
vt 0.175 0.4
vt 0.175 0.35
vt 0.2 0.4
vt 0.2 0.35
vt 0.2 0.3
vt 0.175 0.3
vt 0.175 0.25
vt 0.15 0.25
vt 0.2 0.25
vt 0.125 0.25
vt 0 -0.1
vt 0 -0.075
vt 0 -0.05
vt 0 -0.025
vt 0 -0.2
vt 0 -0.175
vt 0 -0.15
vt 0 -0.125

vn 0 0 1
vn -1 0 0
vn 0 0 -1
vn 0 1 0
vn 0 -1 0
vn 1 0 0

usemtl Body
f 1/1/1 74/21/1 76/93/1
f 4/4/1 1/1/1 76/93/1
f 4/4/1 76/93/1 75/24/1
f 4/4/1 75/24/1 78/94/1
f 6/6/1 4/4/1 78/94/1
f 6/6/1 78/94/1 77/29/1
f 6/6/1 77/29/1 80/95/1
f 19/19/1 6/6/1 80/95/1
f 19/19/1 80/95/1 79/38/1
f 19/19/1 79/38/1 82/96/1
f 20/20/1 19/19/1 82/96/1
f 20/20/1 82/96/1 81/40/1
f 83/29/3 85/94/3 47/50/3
f 85/94/3 48/51/3 47/50/3
f 85/94/3 84/24/3 48/51/3
f 84/24/3 87/93/3 48/51/3
f 87/93/3 49/52/3 48/51/3
f 87/93/3 86/21/3 49/52/3
f 88/40/3 90/96/3 50/53/3
f 90/96/3 53/56/3 50/53/3
f 90/96/3 89/38/3 53/56/3
f 89/38/3 91/95/3 53/56/3
f 91/95/3 47/50/3 53/56/3
f 91/95/3 83/29/3 47/50/3
f 135/160/4 136/159/4 57/62/4
f 58/63/4 135/160/4 57/62/4
f 58/63/4 130/161/4 135/160/4
f 129/162/4 130/161/4 58/63/4
f 20/52/4 129/162/4 58/63/4
f 20/52/4 81/21/4 129/162/4
f 149/164/4 88/163/4 50/75/4
f 64/76/4 149/164/4 50/75/4
f 64/76/4 145/165/4 149/164/4
f 143/166/4 145/165/4 64/76/4
f 57/62/4 143/166/4 64/76/4
f 57/62/4 136/159/4 143/166/4
f 111/166/5 108/159/5 66/78/5
f 67/79/5 111/166/5 66/78/5
f 67/79/5 104/165/5 111/166/5
f 107/164/5 104/165/5 67/79/5
f 49/81/5 107/164/5 67/79/5
f 49/81/5 86/163/5 107/164/5
f 126/162/5 74/21/5 1/1/5
f 73/92/5 126/162/5 1/1/5
f 73/92/5 124/161/5 126/162/5
f 123/160/5 124/161/5 73/92/5
f 66/78/5 123/160/5 73/92/5
f 66/78/5 108/159/5 123/160/5
f 3/3/1 2/2/1 1/1/1
f 1/1/1 4/4/1 3/3/1
f 5/5/1 3/3/1 4/4/1
f 4/4/1 6/6/1 5/5/1
f 8/8/1 7/7/1 2/2/1
f 2/2/1 3/3/1 8/8/1
f 10/10/1 9/9/1 7/7/1
f 7/7/1 8/8/1 10/10/1
f 11/11/1 10/10/1 8/8/1
f 8/8/1 12/12/1 11/11/1
f 12/12/1 8/8/1 3/3/1
f 3/3/1 5/5/1 12/12/1
f 13/13/1 12/12/1 5/5/1
f 5/5/1 14/14/1 13/13/1
f 15/15/1 11/11/1 12/12/1
f 12/12/1 13/13/1 15/15/1
f 16/16/1 15/15/1 13/13/1
f 13/13/1 17/17/1 16/16/1
f 17/17/1 13/13/1 14/14/1
f 14/14/1 18/18/1 17/17/1
f 14/14/1 5/5/1 6/6/1
f 6/6/1 19/19/1 14/14/1
f 18/18/1 14/14/1 19/19/1
f 19/19/1 20/20/1 18/18/1
f 22/23/2 21/22/2 9/21/2
f 9/21/2 10/24/2 22/23/2
f 24/26/2 23/25/2 21/22/2
f 21/22/2 22/23/2 24/26/2
f 25/27/2 24/26/2 22/23/2
f 22/23/2 26/28/2 25/27/2
f 26/28/2 22/23/2 10/24/2
f 10/24/2 11/29/2 26/28/2
f 28/10/2 27/9/2 23/25/2
f 23/25/2 24/26/2 28/10/2
f 30/31/2 29/30/2 27/9/2
f 27/9/2 28/10/2 30/31/2
f 31/32/2 30/31/2 28/10/2
f 28/10/2 32/11/2 31/32/2
f 32/11/2 28/10/2 24/26/2
f 24/26/2 25/27/2 32/11/2
f 33/15/2 32/11/2 25/27/2
f 25/27/2 34/33/2 33/15/2
f 35/34/2 31/32/2 32/11/2
f 32/11/2 33/15/2 35/34/2
f 36/35/2 35/34/2 33/15/2
f 33/15/2 37/16/2 36/35/2
f 37/16/2 33/15/2 34/33/2
f 34/33/2 38/36/2 37/16/2
f 39/37/2 26/28/2 11/29/2
f 11/29/2 15/38/2 39/37/2
f 34/33/2 25/27/2 26/28/2
f 26/28/2 39/37/2 34/33/2
f 38/36/2 34/33/2 39/37/2
f 39/37/2 40/39/2 38/36/2
f 40/39/2 39/37/2 15/38/2
f 15/38/2 16/40/2 40/39/2
f 44/44/3 43/43/3 42/42/3
f 42/42/3 41/41/3 44/44/3
f 30/46/3 31/45/3 42/42/3
f 42/42/3 43/43/3 30/46/3
f 30/46/3 43/43/3 45/48/3
f 45/48/3 29/47/3 30/46/3
f 46/49/3 45/48/3 43/43/3
f 43/43/3 44/44/3 46/49/3
f 44/44/3 41/41/3 47/50/3
f 47/50/3 48/51/3 44/44/3
f 46/49/3 44/44/3 48/51/3
f 48/51/3 49/52/3 46/49/3
f 52/55/3 51/54/3 50/53/3
f 50/53/3 53/56/3 52/55/3
f 52/55/3 53/56/3 47/50/3
f 47/50/3 41/41/3 52/55/3
f 52/55/3 55/58/3 54/57/3
f 54/57/3 51/54/3 52/55/3
f 35/60/3 36/59/3 54/57/3
f 54/57/3 55/58/3 35/60/3
f 35/60/3 55/58/3 42/42/3
f 42/42/3 31/45/3 35/60/3
f 41/41/3 42/42/3 55/58/3
f 55/58/3 52/55/3 41/41/3
f 58/63/4 57/62/4 56/61/4
f 56/61/4 59/64/4 58/63/4
f 20/52/4 58/63/4 59/64/4
f 59/64/4 18/49/4 20/52/4
f 60/66/4 38/65/4 40/68/4
f 40/68/4 61/67/4 60/66/4
f 56/61/4 60/66/4 61/67/4
f 61/67/4 59/64/4 56/61/4
f 18/49/4 59/64/4 61/67/4
f 61/67/4 17/48/4 18/49/4
f 61/67/4 40/68/4 16/47/4
f 16/47/4 17/48/4 61/67/4
f 54/70/4 36/69/4 37/72/4
f 37/72/4 62/71/4 54/70/4
f 51/73/4 54/70/4 62/71/4
f 62/71/4 63/74/4 51/73/4
f 56/61/4 63/74/4 62/71/4
f 62/71/4 60/66/4 56/61/4
f 62/71/4 37/72/4 38/65/4
f 38/65/4 60/66/4 62/71/4
f 64/76/4 50/75/4 51/73/4
f 51/73/4 63/74/4 64/76/4
f 57/62/4 64/76/4 63/74/4
f 63/74/4 56/61/4 57/62/4
f 66/78/5 65/77/5 68/80/5
f 68/80/5 67/79/5 66/78/5
f 49/81/5 67/79/5 68/80/5
f 68/80/5 46/82/5 49/81/5
f 69/84/5 23/83/5 27/86/5
f 27/86/5 70/85/5 69/84/5
f 65/77/5 69/84/5 70/85/5
f 70/85/5 68/80/5 65/77/5
f 46/82/5 68/80/5 70/85/5
f 70/85/5 45/87/5 46/82/5
f 45/87/5 70/85/5 27/86/5
f 27/86/5 29/88/5 45/87/5
f 71/89/5 7/7/5 9/9/5
f 9/9/5 21/90/5 71/89/5
f 72/91/5 2/2/5 7/7/5
f 7/7/5 71/89/5 72/91/5
f 65/77/5 72/91/5 71/89/5
f 71/89/5 69/84/5 65/77/5
f 69/84/5 71/89/5 21/90/5
f 21/90/5 23/83/5 69/84/5
f 73/92/5 1/1/5 2/2/5
f 2/2/5 72/91/5 73/92/5
f 66/78/5 73/92/5 72/91/5
f 72/91/5 65/77/5 66/78/5
f 95/100/6 94/99/6 93/98/6
f 93/98/6 92/97/6 95/100/6
f 94/99/6 97/102/6 96/101/6
f 96/101/6 93/98/6 94/99/6
f 98/45/6 97/102/6 94/99/6
f 94/99/6 99/103/6 98/45/6
f 100/46/6 102/105/6 101/104/6
f 101/104/6 99/103/6 100/46/6
f 99/103/6 101/104/6 103/106/6
f 103/106/6 98/45/6 99/103/6
f 85/108/6 83/107/6 103/106/6
f 103/106/6 101/104/6 85/108/6
f 85/108/6 101/104/6 102/105/6
f 102/105/6 84/109/6 85/108/6
f 104/47/6 107/112/6 106/111/6
f 106/111/6 105/110/6 104/47/6
f 105/110/6 106/111/6 102/105/6
f 102/105/6 100/46/6 105/110/6
f 87/113/6 84/109/6 102/105/6
f 102/105/6 106/111/6 87/113/6
f 87/113/6 106/111/6 107/112/6
f 107/112/6 86/114/6 87/113/6
f 110/117/6 109/116/6 108/115/6
f 108/115/6 111/118/6 110/117/6
f 95/100/6 92/97/6 109/116/6
f 109/116/6 110/117/6 95/100/6
f 105/110/6 100/46/6 95/100/6
f 95/100/6 110/117/6 105/110/6
f 104/47/6 105/110/6 110/117/6
f 110/117/6 111/118/6 104/47/6
f 112/119/6 77/29/6 78/94/6
f 78/94/6 113/120/6 112/119/6
f 114/121/6 112/119/6 113/120/6
f 113/120/6 115/122/6 114/121/6
f 115/122/6 113/120/6 117/124/6
f 117/124/6 116/123/6 115/122/6
f 113/120/6 78/94/6 75/24/6
f 75/24/6 117/124/6 113/120/6
f 119/125/6 118/41/6 114/121/6
f 114/121/6 115/122/6 119/125/6
f 93/98/6 96/101/6 118/41/6
f 118/41/6 119/125/6 93/98/6
f 92/97/6 93/98/6 119/125/6
f 119/125/6 120/44/6 92/97/6
f 120/44/6 116/123/6 122/127/6
f 122/127/6 121/126/6 120/44/6
f 92/97/6 120/44/6 121/126/6
f 121/126/6 109/116/6 92/97/6
f 109/116/6 121/126/6 123/49/6
f 123/49/6 108/115/6 109/116/6
f 121/126/6 122/127/6 124/128/6
f 124/128/6 123/49/6 121/126/6
f 125/129/6 117/124/6 75/24/6
f 75/24/6 76/93/6 125/129/6
f 122/127/6 116/123/6 117/124/6
f 117/124/6 125/129/6 122/127/6
f 124/128/6 122/127/6 125/129/6
f 125/129/6 126/130/6 124/128/6
f 126/130/6 125/129/6 76/93/6
f 76/93/6 74/21/6 126/130/6
f 128/132/6 127/131/6 82/96/6
f 82/96/6 79/38/6 128/132/6
f 127/131/6 129/133/6 81/40/6
f 81/40/6 82/96/6 127/131/6
f 131/135/6 130/134/6 129/133/6
f 129/133/6 127/131/6 131/135/6
f 132/136/6 131/135/6 127/131/6
f 127/131/6 128/132/6 132/136/6
f 133/137/6 135/54/6 130/134/6
f 130/134/6 131/135/6 133/137/6
f 137/139/6 136/138/6 135/54/6
f 135/54/6 133/137/6 137/139/6
f 137/139/6 133/137/6 134/55/6
f 134/55/6 138/140/6 137/139/6
f 134/55/6 132/136/6 139/141/6
f 139/141/6 140/142/6 134/55/6
f 138/140/6 134/55/6 140/142/6
f 140/142/6 141/143/6 138/140/6
f 96/101/6 141/143/6 140/142/6
f 140/142/6 118/41/6 96/101/6
f 142/144/6 80/95/6 77/29/6
f 77/29/6 112/119/6 142/144/6
f 142/144/6 128/132/6 79/38/6
f 79/38/6 80/95/6 142/144/6
f 139/141/6 132/136/6 128/132/6
f 128/132/6 142/144/6 139/141/6
f 139/141/6 142/144/6 112/119/6
f 112/119/6 114/121/6 139/141/6
f 144/146/6 143/145/6 136/138/6
f 136/138/6 137/139/6 144/146/6
f 145/59/6 143/145/6 144/146/6
f 144/146/6 146/147/6 145/59/6
f 144/146/6 137/139/6 138/140/6
f 138/140/6 148/148/6 144/146/6
f 149/149/6 145/59/6 146/147/6
f 146/147/6 150/150/6 149/149/6
f 88/151/6 149/149/6 150/150/6
f 150/150/6 90/152/6 88/151/6
f 89/153/6 90/152/6 150/150/6
f 150/150/6 151/154/6 89/153/6
f 150/150/6 146/147/6 147/60/6
f 147/60/6 151/154/6 150/150/6
f 151/154/6 147/60/6 153/156/6
f 153/156/6 152/155/6 151/154/6
f 91/157/6 89/153/6 151/154/6
f 151/154/6 152/155/6 91/157/6
f 91/157/6 152/155/6 103/106/6
f 103/106/6 83/107/6 91/157/6
f 152/155/6 153/156/6 98/45/6
f 98/45/6 103/106/6 152/155/6
f 97/102/6 154/158/6 141/143/6
f 141/143/6 96/101/6 97/102/6
f 148/148/6 138/140/6 141/143/6
f 141/143/6 154/158/6 148/148/6
f 147/60/6 148/148/6 154/158/6
f 154/158/6 153/156/6 147/60/6

usemtl Light-DarkRed
f 100/46/6 99/103/6 94/99/6 95/100/6
f 120/44/6 119/125/6 115/122/6 116/123/6
f 134/55/6 133/137/6 131/135/6 132/136/6
f 114/121/6 118/41/6 140/142/6 139/141/6
f 147/60/6 146/147/6 144/146/6 148/148/6
f 98/45/6 153/156/6 154/158/6 97/102/6

