# ProBuilder 4.4.0
# https://unity3d.com/unity/features/worldbuilding/probuilder
# 2020/9/13 15:45:11

mtllib ./OfficeRoom_Variant1_Remake_WithoutWindow.mtl
o OfficeRoom_Variant1_Remake_WithoutWindow

g OfficeRoom_Variant1_Remake_WithoutWindow
v 3.6853 -1.75 7.357
v -3.6847 -1.75 7.357
v 3.6853 -1.55 7.357
v -3.6847 -1.55 7.357
v 3.6853 -1.75 -0.263
v 3.6853 -1.55 -0.263
v -3.6847 -1.55 -0.263
v 3.6853 1.75 7.357
v -3.6847 1.75 7.357
v 3.6853 1.55 7.357
v -3.6847 1.55 7.357
v -3.6847 1.75 -0.01300001
v -3.6847 1.55 -0.01300001
v -3.6847 1.75 -0.263
v 3.6853 1.75 -0.263
v -3.6847 1.55 -0.263
v 3.6853 1.55 -0.263
v 3.6853 1.75 -0.01300001
v 3.6853 1.55 -0.01300001
v -3.6847 1.35 -0.01300001
v 3.6853 1.35 -0.01300001
v -3.6847 1.35 -0.263
v 3.6853 1.35 -0.263
v 3.544 -1.559 7.369
v 0.7939999 -1.559 7.369
v 3.544 1.066 7.369
v 0.7939999 1.066 7.369
v -0.806 -1.559 7.369
v -3.556 -1.559 7.369
v 3.544 1.541 7.369
v 0.7939999 1.541 7.369
v -0.806 1.066 7.369
v -3.556 1.066 7.369
v -0.806 1.541 7.369
v -3.556 1.541 7.369
v 0.7939999 -1.559 7.269
v 3.544 -1.559 7.269
v -3.556 -1.559 7.269
v -0.806 -1.559 7.269
v -3.556 1.066 7.269
v -0.806 1.066 7.269
v 0.7939999 1.066 7.269
v 3.544 1.066 7.269
v 0.7939999 1.541 7.269
v 3.544 1.541 7.269
v -3.556 1.541 7.269
v -0.806 1.541 7.269
v -3.656 -1.559 7.369
v -3.656 1.066 7.369
v -3.656 1.541 7.369
v -3.656 1.541 7.269
v -3.656 1.066 7.269
v -3.656 -1.559 7.269
v 3.644 -1.559 7.369
v 3.644 -1.559 7.269
v 3.644 1.066 7.269
v 3.644 1.541 7.269
v 3.644 1.541 7.369
v 3.644 1.066 7.369
v 3.544 1.066 -0.131
v 3.544 -1.559 -0.131
v 3.544 1.541 -0.131
v 3.644 1.541 -0.131
v -3.556 -1.559 -0.131
v -3.556 1.066 -0.131
v -3.556 1.541 -0.131
v -3.656 1.541 -0.131
v 3.644 1.541 -0.3309999
v 3.544 1.541 -0.3309999
v -3.556 1.541 -0.3309999
v -3.656 1.541 -0.3309999
v -2.056 1.541 -0.131
v -2.056 1.541 -0.3309999
v -2.056 0.566 -0.131
v 2.044 1.541 -0.131
v 2.044 0.566 -0.131
v 2.044 1.541 -0.3309999
v 0.04399991 1.541 -0.131
v 0.04399991 0.566 -0.131
v 0.04399991 1.541 -0.3309999
v 2.044 0.566 -0.3309999
v 0.04399991 0.566 -0.3309999
v -0.05599999 0.566 -0.131
v -0.05599999 1.541 -0.131
v -2.056 0.566 -0.3309999
v -0.05599999 0.566 -0.3309999
v -0.05599999 1.541 -0.3309999
v -0.006000042 1.541 -0.131
v -0.006000042 0.566 -0.131
v -0.006000042 1.541 -0.3309999
v -0.006000042 0.566 -0.3309999
v -2.056 -1.559 -0.131
v -2.056 -0.4965 -0.131
v 2.044 -1.559 -0.131
v 2.044 -0.4965 -0.131
v 2.044 -0.4965 -0.3309999
v -2.056 -0.4965 -0.3309999
v -0.006000042 -1.559 -0.131
v -0.006000042 -0.4965 -0.131
v -0.006000042 -0.4965 -0.3309999

vt 0 0
vt -7.37 0
vt 0 0.2
vt -7.37 0.2
vt 7.62 0
vt 7.62 0.2
vt 7.37 0
vt 0 -7.62
vt 7.37 -7.62
vt 0 -0.2
vt -7.37 -0.2
vt 7.37 -0.2
vt 0 -7.37
vt -7.37 -7.37
vt -7.37 -7.62
vt 7.62 -0.2
vt 7.37 -7.37
vt -7.62 0
vt -7.62 -0.2
vt -7.37 -0.1999996
vt 0 -0.1999996
vt -7.37 -0.3999996
vt 0 -0.3999996
vt -7.62 -0.1999996
vt -7.62 -0.3999996
vt 7.37 -0.1999996
vt 7.62 -0.1999996
vt 7.37 -0.3999996
vt 7.62 -0.3999996
vt 0.75 0
vt -2 0
vt 0.75 2.625
vt -2 2.625
vt -3.6 0
vt -6.35 0
vt 0.75 3.1
vt -2 3.1
vt -3.6 2.625
vt -6.35 2.625
vt -3.6 3.1
vt -6.35 3.1
vt 2 0
vt -0.75 0
vt 6.35 0
vt 3.6 0
vt 6.35 2.625
vt 3.6 2.625
vt 2 2.625
vt -0.75 2.625
vt 2 3.1
vt -0.75 3.1
vt 6.35 3.1
vt 3.6 3.1
vt -3.6 -0.09999999
vt -2 -0.09999999
vt 0.09999999 0
vt 0.09999999 2.625
vt -3.72529E-09 2.625
vt -0.09999999 0
vt -0.09999999 2.625
vt 0 3.1
vt -0.0999999 3.1
vt 0.0999999 3.1
vt 0.85 2.625
vt 0.85 3.1
vt -0.75 -0.0999999
vt -0.85 0
vt -0.85 -0.0999999
vt 0.85 0
vt -6.45 2.625
vt -6.45 0
vt -6.45 3.1
vt 6.35 -0.0999999
vt 6.45 -0.0999999
vt 6.45 0
vt -7.5 2.625
vt -7.5 0
vt -7.5 3.1
vt -0.85 -7.5
vt -0.75 -7.5
vt 7.5 0
vt 7.5 2.625
vt 6.35 -7.5
vt 6.45 -7.5
vt 7.5 3.1
vt -0.85 -7.7
vt -0.75 -7.7
vt 6.35 -7.7
vt 6.45 -7.7
vt 4.85 -7.5
vt 4.85 -7.7
vt -4.85 2.125
vt -4.85 3.1
vt -0.75 2.125
vt 0.75 -7.7
vt 0.75 -7.5
vt -2.75 3.1
vt -2.75 2.125
vt 2.75 -7.7
vt 2.75 -7.5
vt -2.75 -7.5
vt -2.75 -7.7
vt -2.85 2.125
vt -2.85 3.1
vt -4.85 -7.7
vt -4.85 -7.5
vt -2.85 -7.7
vt -2.85 -7.5
vt 2.85 -7.5
vt 2.85 -7.7
vt -2.8 3.1
vt -2.8 2.125
vt 2.8 -7.7
vt 2.8 -7.5
vt -2.8 -7.5
vt -2.8 -7.7
vt -4.85 0
vt -4.85 1.0625
vt -0.75 1.0625
vt -7.7 1.0625
vt -7.7 2.125
vt -7.5 2.125
vt -7.5 1.0625
vt 7.5 1.0625
vt 7.5 2.125
vt 7.7 2.125
vt 7.7 1.0625
vt -2.8 0
vt -2.8 1.0625
vt -0.7499999 1.0625
vt -0.7499999 0
vt 0.7499999 -7.7
vt 0.7499999 -7.5

vn 0 0 1
vn 1 0 0
vn 0 1 0
vn -1 0 0
vn 0 0 -1
vn 0 -1 0

usemtl SCP-OZ-Floor
f 3/3/1 4/4/1 2/2/1 1/1/1
f 6/6/2 3/3/2 1/1/2 5/5/2
f 6/8/3 7/9/3 4/7/3 3/1/3

usemtl Bumped_Glass

usemtl SCP-OZ-Wall_2
f 52/60/4 53/59/4 48/1/4
f 52/60/4 48/1/4 49/58/4
f 51/62/4 52/60/4 49/58/4
f 51/62/4 49/58/4 50/61/4
f 58/61/2 59/58/2 57/63/2
f 59/58/2 56/57/2 57/63/2
f 59/58/2 54/1/2 56/57/2
f 54/1/2 55/56/2 56/57/2
f 44/50/5 43/49/5 42/48/5
f 44/50/5 45/51/5 43/49/5
f 42/48/5 37/43/5 36/42/5
f 42/48/5 43/49/5 37/43/5
f 40/46/5 39/45/5 38/44/5
f 40/46/5 41/47/5 39/45/5
f 46/52/5 41/47/5 40/46/5
f 46/52/5 47/53/5 41/47/5
f 26/32/1 25/31/1 24/30/1
f 26/32/1 27/33/1 25/31/1
f 30/36/1 27/33/1 26/32/1
f 30/36/1 31/37/1 27/33/1
f 34/40/1 33/39/1 32/38/1
f 34/40/1 35/41/1 33/39/1
f 32/38/1 29/35/1 28/34/1
f 32/38/1 33/39/1 29/35/1
f 64/35/1 92/117/1 93/118/1
f 65/39/1 64/35/1 93/118/1
f 74/92/1 65/39/1 93/118/1
f 95/119/1 94/43/1 61/30/1
f 60/32/1 95/119/1 61/30/1
f 60/32/1 76/94/1 95/119/1
f 9/2/1 11/11/1 10/10/1
f 10/10/1 8/1/1 9/2/1
f 12/2/4 13/11/4 11/10/4
f 11/10/4 9/1/4 12/2/4
f 15/1/5 17/10/5 16/12/5
f 16/12/5 14/7/5 15/1/5
f 8/1/2 10/10/2 19/12/2
f 19/12/2 18/7/2 8/1/2
f 11/2/6 13/14/6 19/13/6
f 19/13/6 10/1/6 11/2/6
f 23/8/6 21/13/6 20/14/6
f 20/14/6 22/15/6 23/8/6
f 15/5/2 18/7/2 19/12/2
f 19/12/2 17/16/2 15/5/2
f 14/9/3 12/17/3 18/13/3
f 18/13/3 15/8/3 14/9/3
f 16/19/4 13/11/4 12/2/4
f 12/2/4 14/18/4 16/19/4
f 21/23/1 19/21/1 13/20/1
f 13/20/1 20/22/1 21/23/1
f 20/22/4 13/20/4 16/24/4
f 16/24/4 22/25/4 20/22/4
f 23/29/2 17/27/2 19/26/2
f 19/26/2 21/28/2 23/29/2
f 22/28/5 16/26/5 17/21/5
f 17/21/5 23/23/5 22/28/5
f 34/40/1 32/38/1 27/33/1
f 27/33/1 31/37/1 34/40/1
f 44/50/5 42/48/5 41/47/5
f 41/47/5 47/53/5 44/50/5
f 42/55/6 27/31/6 32/34/6
f 32/34/6 41/54/6 42/55/6
f 32/58/2 28/1/2 39/56/2
f 39/56/2 41/57/2 32/58/2
f 42/60/4 36/59/4 25/1/4
f 25/1/4 27/58/4 42/60/4
f 58/65/1 30/36/1 26/32/1
f 26/32/1 59/64/1 58/65/1
f 57/68/3 45/66/3 30/43/3
f 30/43/3 58/67/3 57/68/3
f 59/64/1 26/32/1 24/30/1
f 24/30/1 54/69/1 59/64/1
f 48/71/1 29/35/1 33/39/1
f 33/39/1 49/70/1 48/71/1
f 49/70/1 33/39/1 35/41/1
f 35/41/1 50/72/1 49/70/1
f 50/75/3 35/44/3 46/73/3
f 46/73/3 51/74/3 50/75/3
f 61/77/4 37/59/4 43/60/4
f 43/60/4 60/76/4 61/77/4
f 60/76/4 43/60/4 45/62/4
f 45/62/4 62/78/4 60/76/4
f 62/80/3 45/66/3 57/68/3
f 57/68/3 63/79/3 62/80/3
f 65/82/2 40/57/2 38/56/2
f 38/56/2 64/81/2 65/82/2
f 67/84/3 51/74/3 46/73/3
f 46/73/3 66/83/3 67/84/3
f 66/85/2 46/63/2 40/57/2
f 40/57/2 65/82/2 66/85/2
f 69/87/3 62/80/3 63/79/3
f 63/79/3 68/86/3 69/87/3
f 71/89/3 67/84/3 66/83/3
f 66/83/3 70/88/3 71/89/3
f 73/91/3 70/88/3 66/83/3
f 66/83/3 72/90/3 73/91/3
f 72/93/1 66/41/1 65/39/1
f 65/39/1 74/92/1 72/93/1
f 76/94/1 60/32/1 62/36/1
f 62/36/1 75/51/1 76/94/1
f 75/96/3 62/80/3 69/87/3
f 69/87/3 77/95/3 75/96/3
f 79/98/1 76/94/1 75/51/1
f 75/51/1 78/97/1 79/98/1
f 78/100/3 75/96/3 77/95/3
f 77/95/3 80/99/3 78/100/3
f 82/102/6 81/87/6 76/80/6
f 76/80/6 79/101/6 82/102/6
f 84/104/1 72/93/1 74/92/1
f 74/92/1 83/103/1 84/104/1
f 83/108/6 74/106/6 85/105/6
f 85/105/6 86/107/6 83/108/6
f 87/110/3 73/91/3 72/90/3
f 72/90/3 84/109/3 87/110/3
f 89/112/1 79/98/1 78/97/1
f 78/97/1 88/111/1 89/112/1
f 88/114/3 78/100/3 80/99/3
f 80/99/3 90/113/3 88/114/3
f 91/116/6 82/102/6 79/101/6
f 79/101/6 89/115/6 91/116/6
f 88/111/1 84/104/1 83/103/1
f 83/103/1 89/112/1 88/111/1
f 89/115/6 83/108/6 86/107/6
f 86/107/6 91/116/6 89/115/6
f 90/113/3 87/110/3 84/109/3
f 84/109/3 88/114/3 90/113/3
f 81/121/4 96/120/4 95/123/4
f 95/123/4 76/122/4 81/121/4
f 85/126/2 74/125/2 93/124/2
f 93/124/2 97/127/2 85/126/2
f 99/129/1 93/118/1 92/117/1
f 92/117/1 98/128/1 99/129/1
f 100/113/3 97/91/3 93/90/3
f 93/90/3 99/114/3 100/113/3
f 98/128/1 94/131/1 95/130/1
f 95/130/1 99/129/1 98/128/1
f 99/114/3 95/133/3 96/132/3
f 96/132/3 100/113/3 99/114/3

