# ProBuilder 4.4.0
# https://unity3d.com/unity/features/worldbuilding/probuilder
# 2020/9/18 16:32:18

mtllib ./Desk2_Remake.mtl
o Desk2_Remake

g Desk2_Remake
v 0 1.165601 0
v -0.5613728 1.165601 0
v 0 1.165601 -0.9703522
v -0.5613728 1.165601 -0.9703522
v 0 1 -0.9703522
v 0 1 0
v 0 1.02 -0.9703522
v 0 1.02 0
v -1.935453 1 0
v -1.935453 1 -0.9703522
v -1.935453 1.019997 0
v -1.935453 1.019997 -0.9703522
v -0.5613728 1 -0.9703522
v -0.5613728 1.02 -0.9703522
v -0.5613728 1.02 0
v 0 1.115601 0
v -0.5613728 1.115601 0
v 0 1.115601 -0.9703522
v -0.5613728 1.115601 -0.9703522
v 0 1.115601 0.05
v -0.5613728 1.115601 0.05
v 0 1.165601 0.05
v -0.5613728 1.165601 0.05
v -2.033092 1.115601 0
v -2.033092 1.115601 -0.9703522
v -2.033092 1.165604 0
v -2.033092 1.165604 -0.9703522
v -0.5613728 1.115601 -1.020352
v 0 1.115601 -1.020352
v -0.5613728 1.165601 -1.020352
v 0 1.165601 -1.020352
v -1.933092 1.115601 0
v -1.933092 1.115601 -0.9703522
v -1.933092 1.165604 0.05
v -1.933092 1.115601 0.05
v -1.933092 1.115601 -1.020352
v -1.933092 1.165604 -1.020352
v -1.933092 1.165604 -0.9703522
v -1.933092 1.165604 0
v -1.933092 0.007949829 0
v -1.933092 0.007949829 -0.9703522
v -1.983091 0.007949829 0
v -1.983091 0.007949829 -0.9703522
v -1.983092 1.165604 0.05
v -1.983092 1.115601 0.05
v -1.983092 1.115601 -1.020352
v -1.983092 1.165604 -1.020352
v -1.983092 1.165604 -0.9703522
v -1.983092 1.165604 0
v -1.983092 1.115601 0
v -1.983092 1.115601 -0.9703522
v -2.033092 1.165604 0.05
v -2.033092 1.115601 0.05
v -2.033092 1.115601 -1.020352
v -2.033092 1.165604 -1.020352
v -1.933092 1.045334 0
v -1.933092 1.045334 -0.9703522
v -1.983091 1.045334 0
v -1.983091 1.045334 -0.9703522
v -1.933092 1.014404 0
v -1.933092 1.014404 -0.9703522
v -1.983091 1.014404 0
v -1.983091 1.014404 -0.9703522
v -0.5613728 1 0
v 0 0.25 -0.9703522
v 0 0.25 0
v -0.5613728 0.25 0
v -0.5613728 0.25 -0.9703522
v -0.2806864 1 0
v -0.5210296 1 0
v -0.04034319 1 0
v -0.5210296 0.4375 0
v -0.5210296 0.25 0
v -0.5210296 0.625 0
v -0.5210296 0.8125 0
v -0.5210296 0.66875 0
v -0.5210296 0.48125 0
v -0.5210296 0.85625 0
v -0.5210296 0.29375 0
v -0.04034319 0.25 0
v -0.04034319 0.4375 0
v -0.04034319 0.625 0
v -0.04034319 0.8125 0
v -0.04034319 0.66875 0
v -0.04034319 0.48125 0
v -0.04034319 0.29375 0
v -0.04034319 0.85625 0
v -0.04034319 1 0.02
v -0.04034319 0.85625 0.02
v -0.5210296 0.85625 0.02
v -0.5210296 1 0.02
v -0.2806864 1 0.02
v -0.5210296 0.66875 0.02
v -0.5210296 0.8125 0.02
v -0.04034319 0.8125 0.02
v -0.04034319 0.66875 0.02
v -0.5210296 0.48125 0.02
v -0.5210296 0.625 0.02
v -0.04034319 0.625 0.02
v -0.04034319 0.48125 0.02
v -0.2806864 0.25 0
v -0.04034319 0.29375 0.02
v -0.5210296 0.29375 0.02
v -0.5210296 0.4375 0.02
v -0.04034319 0.4375 0.02
v -0.2806864 0.25 -0.9703522
v -0.5210296 0.25 -0.9703522
v -0.04034319 0.25 -0.9703522
v -0.5210296 7.450581E-09 -0.9703522
v -0.5613728 7.450581E-09 -0.9703522
v -0.5613728 7.450581E-09 0
v -0.5210296 7.450581E-09 0
v -0.04034319 7.450581E-09 0
v 0 7.450581E-09 0
v 0 7.450581E-09 -0.9703522
v -0.04034319 7.450581E-09 -0.9703522

vt 0.1403432 0.7777641
vt 0.4210296 0.7777641
vt 0.1403432 0.292588
vt 0.4210296 0.292588
vt 0.7777641 1.005
vt 0.292588 1.005
vt 0.7777641 1.015
vt 0.292588 1.015
vt 0.4210296 1.005
vt 0.1403432 1.005
vt 0.4210296 1.015
vt 0.1403432 1.015
vt 1.892749 1.0439
vt 1.612062 1.0439
vt 1.892749 1.0917
vt 1.612062 1.0917
vt 0.7777641 1.0439
vt 0.292588 1.0439
vt 0.7777641 1.0917
vt 0.292588 1.0917
vt 0.4210296 1.0439
vt 0.1403432 1.0439
vt 0.4210296 1.0917
vt 0.1403432 1.0917
vt 1.892749 1.128101
vt 1.612062 1.128101
vt 1.892749 1.1531
vt 1.612062 1.1531
vt 0.7777641 1.128101
vt 0.292588 1.128101
vt 0.7777641 1.1531
vt 0.292588 1.1531
vt 0.4210296 1.128101
vt 0.1403432 1.128101
vt 0.4210296 1.1531
vt 0.1403432 1.1531
vt 1.128789 0.7777641
vt 1.128789 0.292588
vt 0.4429297 0.7777641
vt 0.4429297 0.292588
vt 1.128789 1.153101
vt 1.128789 1.128101
vt 0.4429297 1.153103
vt 0.4429297 1.128101
vt 0.9043026 1.128101
vt 0.9043026 1.153101
vt 1.590162 1.128101
vt 1.590162 1.153103
vt 0.9043026 0.292588
vt 0.9043026 0.7777641
vt 1.590162 0.292588
vt 1.590162 0.7777641
vt 0.0875001 0.7777641
vt 0.0875001 0.292588
vt 0.06250048 0.7777641
vt 0.06250048 0.292588
vt 0.08749986 1.153103
vt 0.08749986 1.128101
vt 0.0625 1.153103
vt 0.0625 1.128101
vt 1.945592 1.128101
vt 1.945592 1.153103
vt 1.970592 1.128101
vt 1.970592 1.153103
vt 1.945592 0.292588
vt 1.945592 0.7777641
vt 1.970592 0.292588
vt 1.970592 0.7777641
vt 0.03750002 0.7777641
vt 0.03750002 0.292588
vt 0.01250005 0.7777641
vt 0.01250005 0.292588
vt 0.03750002 1.153103
vt 0.03750002 1.128101
vt 0.01250005 1.153103
vt 0.01250005 1.128101
vt 1.995592 1.128101
vt 1.995592 1.153103
vt 2.020592 1.128101
vt 2.020592 1.153103
vt 1.995592 0.292588
vt 1.995592 0.7777641
vt 2.020592 0.292588
vt 2.020592 0.7777641
vt 1.892749 1.032852
vt 1.612062 1.032852
vt 1.892749 1.057852
vt 1.612062 1.057852
vt 1.970592 1.032852
vt 1.945592 1.032852
vt 1.970592 1.057852
vt 1.945592 1.057852
vt 0.08749986 1.032852
vt 0.0625 1.032852
vt 0.08749986 1.057852
vt 0.0625 1.057852
vt 2.020592 1.032852
vt 1.995592 1.032852
vt 2.020592 1.057852
vt 1.995592 1.057852
vt 0.4210296 1.032852
vt 0.1403432 1.032852
vt 0.4210296 1.057852
vt 0.1403432 1.057852
vt 1.590162 1.032852
vt 0.9043026 1.032852
vt 1.590162 1.057852
vt 0.9043026 1.057852
vt 1.128789 1.032852
vt 0.4429297 1.032852
vt 1.128789 1.057852
vt 0.4429297 1.057852
vt 0.0125 1.1531
vt 0.0125 1.128101
vt 0.03750002 1.032852
vt 0.01250005 1.032852
vt 0.03750002 1.057852
vt 0.01250005 1.057852
vt 1.032852 1.128101
vt 1.032852 1.153103
vt 1.057852 1.128101
vt 1.057852 1.153103
vt 1.612062 0.03749996
vt 1.892749 0.03749996
vt 1.612062 0.01250005
vt 1.892749 0.01250005
vt 0.4429297 0.03749996
vt 1.128789 0.03749996
vt 0.4429297 0.01250005
vt 1.128789 0.01250005
vt 0.1403432 0.03749996
vt 0.4210296 0.03749996
vt 0.1403432 0.01250005
vt 0.4210296 0.01250005
vt 0.9043026 0.03749996
vt 1.590162 0.03749996
vt 0.9043026 0.01250005
vt 1.590162 0.01250005
vt 0.0625 0.03749996
vt 0.08749986 0.03749996
vt 0.0625 0.01250005
vt 0.08749986 0.01250005
vt 1.945592 0.03749996
vt 1.970592 0.03749996
vt 1.945592 0.01250005
vt 1.970592 0.01250005
vt 0.01250005 0.03749996
vt 0.03750002 0.03749996
vt 0.01250005 0.01250005
vt 0.03750002 0.01250005
vt 1.995592 0.03749996
vt 2.020592 0.03749996
vt 1.995592 0.01250005
vt 2.020592 0.01250005
vt 0.03749996 1.153103
vt 0.03749996 1.128101
vt 0.292588 1.098034
vt 0.7777641 1.098034
vt 0.292588 1.062901
vt 0.7777641 1.062901
vt 0.0625 1.098034
vt 0.08749986 1.098034
vt 0.06250024 1.062901
vt 0.08749986 1.062901
vt 1.945592 1.098034
vt 1.970592 1.098034
vt 1.945592 1.062901
vt 1.970592 1.062901
vt 0.292588 1.037601
vt 0.7777641 1.037601
vt 0.292588 1.022137
vt 0.7777641 1.022137
vt 0.06250048 1.037601
vt 0.0875001 1.037601
vt 0.06250048 1.022137
vt 0.0875001 1.022137
vt 1.945592 1.037601
vt 1.970592 1.037601
vt 1.945592 1.022137
vt 1.970592 1.022137
vt 0.292588 0.7627907
vt 0.7777641 0.7627907
vt 0.292588 0.2595634
vt 0.7777641 0.2595634
vt 0.06250048 0.7627907
vt 0.0875001 0.7627907
vt 0.06250048 0.2595634
vt 0.0875001 0.2595634
vt 1.945592 0.7627907
vt 1.970592 0.7627907
vt 1.945592 0.2595634
vt 1.970592 0.2595634
vt 1.128199 0.7777641
vt 1.128199 0.292588
vt 0.4411588 0.7777641
vt 0.4411588 0.292588
vt 1.128199 1.015
vt 1.128199 1.005
vt 0.4411588 1.014998
vt 0.4411588 1.005
vt 0.9048929 1.005
vt 0.9048929 1.015
vt 1.591933 1.005
vt 1.591933 1.014998
vt 0.9048929 0.292588
vt 0.9048929 0.7777641
vt 1.591933 0.292588
vt 1.591933 0.7777641
vt 0.292588 0.4375
vt 0.7777641 0.4375
vt 0.292588 0.8125
vt 0.7777641 0.8125
vt 1.752406 1.005
vt 1.612062 1.005
vt 1.612062 1.015
vt 1.892749 1.015
vt 1.892749 1.005
vt 1.632234 1.005
vt 1.872577 1.005
vt 1.501977 0.53125
vt 1.501977 0.4375
vt 1.481805 0.4375
vt 1.501977 0.625
vt 1.481805 0.8125
vt 1.501977 0.71875
vt 1.501977 0.8125
vt 1.501977 0.646875
vt 1.501977 0.553125
vt 1.501977 0.740625
vt 1.501977 0.459375
vt 2.023006 0.4375
vt 2.002835 0.4375
vt 2.002835 0.53125
vt 2.002835 0.625
vt 2.023006 0.8125
vt 2.002835 0.71875
vt 2.002835 0.8125
vt 2.002835 0.646875
vt 2.002835 0.553125
vt 2.002835 0.459375
vt 2.002835 0.740625
vt 1.872577 0.9640625
vt 1.872577 0.8921875
vt 1.632234 0.8921875
vt 1.632234 0.9640625
vt 1.752406 0.9640625
vt 1.632234 0.8234375
vt 1.632234 0.8453125
vt 1.872577 0.8453125
vt 1.872577 0.8234375
vt 1.632234 0.7046875
vt 1.632234 0.7765625
vt 1.872577 0.7765625
vt 1.872577 0.7046875
vt 1.632234 0.6359375
vt 1.632234 0.6578125
vt 1.872577 0.6578125
vt 1.872577 0.6359375
vt 1.632234 0.5171875
vt 1.632234 0.5890625
vt 1.872577 0.5890625
vt 1.872577 0.5171875
vt 1.752406 0.2609375
vt 1.632234 0.2609375
vt 1.632234 0.2828125
vt 1.872577 0.2828125
vt 1.872577 0.2609375
vt 1.872577 0.3296875
vt 1.632234 0.3296875
vt 1.632234 0.4015625
vt 1.872577 0.4015625
vt 1.632234 0.4484375
vt 1.632234 0.4703125
vt 1.872577 0.4703125
vt 1.872577 0.4484375
vt 0.045 0.9640625
vt 0.045 0.8921875
vt 0.035 0.9640625
vt 0.035 0.8921875
vt 0.2206006 1.025352
vt 0.100429 1.025352
vt 0.2206006 1.035352
vt 0.100429 1.035352
vt 1.872577 1.025352
vt 1.632234 1.025352
vt 1.872577 1.035352
vt 1.632234 1.035352
vt 1.025352 0.8921875
vt 1.025352 0.9640625
vt 1.035352 0.8921875
vt 1.035352 0.9640625
vt 0.4609438 1.025352
vt 0.3407722 1.025352
vt 0.4609438 1.035352
vt 0.3407722 1.035352
vt 1.025352 0.7046875
vt 1.025352 0.7765625
vt 1.035352 0.7046875
vt 1.035352 0.7765625
vt 0.045 0.7765625
vt 0.045 0.7046875
vt 0.035 0.7765625
vt 0.035 0.7046875
vt 0.400858 1.025352
vt 0.1605148 1.025352
vt 0.400858 1.035352
vt 0.1605148 1.035352
vt 1.025352 0.5171875
vt 1.025352 0.5890625
vt 1.035352 0.5171875
vt 1.035352 0.5890625
vt 0.045 0.5890625
vt 0.045 0.5171875
vt 0.035 0.5890625
vt 0.035 0.5171875
vt 1.025352 0.3296875
vt 1.025352 0.4015625
vt 1.035352 0.3296875
vt 1.035352 0.4015625
vt 0.045 0.4015625
vt 0.045 0.3296875
vt 0.035 0.4015625
vt 0.035 0.3296875
vt 0.2806864 0.4375
vt 0.1403432 0.4375
vt 0.1403432 0.8125
vt 0.4210296 0.8125
vt 0.4210296 0.4375
vt 0.400858 0.4375
vt 0.1605148 0.4375
vt 0.2806864 0.25
vt 1.501977 0.292588
vt 1.481805 0.292588
vt 1.481805 0.7777641
vt 1.501977 0.7777641
vt 1.872577 0.7777641
vt 1.872577 0.292588
vt 1.752406 0.292588
vt 1.632234 0.292588
vt 1.632234 0.7777641
vt 1.752406 0.7777641
vt 2.002835 0.7777641
vt 2.023006 0.7777641
vt 2.023006 0.292588
vt 2.002835 0.292588
vt 0.292588 0.1875
vt 0.7777641 0.1875
vt 0.292588 0.0625
vt 0.7777641 0.0625
vt 1.481805 0.1875
vt 1.501977 0.1875
vt 1.481805 0.0625
vt 1.501977 0.0625
vt 0.5311154 0.1875
vt 0.5512869 0.1875
vt 0.5311154 0.0625
vt 0.5512869 0.0625
vt 2.002835 0.1875
vt 2.023006 0.1875
vt 2.002835 0.0625
vt 2.023006 0.0625
vt 0.0100858 0.1875
vt 0.03025739 0.1875
vt 0.0100858 0.0625
vt 0.03025739 0.0625

vn 0 1 0
vn 1 0 0
vn -1 0 0
vn 0 0 -1
vn 0 0 1
vn 0 -1 0
vn 0.5 0 0
vn 0 0 0
vn 0.6666667 0 0
vn -0.5 0 0
vn -0.6666667 0 0

usemtl Metal_pattern_30-Darker
f 68/209/10 67/210/8 67/210/11
f 13/211/3 68/209/10 67/210/11
f 13/211/3 67/210/11 64/212/3
f 107/329/4 68/328/4 13/327/4
f 106/324/4 107/329/4 13/327/4
f 5/326/4 65/325/4 108/330/4
f 5/326/4 108/330/4 106/324/4
f 13/327/4 5/326/4 106/324/4
f 66/210/9 66/210/8 65/209/7
f 5/211/2 66/210/9 65/209/7
f 5/211/2 6/212/2 66/210/9
f 71/219/5 6/217/5 8/216/5
f 69/213/5 71/219/5 8/216/5
f 15/215/5 64/214/5 70/218/5
f 15/215/5 70/218/5 69/213/5
f 8/216/5 15/215/5 69/213/5
f 80/331/8 66/331/8 66/331/8
f 80/331/8 80/331/8 66/331/8
f 101/331/8 80/331/8 80/331/8
f 101/331/8 101/331/8 80/331/8
f 73/331/8 101/331/8 101/331/8
f 73/331/8 73/331/8 101/331/8
f 73/331/8 73/331/8 67/331/8
f 73/331/8 67/331/8 67/331/8
f 67/222/5 73/221/5 79/230/5
f 67/222/5 79/230/5 72/220/5
f 67/222/5 72/220/5 77/228/5
f 67/222/5 77/228/5 74/223/5
f 64/224/5 67/222/5 74/223/5
f 76/227/5 64/224/5 74/223/5
f 75/225/5 64/224/5 76/227/5
f 78/229/5 64/224/5 75/225/5
f 64/224/5 78/229/5 70/226/5
f 86/240/5 80/232/5 66/231/5
f 81/233/5 86/240/5 66/231/5
f 85/239/5 81/233/5 66/231/5
f 82/234/5 85/239/5 66/231/5
f 6/235/5 82/234/5 66/231/5
f 6/235/5 84/238/5 82/234/5
f 6/235/5 83/236/5 84/238/5
f 6/235/5 87/241/5 83/236/5
f 6/235/5 71/237/5 87/241/5
f 92/246/5 89/243/5 88/242/5
f 89/243/5 92/246/5 90/244/5
f 92/246/5 91/245/5 90/244/5
f 79/265/5 73/264/5 101/263/5
f 101/263/5 80/267/5 86/266/5
f 79/265/5 101/263/5 86/266/5
f 101/341/6 106/338/6 80/336/6
f 107/339/6 106/338/6 101/341/6
f 73/340/6 107/339/6 101/341/6
f 106/338/6 108/337/6 80/336/6
f 4/4/1 2/2/1 1/1/1
f 1/1/1 3/3/1 4/4/1
f 8/8/2 6/6/2 5/5/2
f 5/5/2 7/7/2 8/8/2
f 12/8/3 10/6/3 9/5/3
f 9/5/3 11/7/3 12/8/3
f 7/12/4 5/10/4 13/9/4
f 13/9/4 14/11/4 7/12/4
f 17/16/5 15/14/5 8/13/5
f 8/13/5 16/15/5 17/16/5
f 16/20/2 8/18/2 7/17/2
f 7/17/2 18/19/2 16/20/2
f 19/20/3 14/18/3 15/17/3
f 15/17/3 17/19/3 19/20/3
f 18/24/4 7/22/4 14/21/4
f 14/21/4 19/23/4 18/24/4
f 23/28/5 21/26/5 20/25/5
f 20/25/5 22/27/5 23/28/5
f 1/32/2 16/30/2 18/29/2
f 18/29/2 3/31/2 1/32/2
f 27/32/3 25/30/3 24/29/3
f 24/29/3 26/31/3 27/32/3
f 31/36/4 29/34/4 28/33/4
f 28/33/4 30/35/4 31/36/4
f 33/40/6 19/38/6 17/37/6
f 17/37/6 32/39/6 33/40/6
f 35/44/5 21/42/5 23/41/5
f 23/41/5 34/43/5 35/44/5
f 37/48/4 30/46/4 28/45/4
f 28/45/4 36/47/4 37/48/4
f 39/52/1 2/50/1 4/49/1
f 4/49/1 38/51/1 39/52/1
f 43/56/6 41/54/6 40/53/6
f 40/53/6 42/55/6 43/56/6
f 45/60/5 35/58/5 34/57/5
f 34/57/5 44/59/5 45/60/5
f 47/64/4 37/62/4 36/61/4
f 36/61/4 46/63/4 47/64/4
f 49/68/1 39/66/1 38/65/1
f 38/65/1 48/67/1 49/68/1
f 25/72/6 51/70/6 50/69/6
f 50/69/6 24/71/6 25/72/6
f 53/76/5 45/74/5 44/73/5
f 44/73/5 52/75/5 53/76/5
f 55/80/4 47/78/4 46/77/4
f 46/77/4 54/79/4 55/80/4
f 26/84/1 49/82/1 48/81/1
f 48/81/1 27/83/1 26/84/1
f 21/88/6 17/86/6 16/85/6
f 16/85/6 20/87/6 21/88/6
f 34/92/1 39/90/1 49/89/1
f 49/89/1 44/91/1 34/92/1
f 45/96/6 50/94/6 32/93/6
f 32/93/6 35/95/6 45/96/6
f 44/100/1 49/98/1 26/97/1
f 26/97/1 52/99/1 44/100/1
f 22/104/1 1/102/1 2/101/1
f 2/101/1 23/103/1 22/104/1
f 23/108/1 2/106/1 39/105/1
f 39/105/1 34/107/1 23/108/1
f 35/112/6 32/110/6 17/109/6
f 17/109/6 21/111/6 35/112/6
f 20/114/2 16/74/2 1/73/2
f 1/73/2 22/113/2 20/114/2
f 53/118/6 24/116/6 50/115/6
f 50/115/6 45/117/6 53/118/6
f 52/122/3 26/120/3 24/119/3
f 24/119/3 53/121/3 52/122/3
f 29/126/6 18/124/6 19/123/6
f 19/123/6 28/125/6 29/126/6
f 28/130/6 19/128/6 33/127/6
f 33/127/6 36/129/6 28/130/6
f 31/122/2 3/120/2 18/119/2
f 18/119/2 29/121/2 31/122/2
f 30/134/1 4/132/1 3/131/1
f 3/131/1 31/133/1 30/134/1
f 37/138/1 38/136/1 4/135/1
f 4/135/1 30/137/1 37/138/1
f 36/142/6 33/140/6 51/139/6
f 51/139/6 46/141/6 36/142/6
f 47/146/1 48/144/1 38/143/1
f 38/143/1 37/145/1 47/146/1
f 46/150/6 51/148/6 25/147/6
f 25/147/6 54/149/6 46/150/6
f 55/154/1 27/152/1 48/151/1
f 48/151/1 47/153/1 55/154/1
f 54/76/3 25/156/3 27/155/3
f 27/155/3 55/75/3 54/76/3
f 57/160/2 33/158/2 32/157/2
f 32/157/2 56/159/2 57/160/2
f 56/164/5 32/162/5 50/161/5
f 50/161/5 58/163/5 56/164/5
f 59/168/4 51/166/4 33/165/4
f 33/165/4 57/167/4 59/168/4
f 58/160/3 50/158/3 51/157/3
f 51/157/3 59/159/3 58/160/3
f 61/172/2 57/170/2 56/169/2
f 56/169/2 60/171/2 61/172/2
f 60/176/5 56/174/5 58/173/5
f 58/173/5 62/175/5 60/176/5
f 63/180/4 59/178/4 57/177/4
f 57/177/4 61/179/4 63/180/4
f 62/172/3 58/170/3 59/169/3
f 59/169/3 63/171/3 62/172/3
f 41/184/2 61/182/2 60/181/2
f 60/181/2 40/183/2 41/184/2
f 40/188/5 60/186/5 62/185/5
f 62/185/5 42/187/5 40/188/5
f 43/192/4 63/190/4 61/189/4
f 61/189/4 41/191/4 43/192/4
f 42/184/3 62/182/3 63/181/3
f 63/181/3 43/183/3 42/184/3
f 10/196/6 13/194/6 64/193/6
f 64/193/6 9/195/6 10/196/6
f 9/200/5 64/198/5 15/197/5
f 15/197/5 11/199/5 9/200/5
f 12/204/4 14/202/4 13/201/4
f 13/201/4 10/203/4 12/204/4
f 11/208/1 15/206/1 14/205/1
f 14/205/1 12/207/1 11/208/1
f 78/248/5 75/247/5 83/250/5
f 83/250/5 87/249/5 78/248/5
f 94/252/5 93/251/5 96/254/5
f 96/254/5 95/253/5 94/252/5
f 76/256/5 74/255/5 82/258/5
f 82/258/5 84/257/5 76/256/5
f 98/260/5 97/259/5 100/262/5
f 100/262/5 99/261/5 98/260/5
f 104/270/5 103/269/5 102/268/5
f 102/268/5 105/271/5 104/270/5
f 77/273/5 72/272/5 81/275/5
f 81/275/5 85/274/5 77/273/5
f 89/279/2 87/277/2 71/276/2
f 71/276/2 88/278/2 89/279/2
f 88/283/1 71/281/1 69/280/1
f 69/280/1 92/282/1 88/283/1
f 90/287/6 78/285/6 87/284/6
f 87/284/6 89/286/6 90/287/6
f 91/291/3 70/289/3 78/288/3
f 78/288/3 90/290/3 91/291/3
f 92/295/1 69/293/1 70/292/1
f 70/292/1 91/294/1 92/295/1
f 93/287/6 76/285/6 84/284/6
f 84/284/6 96/286/6 93/287/6
f 94/299/3 75/297/3 76/296/3
f 76/296/3 93/298/3 94/299/3
f 96/303/2 84/301/2 83/300/2
f 83/300/2 95/302/2 96/303/2
f 95/307/1 83/305/1 75/304/1
f 75/304/1 94/306/1 95/307/1
f 97/287/6 77/285/6 85/284/6
f 85/284/6 100/286/6 97/287/6
f 98/311/3 74/309/3 77/308/3
f 77/308/3 97/310/3 98/311/3
f 100/315/2 85/313/2 82/312/2
f 82/312/2 99/314/2 100/315/2
f 99/307/1 82/305/1 74/304/1
f 74/304/1 98/306/1 99/307/1
f 103/287/6 79/285/6 86/284/6
f 86/284/6 102/286/6 103/287/6
f 104/319/3 72/317/3 79/316/3
f 79/316/3 103/318/3 104/319/3
f 102/323/2 86/321/2 81/320/2
f 81/320/2 105/322/2 102/323/2
f 105/307/1 81/305/1 72/304/1
f 72/304/1 104/306/1 105/307/1
f 112/335/6 111/334/6 110/333/6
f 110/333/6 109/332/6 112/335/6
f 114/343/6 113/342/6 116/345/6
f 116/345/6 115/344/6 114/343/6
f 111/349/3 67/347/3 68/346/3
f 68/346/3 110/348/3 111/349/3
f 112/353/5 73/351/5 67/350/5
f 67/350/5 111/352/5 112/353/5
f 109/349/2 107/347/2 73/346/2
f 73/346/2 112/348/2 109/349/2
f 110/357/4 68/355/4 107/354/4
f 107/354/4 109/356/4 110/357/4
f 113/349/3 80/347/3 108/346/3
f 108/346/3 116/348/3 113/349/3
f 114/361/5 66/359/5 80/358/5
f 80/358/5 113/360/5 114/361/5
f 115/349/2 65/347/2 66/346/2
f 66/346/2 114/348/2 115/349/2
f 116/365/4 108/363/4 65/362/4
f 65/362/4 115/364/4 116/365/4

