# ProBuilder 4.4.0
# https://unity3d.com/unity/features/worldbuilding/probuilder
# 2021/1/31 1:25:40

mtllib ./Transporter-Component-0.mtl
o Transporter-Component-0

g Transporter-Component-0
v -0.08 0 0
v -0.08 0.9 0
v -0.04 0 0.06928203
v -0.04 0.9 0.06928203
v 0.04 0 0.06928203
v 0.04 0.9 0.06928203
v 0.08 0 -6.993822E-09
v 0.08 0.9 -6.993822E-09
v 0.03999999 0 -0.06928203
v 0.03999999 0.9 -0.06928203
v -0.03999999 0 -0.06928203
v -0.03999999 0.9 -0.06928203
v -0.08 -0.01 0
v 0 -0.01 0
v -0.04 -0.01 0.06928203
v -0.08 0.9349999 0
v 0 0.9349999 0
v -0.04 0.9349999 0.06928203
v 0.04 -0.01 0.06928203
v 0.04 0.9349999 0.06928203
v 0.08 -0.01 -6.993822E-09
v 0.08 0.9349999 -6.993822E-09
v 0.03999999 -0.01 -0.06928203
v 0.03999999 0.9349999 -0.06928203
v -0.03999999 -0.01 -0.06928203
v -0.03999999 0.9349999 -0.06928203
v 0.05443375 0 -0.09428203
v -0.05443375 0 -0.09428203
v 0.05443375 -0.01 -0.09428203
v -0.05443375 -0.01 -0.09428203
v 0.1088675 0 -1.096747E-08
v 0.1088675 -0.01 -1.096747E-08
v -0.1088675 0 0
v -0.1088675 -0.01 0
v -0.05443375 0 0.09428203
v -0.05443375 -0.01 0.09428203
v 0.05443376 0 0.09428203
v 0.05443376 -0.01 0.09428203
v -1.379038 0.9 -0.75
v -1.339038 0.9 -0.8192821
v -1.379038 0.925 -0.75
v -1.339038 0.925 -0.8192821
v -0.04 0.925 0.06928203
v -0.08 0.925 0
v -0.03999999 0.925 -0.06928203
v 0.03999999 0.925 -0.06928203
v 1.339038 0.9 -0.8192823
v 1.379038 0.9 -0.7500002
v 1.339038 0.925 -0.8192823
v 1.379038 0.925 -0.7500002
v 0.08 0.925 -6.993822E-09
v 0.04 0.925 0.06928203
v 0.04 0.9 1.569282
v -0.04 0.9 1.569282
v 0.04 0.925 1.569282
v -0.04 0.925 1.569282
v 0.2132051 0.9 -0.169282
v 0.2532051 0.9 -0.1
v 0.2132051 0.925 -0.169282
v 0.2532051 0.925 -0.1
v 0.04 0.9 0.269282
v -0.04 0.9 0.269282
v 0.04 0.925 0.269282
v -0.04 0.925 0.269282
v -0.2532051 0.9 -0.1
v -0.2132051 0.9 -0.169282
v -0.2532051 0.925 -0.1
v -0.2132051 0.925 -0.169282
v 0.163205 0.9124999 -0.2558846
v 0.163205 0.9 -0.2558846
v 1.289038 0.9124999 -0.9058847
v 1.289038 0.9 -0.9058848
v 0.14 0.9124999 0.2692821
v 0.14 0.9 0.269282
v 0.14 0.9124999 1.569282
v 0.14 0.9 1.569282
v -0.3032051 0.9124999 -0.01339746
v -0.3032051 0.9 -0.01339748
v -1.429038 0.9124999 -0.6633976
v -1.429038 0.9 -0.6633974

vt -0.04 0
vt -0.04 0.9
vt 0.04 0
vt 0.04 0.9
vt -0.04 0
vt -0.04 0.9
vt 0.04 0
vt 0.04 0.9
vt -0.08 0
vt 0 0
vt -0.04 0.06928203
vt 0.08 0
vt 0.04 0.06928203
vt 0.04 0.06928203
vt -0.04 0.06928203
vt 0.03999999 -0.06928203
vt -0.03999999 -0.06928203
vt -0.05443375 0
vt 0.05443375 0
vt -0.05443375 -0.01
vt 0.05443375 -0.01
vt -0.05443376 0.09428203
vt -0.1088675 -1.096747E-08
vt 0.05443376 0.09428203
vt 0.1088675 -1.096747E-08
vt -0.05443375 -0.09428203
vt 0.05443375 -0.09428203
vt 0.03999908 0.925
vt -0.04000092 0.925
vt -0.03999999 0.925
vt 0.04000119 0.925
vt 0.2132051 -0.169282
vt 0.2532051 -0.1
vt -0.06928203 0.925
vt -0.06928203 0.9
vt -0.269282 0.925
vt -0.269282 0.9
vt 0.06928203 0.9
vt 0.06928203 0.925
vt 0.269282 0.9
vt 0.269282 0.925
vt -0.2532051 -0.1
vt -0.2132051 -0.169282
vt 0.04 0.269282
vt -0.04 0.269282
vt 0.04 0.269282
vt -0.04 0.269282
vt 1.339038 -0.8192823
vt 1.379038 -0.7500002
vt -0.269282 0.9125005
vt -0.269282 0.9000006
vt -1.569282 0.9125005
vt -1.569282 0.9000006
vt 1.569282 0.9
vt 1.569282 0.925
vt -1.379038 -0.7500002
vt -1.339038 -0.8192823
vt 0.04 1.569282
vt -0.04 1.569282
vt -0.2692821 0.9124997
vt -1.569282 0.9124997
vt -1.569282 0.8999998
vt 0.04 1.569282
vt -0.04 1.569282
vt -0.1400001 0.9124999
vt -0.1400001 0.9
vt -1.39413 -0.7243465
vt -0.27049 -0.0705634
vt -1.343448 -0.8114529
vt -0.2198076 -0.15767
vt 0.163205 -0.2558846
vt 1.289038 -0.9058848
vt 0.1399991 0.9
vt 0.1399991 0.9124999
vt 1.318652 -0.8540687
vt 0.1950118 -0.2002859
vt 1.369335 -0.7669622
vt 0.2456942 -0.1131794
vt -0.3032051 -0.01339748
vt -1.429038 -0.6633974
vt 0.07504146 1.569282
vt 0.07504146 0.269282
vt -0.02573675 1.569282
vt -0.02573675 0.2692821
vt 0.14 0.269282
vt 0.14 1.569282
vt 0.14 0.9
vt 0.04 0.9349999
vt -0.04 0.9349999
vt 0.04 0.9349999
vt -0.04 0.9349999

vn -0.8660254 0 0.5000001
vn 0 0 1
vn 0.8660254 0 0.4999999
vn 0.8660253 0 -0.5000001
vn 0 0 -1
vn -0.8660254 0 -0.5000001
vn 0 -1 0
vn 0 1 0
vn -0.8660257 0 -0.4999995
vn 0.8660257 0 -0.4999995
vn -0.5000001 0 -0.8660253
vn 0.5000001 0 0.8660253
vn 1 0 0
vn -1 0 0
vn -0.5000001 0 0.8660253
vn 0.5000001 0 -0.8660254
vn -0.8660254 0 0.5
vn -0.0620176 0.9922778 -0.1074176
vn 0.8660252 0 0.5000004
vn -0.06201766 0.9922778 0.1074177
vn 0.1240352 0.9922778 0

usemtl Metal_pattern_30-Darker_2
f 13/9/7 14/10/7 15/11/7
f 15/11/7 14/10/7 19/14/7
f 19/14/7 14/10/7 21/12/7
f 21/12/7 14/10/7 23/16/7
f 23/16/7 14/10/7 25/17/7
f 25/17/7 14/10/7 13/9/7
f 18/13/8 17/10/8 16/12/8
f 20/15/8 17/10/8 18/13/8
f 22/9/8 17/10/8 20/15/8
f 24/17/8 17/10/8 22/9/8
f 26/16/8 17/10/8 24/17/8
f 16/12/8 17/10/8 26/16/8
f 4/4/1 2/2/1 1/1/1
f 1/1/1 3/3/1 4/4/1
f 6/8/2 4/6/2 3/5/2
f 3/5/2 5/7/2 6/8/2
f 8/4/3 6/2/3 5/1/3
f 5/1/3 7/3/3 8/4/3
f 10/4/4 8/2/4 7/1/4
f 7/1/4 9/3/4 10/4/4
f 12/4/5 10/6/5 9/5/5
f 9/5/5 11/3/5 12/4/5
f 2/8/6 12/6/6 11/5/6
f 11/5/6 1/7/6 2/8/6
f 30/21/5 28/19/5 27/18/5
f 27/18/5 29/20/5 30/21/5
f 29/21/4 27/19/4 31/18/4
f 31/18/4 32/20/4 29/21/4
f 34/21/6 33/19/6 28/18/6
f 28/18/6 30/20/6 34/21/6
f 36/21/1 35/19/1 33/18/1
f 33/18/1 34/20/1 36/21/1
f 38/21/2 37/19/2 35/18/2
f 35/18/2 36/20/2 38/21/2
f 32/21/3 31/19/3 37/18/3
f 37/18/3 38/20/3 32/21/3
f 31/23/8 7/9/8 5/15/8
f 5/15/8 37/22/8 31/23/8
f 36/22/7 15/11/7 19/14/7
f 19/14/7 38/24/7 36/22/7
f 38/24/7 19/14/7 21/12/7
f 21/12/7 32/25/7 38/24/7
f 27/26/8 9/17/8 7/9/8
f 7/9/8 31/23/8 27/26/8
f 32/25/7 21/12/7 23/16/7
f 23/16/7 29/27/7 32/25/7
f 28/27/8 11/16/8 9/17/8
f 9/17/8 27/26/8 28/27/8
f 29/27/7 23/16/7 25/17/7
f 25/17/7 30/26/7 29/27/7
f 33/25/8 1/12/8 11/16/8
f 11/16/8 28/27/8 33/25/8
f 30/26/7 25/17/7 13/9/7
f 13/9/7 34/23/7 30/26/7
f 35/24/8 3/13/8 1/12/8
f 1/12/8 33/25/8 35/24/8
f 34/23/7 13/9/7 15/11/7
f 15/11/7 36/22/7 34/23/7
f 37/22/8 5/15/8 3/13/8
f 3/13/8 35/24/8 37/22/8
f 42/29/9 40/2/9 39/4/9
f 39/4/9 41/28/9 42/29/9
f 44/29/1 2/2/1 4/4/1
f 4/4/1 43/28/1 44/29/1
f 46/30/5 10/6/5 12/4/5
f 12/4/5 45/28/5 46/30/5
f 50/30/10 48/6/10 47/8/10
f 47/8/10 49/31/10 50/30/10
f 52/29/3 6/2/3 8/4/3
f 8/4/3 51/28/3 52/29/3
f 56/30/2 54/6/2 53/8/2
f 53/8/2 55/31/2 56/30/2
f 58/33/7 8/12/7 10/16/7
f 10/16/7 57/32/7 58/33/7
f 57/37/11 10/35/11 46/34/11
f 46/34/11 59/36/11 57/37/11
f 60/41/12 51/39/12 8/38/12
f 8/38/12 58/40/12 60/41/12
f 59/43/8 46/17/8 51/9/8
f 51/9/8 60/42/8 59/43/8
f 62/45/7 4/11/7 6/14/7
f 6/14/7 61/44/7 62/45/7
f 61/37/13 6/35/13 52/34/13
f 52/34/13 63/36/13 61/37/13
f 64/41/14 43/39/14 4/38/14
f 4/38/14 62/40/14 64/41/14
f 63/47/8 52/15/8 43/13/8
f 43/13/8 64/46/8 63/47/8
f 66/43/7 12/17/7 2/9/7
f 2/9/7 65/42/7 66/43/7
f 65/37/15 2/35/15 44/34/15
f 44/34/15 67/36/15 65/37/15
f 68/41/16 45/39/16 12/38/16
f 12/38/16 66/40/16 68/41/16
f 67/33/8 44/12/8 45/16/8
f 45/16/8 68/32/8 67/33/8
f 48/49/7 58/33/7 57/32/7
f 57/32/7 47/48/7 48/49/7
f 72/53/11 70/51/11 69/50/11
f 69/50/11 71/52/11 72/53/11
f 50/55/12 60/41/12 58/40/12
f 58/40/12 48/54/12 50/55/12
f 49/57/8 59/43/8 60/42/8
f 60/42/8 50/56/8 49/57/8
f 54/59/7 62/45/7 61/44/7
f 61/44/7 53/58/7 54/59/7
f 76/62/13 74/37/13 73/60/13
f 73/60/13 75/61/13 76/62/13
f 56/55/14 64/41/14 62/40/14
f 62/40/14 54/54/14 56/55/14
f 55/64/8 63/47/8 64/46/8
f 64/46/8 56/63/8 55/64/8
f 40/57/7 66/43/7 65/42/7
f 65/42/7 39/56/7 40/57/7
f 80/53/15 78/51/15 77/50/15
f 77/50/15 79/52/15 80/53/15
f 42/55/16 68/41/16 66/40/16
f 66/40/16 40/54/16 42/55/16
f 41/49/8 67/33/8 68/32/8
f 68/32/8 42/48/8 41/49/8
f 70/66/1 57/2/1 59/29/17
f 59/29/17 69/65/1 70/66/1
f 69/70/18 59/68/18 49/67/18
f 49/67/18 71/69/18 69/70/18
f 72/72/7 47/48/7 57/32/7
f 57/32/7 70/71/7 72/72/7
f 71/74/4 49/28/4 47/4/4
f 47/4/4 72/73/4 71/74/4
f 78/66/19 65/2/19 67/29/19
f 67/29/19 77/65/19 78/66/19
f 77/78/20 67/76/20 41/75/20
f 41/75/20 79/77/20 77/78/20
f 80/80/7 39/56/7 65/42/7
f 65/42/7 78/79/7 80/80/7
f 79/74/6 41/28/6 39/4/9
f 39/4/9 80/73/6 79/74/6
f 74/66/5 61/2/5 63/29/5
f 63/29/5 73/65/5 74/66/5
f 73/84/21 63/82/21 55/81/21
f 55/81/21 75/83/21 73/84/21
f 76/86/7 53/58/7 61/44/7
f 61/44/7 74/85/7 76/86/7
f 75/74/2 55/31/2 53/8/2
f 53/8/2 76/87/2 75/74/2
f 16/89/1 44/29/1 43/28/1
f 43/28/1 18/88/1 16/89/1
f 18/91/2 43/30/2 52/31/2
f 52/31/2 20/90/2 18/91/2
f 26/91/6 45/30/6 44/31/6
f 44/31/6 16/90/6 26/91/6
f 24/91/5 46/30/5 45/28/5
f 45/28/5 26/88/5 24/91/5
f 22/89/4 51/29/4 46/28/4
f 46/28/4 24/88/4 22/89/4
f 20/89/3 52/29/3 51/31/3
f 51/31/3 22/90/3 20/89/3

